<svg width="344" height="460" viewBox="0 0 344 460" fill="none" xmlns="http://www.w3.org/2000/svg">
<path d="M235.546 147.545C235.546 147.545 273.118 207.005 269.5 219C265.883 230.995 249.5 240.85 246.5 242.5C243.5 244.15 228.64 255.635 218.133 242.5C207.626 229.366 230.72 211.946 230.72 211.946L221.146 194.346C163.805 282.29 154.93 328.121 160.719 430.748C160.719 430.748 161.511 452.351 138.314 452.344C115.117 452.336 117.519 430.748 117.519 430.748L117.519 281.548C95.0215 304.792 82.9247 316.296 67.5181 319.548L152.719 158.747L67.5181 179.947C67.5181 179.947 51.2778 182.744 47.9179 167.147C44.558 151.551 58.718 147.545 58.718 147.545L192.719 115.947L202.319 119.547L160.719 224.348L192.719 232.748L235.546 147.545Z" fill="black"/>
<path d="M218.133 143.745L216.518 139.348L211.289 141.343L171.121 216.346L185.121 220.35L218.133 143.745Z" fill="black"/>
<path d="M202.319 119.547L160.719 224.348L192.719 232.748L235.546 147.545L230.72 141.839L221.146 151.945L218.133 143.745L185.121 220.35L171.121 216.346L211.289 141.343L197.122 146.747L207.424 123.443L202.319 119.547Z" fill="white"/>
<path fill-rule="evenodd" clip-rule="evenodd" d="M221.734 135.933L212.501 117.165L211.289 114.701L207.424 123.443L197.122 146.747L211.289 141.343L216.518 139.348L218.133 143.745L221.146 151.945L230.72 141.839L235.546 136.745L228.64 136.339L221.734 135.933ZM221.734 135.933L222.324 137.133L216.518 139.348L215.121 135.545L221.734 135.933Z" fill="black"/>
<path d="M216.518 139.348L222.324 137.133L221.734 135.933L215.121 135.545L216.518 139.348Z" fill="black"/>
<path d="M212.501 117.165L221.734 135.933L228.64 136.339L238.001 127.997L221.381 107.171L212.501 117.165Z" fill="#FFF5E1"/>
<path d="M259.806 66.8877C236.769 62.366 220.605 87.3087 210.666 94.7465C205.399 98.6884 195.724 89.4108 185.959 88.87C196.87 83.396 210.635 94.8972 223.671 73.6007C239.677 47.4522 256.553 22.2441 272.151 35.0773C296.396 55.0239 299.984 74.7738 259.806 66.8877Z" fill="url(#paint0_linear_6_221)"/>
<path d="M276.863 84.1304C285.739 105.864 264.378 126.532 258.995 137.717C256.141 143.646 267.109 151.352 269.522 160.829C272.791 149.068 258.853 137.777 277.238 120.882C299.813 100.137 321.297 78.7201 305.698 65.887C281.454 45.9403 261.383 46.2249 276.863 84.1304Z" fill="url(#paint1_linear_6_221)"/>
<path d="M300.342 114.215C280.696 138.094 238.5 135.839 226.806 126.218C205.839 108.968 204.769 75.6262 224.415 51.7471C244.061 27.868 276.984 22.4941 297.951 39.7441C318.917 56.9941 319.988 90.3358 300.342 114.215Z" fill="#FFF5E1"/>
<path d="M227.88 100.875L234.161 117.45L251.636 120.419" stroke="#EB576D" stroke-width="2" stroke-linecap="round"/>
<path d="M290.837 111.007C290.837 111.007 288.137 98.8323 282.606 93.4557C277.899 88.8803 266.959 85.725 266.959 85.725C266.959 85.725 277.453 89.5506 281.996 94.1967C287.104 99.4195 290.837 111.007 290.837 111.007Z" fill="#E3C199"/>
<path d="M302.623 39.4166C303.907 40.2068 305.186 41.1164 306.448 42.1552C325.771 58.0524 326.981 90.5895 311.889 108.933C306.503 115.478 284.005 131.039 275.8 133.071C281.94 123.468 275.736 122.809 264.849 114.696C255.342 107.61 268.626 85.9975 264.333 77.6087C260.921 70.9397 260.362 61.2281 268.25 51.6405C261.281 60.111 250.005 71.6327 232.472 65.0431C224.788 63.2357 214.501 78.3417 210.292 83.4575C212.655 70.4461 218.04 49.5144 221.522 45.5978C222.213 44.8206 226.367 37.2175 227.258 36.1337C242.35 17.79 277.37 17.2476 296.631 33.0941C299.128 35.1488 301.106 37.2892 302.623 39.4166Z" fill="url(#paint2_linear_6_221)"/>
<rect x="228.184" y="74.3895" width="31.4771" height="13.2926" transform="rotate(39.4453 228.184 74.3895)" fill="#BEFFFF" fill-opacity="0.9" stroke="black" stroke-width="2"/>
<rect x="262.213" y="101.133" width="31.9294" height="13.2926" transform="rotate(39.4453 262.213 101.133)" fill="#BEFFFF" fill-opacity="0.9" stroke="black" stroke-width="2"/>
<path d="M291.467 120.262C291.467 120.262 292.012 112.903 289.801 108.19C288.511 105.44 282.916 100.544 280.657 98.4721C275.925 94.1309 268.714 94.1194 268.714 94.1194C268.714 94.1194 276.227 99.4033 280.742 103.824C285.817 108.793 291.467 120.262 291.467 120.262Z" fill="black"/>
<path d="M226.755 68.3496C226.755 68.3496 233.853 66.3476 238.909 67.5755C241.859 68.2918 247.77 72.8017 250.249 74.6033C255.444 78.3777 256.894 85.446 256.894 85.446C256.894 85.446 250.221 79.1331 244.991 75.5879C239.113 71.6026 226.755 68.3496 226.755 68.3496Z" fill="black"/>
<defs>
<linearGradient id="paint0_linear_6_221" x1="270.654" y1="33.8452" x2="209.469" y2="108.213" gradientUnits="userSpaceOnUse">
<stop stop-color="#2C2020"/>
<stop offset="1" stop-color="#4E2120"/>
</linearGradient>
<linearGradient id="paint1_linear_6_221" x1="307.196" y1="67.1191" x2="246.011" y2="141.487" gradientUnits="userSpaceOnUse">
<stop stop-color="#2C2020"/>
<stop offset="1" stop-color="#4E2120"/>
</linearGradient>
<linearGradient id="paint2_linear_6_221" x1="307.878" y1="28.0593" x2="256.814" y2="90.1258" gradientUnits="userSpaceOnUse">
<stop/>
<stop offset="0.566719" stop-color="#450704"/>
</linearGradient>
</defs>
</svg>
