<svg width="343" height="468" viewBox="0 0 343 468" fill="none" xmlns="http://www.w3.org/2000/svg">
<path d="M107.464 154.895C107.464 154.895 69.8918 214.355 73.5089 226.35C77.126 238.345 93.5094 248.2 96.5094 249.85C99.5094 251.5 114.369 262.985 124.876 249.85C135.383 236.716 112.29 219.296 112.29 219.296L121.864 201.696C179.205 289.64 188.079 335.471 182.29 438.098C182.29 438.098 181.498 459.701 204.695 459.694C227.893 459.686 225.491 438.098 225.491 438.098L225.491 288.898C247.988 312.142 260.085 323.646 275.491 326.898L190.291 166.097L275.491 187.297C275.491 187.297 291.732 190.093 295.092 174.497C298.451 158.901 284.291 154.895 284.291 154.895L150.29 123.297L140.69 126.897L182.29 231.698L150.29 240.098L107.464 154.895Z" fill="black"/>
<path d="M124.876 151.095L126.492 146.698L131.721 148.693L171.889 223.696L157.888 227.7L124.876 151.095Z" fill="black"/>
<path d="M140.69 126.897L182.29 231.698L150.29 240.098L107.464 154.895L112.29 149.189L121.864 159.295L124.876 151.095L157.888 227.7L171.889 223.696L131.721 148.693L145.887 154.097L135.585 130.792L140.69 126.897Z" fill="white"/>
<path fill-rule="evenodd" clip-rule="evenodd" d="M121.275 143.283L130.509 124.515L131.721 122.051L135.585 130.792L145.887 154.097L131.721 148.693L126.492 146.698L124.876 151.095L121.864 159.295L112.29 149.189L107.464 144.095L114.369 143.689L121.275 143.283ZM121.275 143.283L120.685 144.483L126.492 146.698L127.889 142.895L121.275 143.283Z" fill="black"/>
<path d="M126.492 146.698L120.685 144.483L121.275 143.283L127.889 142.895L126.492 146.698Z" fill="black"/>
<path d="M130.509 124.515L121.275 143.283L114.369 143.689L105.009 135.347L121.629 114.521L130.509 124.515Z" fill="#FFF5E1"/>
<path d="M75.696 71.2669C60.4871 95.506 89.5553 147.715 76.7403 158.697C74.777 148.19 71.8215 142.841 57.3766 154.448C64.8303 142.734 63.2843 142.517 44.785 119.46C22.0709 91.1487 23.547 57.4582 44.9481 44.8721C78.2119 25.3095 102.222 28.9919 75.696 71.2669Z" fill="url(#paint0_linear_6_197)"/>
<path d="M78.0147 69.3023C106.59 67.7916 138.09 118.571 153.916 112.709C145.688 105.886 142.45 100.704 159.614 93.7206C145.754 94.5416 146.316 93.0852 135.156 65.7111C121.454 32.1003 91.2927 17.0157 69.8916 29.6018C36.6279 49.1644 28.1766 71.9373 78.0147 69.3023Z" fill="url(#paint1_linear_6_197)"/>
<path d="M127.932 59.3111C144.214 86.9962 132.044 112.926 113.103 135.498C88.9437 140.869 55.5943 139.114 39.3126 111.429C23.0308 83.7436 29.6701 49.6336 54.1417 35.2417C78.6133 20.8498 111.65 31.6261 127.932 59.3111Z" fill="#FFF5E1"/>
<path d="M94.7545 125.812L100.375 124.614L105.299 121.719L110.893 118.429L113.329 114.888" stroke="#EB576D" stroke-width="2" stroke-linecap="round"/>
<path d="M53.6279 31.215C61.1503 26.7911 69.3382 24.0364 77.1215 23.2369C98.9464 17.8479 122.263 37.4539 134.635 66.1824C140.09 78.851 141.694 112.512 137.889 126.672C135.92 105.963 122.224 90.2078 117.177 87.6326C110.181 84.0638 101.595 89.7106 95.3655 86.9065C85.8141 82.6068 76.0366 84.8352 65.0701 84.3504C63.4299 87.2512 61.8921 89.8613 60.484 92.2513C53.163 104.679 49.344 111.163 52.7844 121.628C55.1543 128.836 74.6343 150.292 83.6066 159.481C70.4312 151.634 52.2521 133.721 43.851 122.794C28.7118 103.102 23.7738 81.6593 28.3211 66.9405C28.4005 62.8326 29.4992 58.4535 31.612 54.0431C35.8315 45.2348 43.7511 37.0236 53.6279 31.215Z" fill="url(#paint2_linear_6_197)"/>
<path d="M123.248 68.5896C123.248 68.5896 114.345 67.1951 108.658 69.3552C105.341 70.6154 99.4532 76.7939 96.9608 79.2784C91.7393 84.4836 91.7692 93.0832 91.7692 93.0832C91.7692 93.0832 98.1141 84.6569 103.433 79.7192C109.412 74.1686 123.248 68.5896 123.248 68.5896Z" fill="black"/>
<path d="M45.2758 116.641C45.2758 116.641 47.9302 108.029 52.367 103.868C54.9553 101.44 63.0908 98.8611 66.4172 97.712C73.3859 95.3047 81.0999 99.1058 81.0999 99.1058C81.0999 99.1058 70.7439 101.109 63.9727 103.721C56.3611 106.657 45.2758 116.641 45.2758 116.641Z" fill="black"/>
<rect x="55.0257" y="116.23" width="31.8253" height="15.5891" transform="rotate(-30.46 55.0257 116.23)" fill="#BEFFFF" fill-opacity="0.6" stroke="black" stroke-width="2"/>
<rect x="93.5125" y="93.5887" width="31.8253" height="15.5891" transform="rotate(-30.46 93.5125 93.5887)" fill="#BEFFFF" fill-opacity="0.6" stroke="black" stroke-width="2"/>
<defs>
<linearGradient id="paint0_linear_6_197" x1="42.8898" y1="46.0826" x2="100.642" y2="144.284" gradientUnits="userSpaceOnUse">
<stop stop-color="#2C2020"/>
<stop offset="1" stop-color="#646464"/>
</linearGradient>
<linearGradient id="paint1_linear_6_197" x1="71.95" y1="28.3913" x2="129.703" y2="126.593" gradientUnits="userSpaceOnUse">
<stop stop-color="#2C2020"/>
<stop offset="1" stop-color="#646464"/>
</linearGradient>
<linearGradient id="paint2_linear_6_197" x1="52.4682" y1="31.8967" x2="116.221" y2="140.3" gradientUnits="userSpaceOnUse">
<stop stop-color="#241503"/>
<stop offset="1" stop-color="#454545"/>
</linearGradient>
</defs>
</svg>
