<svg width="91" height="91" viewBox="0 0 91 91" fill="none" xmlns="http://www.w3.org/2000/svg">
<circle cx="45.3867" cy="45.3867" r="43.8867" fill="#C79962" stroke="black" stroke-width="3"/>
<circle cx="45.0117" cy="48.2338" r="26.9848" fill="#FFE6C8"/>
<path d="M43.696 15.0463C42.9171 14.9288 42.1011 14.8661 41.2486 14.8661C28.2026 14.8661 16.346 25.3858 16.3463 38.9471C16.3464 43.7861 15.7145 49.934 18.3447 53.8061C19.0536 47.3451 27.0042 41.9613 34.0752 42.3329C40.2504 42.6574 41.1237 40.6757 42.869 38.0515C45.0663 34.7478 47.3988 27.43 53.4865 32.9032C62.0305 27.6049 57.565 42.9037 66.8071 46.358C70.4997 48.3483 71.5251 51.1223 71.5251 54.9044C74.8839 48.3109 74.4549 46.5469 74.3503 43.5572C74.3295 42.9639 74.0697 41.2003 74.0697 40.3991C74.0699 26.838 61.2075 14.4323 48.2031 14.4323C46.5169 14.4323 45.0115 14.6586 43.696 15.0463Z" fill="black"/>
<path d="M43.696 15.0475C40.6519 14.3271 39.2867 11.4232 37.4958 8.13623C37.4958 8.13623 36.9698 12.7287 39.577 14.5297C41.0167 15.5242 43.696 15.0475 43.696 15.0475Z" fill="black"/>
<path d="M47.3988 9.32938C45.5562 11.4225 44.7247 12.6759 43.696 15.0475C43.696 15.0475 45.6716 15.9025 46.4611 14.8224C47.3674 13.5822 47.3988 9.32938 47.3988 9.32938Z" fill="black"/>
<path d="M39.2872 75.1231L56.9681 68.2368V82.0093L39.2872 75.1231Z" fill="black"/>
<path d="M50.8601 75.1231L33.1792 68.2368V82.0093L50.8601 75.1231Z" fill="black"/>
</svg>
