
<svg width="1440" height="1024" viewBox="0 0 1440 1024" fill="none" xmlns="http://www.w3.org/2000/svg">
<path d="M67.5 1024H90L495 539H483.75L67.5 1024Z" fill="#FFCF25"/>
<path fill-rule="evenodd" clip-rule="evenodd" d="M450 539H472.5H483.75L67.5 1024H45H0L450 539ZM180 1024H90L495 539H540H720H900H945L1350 1024H1260H1080H720H360H180ZM1372.5 1024H1395H1440L990 539H967.5H956.25L1372.5 1024Z" fill="#AA0000"/>
<path d="M956.25 539H945L1350 1024H1372.5L956.25 539Z" fill="#FFCF25"/>
<rect x="450" width="540" height="539" fill="#A97754"/>
<path d="M557.033 277.25C553.066 277.25 549.616 276.533 546.683 275.1C543.749 273.633 541.499 271.567 539.933 268.9C538.366 266.233 537.583 263.133 537.583 259.6C537.583 254.7 538.499 250.35 540.333 246.55C542.199 242.75 544.716 239.817 547.883 237.75C551.049 235.65 554.566 234.6 558.433 234.6C562.033 234.6 564.766 235.533 566.633 237.4C568.499 239.233 569.433 241.667 569.433 244.7C569.433 246.733 569.066 248.367 568.333 249.6C567.633 250.833 566.616 251.45 565.283 251.45C564.349 251.45 563.616 251.233 563.083 250.8C562.549 250.367 562.283 249.733 562.283 248.9C562.283 248.6 562.349 248.05 562.483 247.25C562.683 246.25 562.783 245.45 562.783 244.85C562.783 241.817 561.166 240.3 557.933 240.3C555.733 240.3 553.633 241.017 551.633 242.45C549.633 243.883 548.016 246 546.783 248.8C545.549 251.567 544.933 254.867 544.933 258.7C544.933 262.7 546.049 265.8 548.283 268C550.516 270.167 553.816 271.25 558.183 271.25C560.349 271.25 562.533 270.983 564.733 270.45C566.966 269.883 569.433 269.033 572.133 267.9C572.633 267.7 573.049 267.6 573.383 267.6C573.916 267.6 574.316 267.8 574.583 268.2C574.849 268.6 574.983 269.117 574.983 269.75C574.983 271.783 573.883 273.283 571.683 274.25C569.316 275.283 566.849 276.05 564.283 276.55C561.749 277.017 559.333 277.25 557.033 277.25ZM598.81 265.85C599.243 265.85 599.577 266.05 599.81 266.45C600.077 266.85 600.21 267.4 600.21 268.1C600.21 269.433 599.893 270.467 599.26 271.2C597.727 272.967 596.143 274.417 594.51 275.55C592.91 276.683 591.077 277.25 589.01 277.25C587.31 277.25 586.027 276.767 585.16 275.8C584.293 274.8 583.86 273.367 583.86 271.5C583.86 270.567 584.093 268.9 584.56 266.5C584.993 264.4 585.21 262.95 585.21 262.15C585.21 261.617 585.027 261.35 584.66 261.35C584.227 261.35 583.61 261.917 582.81 263.05C582.01 264.15 581.21 265.617 580.41 267.45C579.61 269.283 578.96 271.217 578.46 273.25C577.827 275.917 576.26 277.25 573.76 277.25C572.76 277.25 572.093 276.9 571.76 276.2C571.46 275.467 571.31 274.167 571.31 272.3C571.31 271.233 571.327 270.383 571.36 269.75L571.41 265.75C571.41 260.617 571.927 255.267 572.96 249.7C574.027 244.133 575.577 239.467 577.61 235.7C579.677 231.9 582.143 230 585.01 230C586.543 230 587.777 230.667 588.71 232C589.677 233.3 590.16 235 590.16 237.1C590.16 240.467 589.177 243.967 587.21 247.6C585.243 251.2 582.043 255.417 577.61 260.25C577.51 261.983 577.46 263.767 577.46 265.6C578.56 262.767 579.777 260.467 581.11 258.7C582.477 256.9 583.81 255.617 585.11 254.85C586.443 254.083 587.66 253.7 588.76 253.7C590.927 253.7 592.01 254.783 592.01 256.95C592.01 258.25 591.643 260.6 590.91 264C590.277 266.9 589.96 268.817 589.96 269.75C589.96 271.083 590.443 271.75 591.41 271.75C592.077 271.75 592.86 271.35 593.76 270.55C594.693 269.717 595.927 268.383 597.46 266.55C597.86 266.083 598.31 265.85 598.81 265.85ZM583.96 234.95C583.36 234.95 582.693 235.817 581.96 237.55C581.227 239.25 580.51 241.567 579.81 244.5C579.143 247.4 578.593 250.567 578.16 254C580.227 251.567 581.927 248.917 583.26 246.05C584.627 243.183 585.31 240.583 585.31 238.25C585.31 237.183 585.193 236.367 584.96 235.8C584.727 235.233 584.393 234.95 583.96 234.95ZM602.308 277.25C600.241 277.25 598.591 276.5 597.358 275C596.124 273.5 595.508 271.533 595.508 269.1C595.508 266.433 596.124 263.917 597.358 261.55C598.591 259.15 600.224 257.233 602.258 255.8C604.324 254.333 606.508 253.6 608.808 253.6C609.541 253.6 610.024 253.75 610.258 254.05C610.524 254.317 610.741 254.817 610.908 255.55C611.608 255.417 612.341 255.35 613.108 255.35C614.741 255.35 615.558 255.933 615.558 257.1C615.558 257.8 615.308 259.467 614.808 262.1C614.041 265.933 613.658 268.6 613.658 270.1C613.658 270.6 613.774 271 614.008 271.3C614.274 271.6 614.608 271.75 615.008 271.75C615.641 271.75 616.408 271.35 617.308 270.55C618.208 269.717 619.424 268.383 620.958 266.55C621.358 266.083 621.808 265.85 622.308 265.85C622.741 265.85 623.074 266.05 623.308 266.45C623.574 266.85 623.708 267.4 623.708 268.1C623.708 269.433 623.391 270.467 622.758 271.2C621.391 272.9 619.941 274.333 618.408 275.5C616.874 276.667 615.391 277.25 613.958 277.25C612.858 277.25 611.841 276.883 610.908 276.15C610.008 275.383 609.324 274.35 608.858 273.05C607.124 275.85 604.941 277.25 602.308 277.25ZM604.108 272.2C604.841 272.2 605.541 271.767 606.208 270.9C606.874 270.033 607.358 268.883 607.658 267.45L609.508 258.25C608.108 258.283 606.808 258.817 605.608 259.85C604.441 260.85 603.508 262.183 602.808 263.85C602.108 265.517 601.758 267.283 601.758 269.15C601.758 270.183 601.958 270.95 602.358 271.45C602.791 271.95 603.374 272.2 604.108 272.2ZM627.894 258.45C627.827 260.117 627.794 261.417 627.794 262.35C627.794 264.75 627.911 266.633 628.144 268C628.411 269.333 628.827 270.3 629.394 270.9C629.994 271.467 630.811 271.75 631.844 271.75C632.377 271.75 633.011 271.583 633.744 271.25C634.477 270.917 635.144 270.483 635.744 269.95C636.111 269.617 636.477 269.45 636.844 269.45C637.244 269.45 637.561 269.683 637.794 270.15C638.061 270.583 638.194 271.117 638.194 271.75C638.194 272.383 638.061 273 637.794 273.6C637.561 274.2 637.194 274.7 636.694 275.1C634.961 276.533 632.994 277.25 630.794 277.25C627.627 277.25 625.311 275.933 623.844 273.3C622.377 270.633 621.644 267.167 621.644 262.9C621.644 261.433 621.694 259.95 621.794 258.45H619.844C618.844 258.45 618.161 258.267 617.794 257.9C617.461 257.533 617.294 256.95 617.294 256.15C617.294 254.283 618.044 253.35 619.544 253.35H622.394C622.961 249.683 623.827 246.333 624.994 243.3C626.161 240.267 627.561 237.85 629.194 236.05C630.861 234.25 632.644 233.35 634.544 233.35C635.944 233.35 637.044 233.967 637.844 235.2C638.644 236.433 639.044 237.983 639.044 239.85C639.044 245.017 636.877 249.517 632.544 253.35H638.144C638.677 253.35 639.061 253.467 639.294 253.7C639.527 253.933 639.644 254.367 639.644 255C639.644 257.3 637.761 258.45 633.994 258.45H627.894ZM633.194 238.15C632.694 238.15 632.127 238.783 631.494 240.05C630.894 241.283 630.311 243.017 629.744 245.25C629.211 247.45 628.761 249.9 628.394 252.6C630.361 250.9 631.827 249 632.794 246.9C633.794 244.767 634.294 242.833 634.294 241.1C634.294 239.133 633.927 238.15 633.194 238.15ZM690.831 261.8C690.931 261.767 691.098 261.75 691.331 261.75C691.831 261.75 692.214 261.917 692.481 262.25C692.748 262.583 692.881 263.033 692.881 263.6C692.881 264.633 692.681 265.45 692.281 266.05C691.881 266.617 691.281 267.033 690.481 267.3C688.948 267.8 687.314 268.05 685.581 268.05C684.114 268.05 682.731 267.85 681.431 267.45C680.464 269.017 679.398 270.633 678.231 272.3C676.898 274.2 675.748 275.5 674.781 276.2C673.848 276.9 672.781 277.25 671.581 277.25C670.248 277.25 669.231 276.733 668.531 275.7C667.864 274.667 667.448 272.967 667.281 270.6L667.031 266.95C665.998 269.75 665.064 271.883 664.231 273.35C663.431 274.817 662.614 275.833 661.781 276.4C660.981 276.967 660.031 277.25 658.931 277.25C657.564 277.25 656.481 276.717 655.681 275.65C654.914 274.583 654.431 272.9 654.231 270.6C653.831 265.933 653.631 261.85 653.631 258.35V256.6C653.664 255.5 653.964 254.733 654.531 254.3C655.098 253.867 655.948 253.65 657.081 253.65C657.948 253.65 658.581 253.85 658.981 254.25C659.414 254.617 659.631 255.25 659.631 256.15C659.631 259.983 659.864 264.967 660.331 271.1C662.598 266.333 664.681 261.367 666.581 256.2C666.948 255.2 667.381 254.533 667.881 254.2C668.414 253.833 669.048 253.65 669.781 253.65C670.681 253.65 671.298 253.833 671.631 254.2C671.998 254.567 672.181 255.217 672.181 256.15C672.181 259.983 672.414 264.967 672.881 271.1C674.881 268.133 676.381 265.767 677.381 264C676.881 263.033 676.631 261.883 676.631 260.55C676.631 259.417 676.881 258.317 677.381 257.25C677.881 256.183 678.564 255.317 679.431 254.65C680.298 253.983 681.281 253.65 682.381 253.65C683.348 253.65 684.131 254 684.731 254.7C685.331 255.367 685.631 256.35 685.631 257.65C685.631 259.15 685.231 260.867 684.431 262.8C685.698 262.733 687.381 262.483 689.481 262.05L690.831 261.8ZM695.091 250.4C693.691 250.4 692.641 250.083 691.941 249.45C691.241 248.783 690.891 247.867 690.891 246.7C690.891 245.533 691.341 244.567 692.241 243.8C693.174 243 694.324 242.6 695.691 242.6C696.924 242.6 697.924 242.9 698.691 243.5C699.457 244.1 699.841 244.95 699.841 246.05C699.841 247.383 699.407 248.45 698.541 249.25C697.674 250.017 696.524 250.4 695.091 250.4ZM694.691 277.25C692.524 277.25 690.941 276.483 689.941 274.95C688.974 273.417 688.491 271.383 688.491 268.85C688.491 267.35 688.674 265.433 689.041 263.1C689.441 260.733 689.941 258.533 690.541 256.5C690.841 255.433 691.241 254.7 691.741 254.3C692.241 253.9 693.041 253.7 694.141 253.7C695.841 253.7 696.691 254.267 696.691 255.4C696.691 256.233 696.374 258.167 695.741 261.2C694.941 264.867 694.541 267.35 694.541 268.65C694.541 269.65 694.674 270.417 694.941 270.95C695.207 271.483 695.657 271.75 696.291 271.75C696.891 271.75 697.641 271.333 698.541 270.5C699.441 269.667 700.641 268.35 702.141 266.55C702.541 266.083 702.991 265.85 703.491 265.85C703.924 265.85 704.257 266.05 704.491 266.45C704.757 266.85 704.891 267.4 704.891 268.1C704.891 269.433 704.574 270.467 703.941 271.2C700.641 275.233 697.557 277.25 694.691 277.25ZM723.145 265.85C723.579 265.85 723.912 266.05 724.145 266.45C724.412 266.85 724.545 267.4 724.545 268.1C724.545 269.433 724.229 270.467 723.595 271.2C722.162 272.967 720.595 274.417 718.895 275.55C717.195 276.683 715.245 277.25 713.045 277.25C706.245 277.25 702.845 272.467 702.845 262.9C702.845 261.433 702.895 259.95 702.995 258.45H701.045C700.045 258.45 699.362 258.267 698.995 257.9C698.662 257.533 698.495 256.95 698.495 256.15C698.495 254.283 699.245 253.35 700.745 253.35H703.595C704.162 249.683 705.029 246.333 706.195 243.3C707.362 240.267 708.762 237.85 710.395 236.05C712.062 234.25 713.845 233.35 715.745 233.35C717.145 233.35 718.245 233.967 719.045 235.2C719.845 236.433 720.245 237.983 720.245 239.85C720.245 245.017 718.079 249.517 713.745 253.35H719.345C719.879 253.35 720.262 253.467 720.495 253.7C720.729 253.933 720.845 254.367 720.845 255C720.845 257.3 718.962 258.45 715.195 258.45H709.095C709.029 260.117 708.995 261.417 708.995 262.35C708.995 265.817 709.395 268.25 710.195 269.65C711.029 271.05 712.329 271.75 714.095 271.75C715.529 271.75 716.795 271.317 717.895 270.45C718.995 269.583 720.295 268.283 721.795 266.55C722.195 266.083 722.645 265.85 723.145 265.85ZM714.395 238.15C713.895 238.15 713.329 238.783 712.695 240.05C712.095 241.283 711.512 243.017 710.945 245.25C710.412 247.45 709.962 249.9 709.595 252.6C711.562 250.9 713.029 249 713.995 246.9C714.995 244.767 715.495 242.833 715.495 241.1C715.495 239.133 715.129 238.15 714.395 238.15ZM738.174 253.7C739.241 253.7 740.041 253.983 740.574 254.55C741.141 255.083 741.424 255.883 741.424 256.95C741.424 257.817 741.241 259.45 740.874 261.85C740.541 263.883 740.274 265.817 740.074 267.65C739.874 269.45 739.774 271.467 739.774 273.7C739.774 274.967 739.508 275.883 738.974 276.45C738.474 276.983 737.641 277.25 736.474 277.25C735.374 277.25 734.574 276.967 734.074 276.4C733.574 275.833 733.324 274.983 733.324 273.85C733.324 272.517 733.558 270.317 734.024 267.25C734.424 264.583 734.624 262.883 734.624 262.15C734.624 261.617 734.441 261.35 734.074 261.35C733.641 261.35 733.024 261.917 732.224 263.05C731.424 264.15 730.624 265.617 729.824 267.45C729.024 269.283 728.374 271.217 727.874 273.25C727.508 274.817 727.074 275.883 726.574 276.45C726.108 276.983 725.358 277.25 724.324 277.25C723.291 277.25 722.524 276.883 722.024 276.15C721.558 275.383 721.241 274.217 721.074 272.65C720.908 271.083 720.824 268.783 720.824 265.75C720.824 260.617 721.341 255.267 722.374 249.7C723.441 244.133 724.991 239.467 727.024 235.7C729.091 231.9 731.558 230 734.424 230C735.958 230 737.191 230.667 738.124 232C739.091 233.3 739.574 235 739.574 237.1C739.574 240.467 738.591 243.967 736.624 247.6C734.658 251.2 731.458 255.417 727.024 260.25C726.924 261.983 726.874 263.767 726.874 265.6C727.974 262.767 729.191 260.467 730.524 258.7C731.891 256.9 733.224 255.617 734.524 254.85C735.858 254.083 737.074 253.7 738.174 253.7ZM733.374 234.95C732.774 234.95 732.108 235.817 731.374 237.55C730.641 239.25 729.924 241.567 729.224 244.5C728.558 247.4 728.008 250.567 727.574 254C729.641 251.567 731.341 248.917 732.674 246.05C734.041 243.183 734.724 240.583 734.724 238.25C734.724 237.183 734.608 236.367 734.374 235.8C734.141 235.233 733.808 234.95 733.374 234.95ZM799.218 245C799.218 247.833 798.218 250.283 796.218 252.35C794.218 254.383 791.302 255.85 787.468 256.75C789.535 257.317 791.102 258.25 792.168 259.55C793.235 260.817 793.768 262.283 793.768 263.95C793.768 266.583 792.935 268.867 791.268 270.8C789.635 272.733 787.235 274.233 784.068 275.3C780.902 276.333 777.085 276.85 772.618 276.85C770.952 276.85 769.618 276.8 768.618 276.7C768.585 277.633 768.185 278.333 767.418 278.8C766.652 279.267 765.668 279.5 764.468 279.5C763.268 279.5 762.435 279.233 761.968 278.7C761.535 278.167 761.352 277.383 761.418 276.35C761.718 271.683 762.302 266.8 763.168 261.7C764.035 256.567 765.135 251.617 766.468 246.85C766.702 246.017 767.168 245.433 767.868 245.1C768.568 244.767 769.485 244.6 770.618 244.6C772.652 244.6 773.668 245.167 773.668 246.3C773.668 246.767 773.568 247.3 773.368 247.9C772.502 250.5 771.635 254.033 770.768 258.5C769.902 262.933 769.285 267.167 768.918 271.2C770.518 271.333 771.818 271.4 772.818 271.4C777.485 271.4 780.902 270.733 783.068 269.4C785.268 268.033 786.368 266.3 786.368 264.2C786.368 262.733 785.735 261.5 784.468 260.5C783.235 259.5 781.152 258.95 778.218 258.85C777.552 258.817 777.085 258.65 776.818 258.35C776.552 258.05 776.418 257.567 776.418 256.9C776.418 255.933 776.618 255.15 777.018 254.55C777.418 253.95 778.152 253.633 779.218 253.6C781.585 253.533 783.718 253.183 785.618 252.55C787.552 251.917 789.068 251.033 790.168 249.9C791.268 248.733 791.818 247.383 791.818 245.85C791.818 243.917 790.868 242.4 788.968 241.3C787.068 240.167 784.152 239.6 780.218 239.6C776.652 239.6 773.202 240.067 769.868 241C766.535 241.9 763.702 243.05 761.368 244.45C760.302 245.083 759.402 245.4 758.668 245.4C758.068 245.4 757.602 245.2 757.268 244.8C756.968 244.367 756.818 243.833 756.818 243.2C756.818 242.367 756.985 241.65 757.318 241.05C757.685 240.45 758.535 239.767 759.868 239C762.668 237.4 765.952 236.15 769.718 235.25C773.485 234.35 777.335 233.9 781.268 233.9C787.302 233.9 791.802 234.917 794.768 236.95C797.735 238.983 799.218 241.667 799.218 245ZM803.699 277.25C802.199 277.25 800.966 276.567 799.999 275.2C799.066 273.8 798.599 272.067 798.599 270C798.599 267.5 798.766 265.217 799.099 263.15C799.433 261.05 799.983 258.833 800.749 256.5C801.083 255.5 801.549 254.783 802.149 254.35C802.749 253.917 803.699 253.7 804.999 253.7C805.733 253.7 806.233 253.817 806.499 254.05C806.799 254.283 806.949 254.633 806.949 255.1C806.949 255.367 806.766 256.267 806.399 257.8C806.066 259.033 805.799 260.15 805.599 261.15C804.933 264.65 804.599 266.983 804.599 268.15C804.599 268.85 804.683 269.35 804.849 269.65C805.016 269.917 805.283 270.05 805.649 270.05C806.149 270.05 806.766 269.55 807.499 268.55C808.266 267.55 809.066 266.033 809.899 264C810.766 261.967 811.599 259.467 812.399 256.5C812.666 255.5 813.066 254.783 813.599 254.35C814.166 253.917 814.999 253.7 816.099 253.7C816.866 253.7 817.399 253.8 817.699 254C817.999 254.167 818.149 254.5 818.149 255C818.149 255.833 817.733 258.117 816.899 261.85C815.966 266.117 815.499 268.75 815.499 269.75C815.499 270.383 815.633 270.883 815.899 271.25C816.166 271.583 816.516 271.75 816.949 271.75C817.616 271.75 818.399 271.35 819.299 270.55C820.233 269.717 821.466 268.383 822.999 266.55C823.399 266.083 823.849 265.85 824.349 265.85C824.783 265.85 825.116 266.05 825.349 266.45C825.616 266.85 825.749 267.4 825.749 268.1C825.749 269.433 825.433 270.467 824.799 271.2C823.366 272.967 821.816 274.417 820.149 275.55C818.516 276.683 816.649 277.25 814.549 277.25C812.949 277.25 811.766 276.633 810.999 275.4C810.266 274.167 809.899 272.433 809.899 270.2C809.333 272.467 808.483 274.217 807.349 275.45C806.216 276.65 804.999 277.25 803.699 277.25ZM843.995 265.85C844.428 265.85 844.762 266.05 844.995 266.45C845.262 266.85 845.395 267.4 845.395 268.1C845.395 269.433 845.078 270.467 844.445 271.2C843.012 272.967 841.445 274.417 839.745 275.55C838.045 276.683 836.095 277.25 833.895 277.25C827.095 277.25 823.695 272.467 823.695 262.9C823.695 261.433 823.745 259.95 823.845 258.45H821.895C820.895 258.45 820.212 258.267 819.845 257.9C819.512 257.533 819.345 256.95 819.345 256.15C819.345 254.283 820.095 253.35 821.595 253.35H824.445C825.012 249.683 825.878 246.333 827.045 243.3C828.212 240.267 829.612 237.85 831.245 236.05C832.912 234.25 834.695 233.35 836.595 233.35C837.995 233.35 839.095 233.967 839.895 235.2C840.695 236.433 841.095 237.983 841.095 239.85C841.095 245.017 838.928 249.517 834.595 253.35H840.195C840.728 253.35 841.112 253.467 841.345 253.7C841.578 253.933 841.695 254.367 841.695 255C841.695 257.3 839.812 258.45 836.045 258.45H829.945C829.878 260.117 829.845 261.417 829.845 262.35C829.845 265.817 830.245 268.25 831.045 269.65C831.878 271.05 833.178 271.75 834.945 271.75C836.378 271.75 837.645 271.317 838.745 270.45C839.845 269.583 841.145 268.283 842.645 266.55C843.045 266.083 843.495 265.85 843.995 265.85ZM835.245 238.15C834.745 238.15 834.178 238.783 833.545 240.05C832.945 241.283 832.362 243.017 831.795 245.25C831.262 247.45 830.812 249.9 830.445 252.6C832.412 250.9 833.878 249 834.845 246.9C835.845 244.767 836.345 242.833 836.345 241.1C836.345 239.133 835.978 238.15 835.245 238.15ZM860.274 265.85C860.707 265.85 861.04 266.05 861.274 266.45C861.54 266.85 861.674 267.4 861.674 268.1C861.674 269.433 861.357 270.467 860.724 271.2C859.29 272.967 857.724 274.417 856.024 275.55C854.357 276.683 852.457 277.25 850.324 277.25C847.39 277.25 845.207 275.917 843.774 273.25C842.374 270.583 841.674 267.133 841.674 262.9C841.674 258.833 842.19 254.2 843.224 249C844.29 243.8 845.84 239.333 847.874 235.6C849.94 231.867 852.39 230 855.224 230C856.824 230 858.074 230.75 858.974 232.25C859.907 233.717 860.374 235.833 860.374 238.6C860.374 242.567 859.274 247.167 857.074 252.4C854.874 257.633 851.89 262.817 848.124 267.95C848.357 269.317 848.74 270.3 849.274 270.9C849.807 271.467 850.507 271.75 851.374 271.75C852.74 271.75 853.94 271.367 854.974 270.6C856.007 269.8 857.324 268.45 858.924 266.55C859.324 266.083 859.774 265.85 860.274 265.85ZM854.124 234.95C853.357 234.95 852.49 236.333 851.524 239.1C850.557 241.867 849.707 245.3 848.974 249.4C848.24 253.5 847.84 257.433 847.774 261.2C850.14 257.3 852.024 253.4 853.424 249.5C854.824 245.567 855.524 241.983 855.524 238.75C855.524 236.217 855.057 234.95 854.124 234.95ZM879.932 265.85C880.366 265.85 880.699 266.05 880.932 266.45C881.199 266.85 881.332 267.4 881.332 268.1C881.332 269.433 881.016 270.467 880.382 271.2C879.149 272.7 877.399 274.083 875.132 275.35C872.899 276.617 870.499 277.25 867.932 277.25C864.432 277.25 861.716 276.3 859.782 274.4C857.849 272.5 856.882 269.9 856.882 266.6C856.882 264.3 857.366 262.167 858.332 260.2C859.299 258.2 860.632 256.617 862.332 255.45C864.066 254.283 866.016 253.7 868.182 253.7C870.116 253.7 871.666 254.283 872.832 255.45C873.999 256.583 874.582 258.133 874.582 260.1C874.582 262.4 873.749 264.383 872.082 266.05C870.449 267.683 867.666 268.983 863.732 269.95C864.566 271.483 866.149 272.25 868.482 272.25C869.982 272.25 871.682 271.733 873.582 270.7C875.516 269.633 877.182 268.25 878.582 266.55C878.982 266.083 879.432 265.85 879.932 265.85ZM867.332 258.6C866.099 258.6 865.049 259.317 864.182 260.75C863.349 262.183 862.932 263.917 862.932 265.95V266.05C864.899 265.583 866.449 264.883 867.582 263.95C868.716 263.017 869.282 261.933 869.282 260.7C869.282 260.067 869.099 259.567 868.732 259.2C868.399 258.8 867.932 258.6 867.332 258.6ZM897.461 260.55C898.195 260.55 898.811 260.817 899.311 261.35C899.845 261.85 900.111 262.483 900.111 263.25C900.111 263.683 900.011 264.15 899.811 264.65C899.278 265.883 898.528 266.917 897.561 267.75C896.595 268.583 895.528 269 894.361 269C893.428 269 892.628 268.667 891.961 268C891.328 267.333 891.011 266.433 891.011 265.3C891.011 264.667 891.045 263.983 891.111 263.25C891.178 262.717 891.211 262.35 891.211 262.15C891.211 261.883 891.145 261.683 891.011 261.55C890.911 261.417 890.778 261.35 890.611 261.35C890.145 261.35 889.511 261.917 888.711 263.05C887.911 264.15 887.111 265.617 886.311 267.45C885.511 269.283 884.861 271.217 884.361 273.25C883.995 274.85 883.578 275.917 883.111 276.45C882.645 276.983 881.878 277.25 880.811 277.25C879.545 277.25 878.645 276.583 878.111 275.25C877.611 273.917 877.361 271.783 877.361 268.85C877.361 264.517 877.978 260.4 879.211 256.5C879.511 255.533 879.995 254.833 880.661 254.4C881.361 253.933 882.328 253.7 883.561 253.7C884.228 253.7 884.695 253.783 884.961 253.95C885.228 254.117 885.361 254.433 885.361 254.9C885.361 255.433 885.111 256.633 884.611 258.5C884.278 259.833 884.011 261 883.811 262C883.611 263 883.445 264.233 883.311 265.7C884.411 262.833 885.645 260.5 887.011 258.7C888.378 256.9 889.711 255.617 891.011 254.85C892.311 254.083 893.495 253.7 894.561 253.7C895.528 253.7 896.261 253.983 896.761 254.55C897.295 255.083 897.561 255.883 897.561 256.95C897.561 257.583 897.378 258.783 897.011 260.55H897.461Z" fill="white"/>
<path d="M257.335 261.422C257.335 267.652 256.109 273.821 253.725 279.577C251.341 285.333 247.847 290.563 243.443 294.968C239.038 299.373 233.81 302.868 228.055 305.252C222.3 307.636 216.132 308.864 209.904 308.864C203.675 308.864 197.507 307.636 191.752 305.252C185.997 302.868 180.769 299.373 176.364 294.968C171.96 290.563 168.466 285.333 166.082 279.577C163.699 273.821 162.472 267.652 162.472 261.421L257.335 261.422Z" fill="url(#paint0_linear_111_326)"/>
<path d="M137.981 267.473C137.981 261.503 140.353 255.777 144.573 251.555C148.794 247.334 154.518 244.962 160.487 244.962C166.456 244.962 172.181 247.334 176.401 251.555C180.622 255.777 182.993 261.503 182.993 267.473L173.991 267.473C173.991 263.891 172.568 260.455 170.036 257.922C167.503 255.389 164.069 253.966 160.487 253.966C156.906 253.966 153.471 255.389 150.939 257.922C148.406 260.455 146.984 263.891 146.984 267.473H137.981Z" fill="url(#paint1_linear_111_326)"/>
<path d="M146.984 293.13C146.984 299.1 144.613 304.826 140.392 309.048C136.171 313.269 130.447 315.641 124.478 315.641C118.509 315.641 112.784 313.269 108.564 309.048C104.343 304.826 101.972 299.101 101.972 293.13H110.974C110.974 296.712 112.397 300.148 114.929 302.681C117.462 305.214 120.897 306.637 124.478 306.637C128.059 306.637 131.494 305.214 134.026 302.681C136.559 300.148 137.981 296.712 137.981 293.13H146.984Z" fill="url(#paint2_linear_111_326)"/>
<path d="M101.972 293.13H110.974V265.052H101.972V293.13Z" fill="url(#paint3_linear_111_326)"/>
<path d="M146.984 267.473H137.981V293.13H146.984V267.473Z" fill="url(#paint4_linear_111_326)"/>
<path d="M169.73 252.772L177.889 256.577L214.138 178.826L205.979 175.021L169.73 252.772Z" fill="url(#paint5_linear_111_326)"/>
<path d="M250.235 252.77L242.076 256.576L205.855 178.883L214.014 175.077L250.235 252.77Z" fill="url(#paint6_linear_111_326)"/>
<path d="M205.544 315.641C205.546 323.629 214.74 324.597 214.74 315.641V132.65H205.544V315.641Z" fill="url(#paint7_linear_111_326)"/>
<path d="M126.656 277.397C126.656 282.147 124.514 286.703 120.702 290.062C116.89 293.422 111.719 295.309 106.328 295.309C100.937 295.309 95.7662 293.422 91.9539 290.062C88.1417 286.703 86 282.147 86 277.397L126.656 277.397Z" fill="url(#paint8_linear_111_326)"/>
<path d="M230.232 122C230.232 126.751 228.09 131.306 224.278 134.666C220.465 138.025 215.295 139.912 209.904 139.912C204.512 139.912 199.342 138.025 195.53 134.666C191.717 131.306 189.576 126.751 189.576 122L230.232 122Z" fill="url(#paint9_linear_111_326)"/>
<path d="M282.019 267.473C282.019 261.503 279.647 255.777 275.427 251.555C271.206 247.334 265.482 244.962 259.513 244.962C253.544 244.962 247.819 247.334 243.599 251.555C239.378 255.777 237.007 261.503 237.007 267.473L246.009 267.473C246.009 263.891 247.432 260.455 249.964 257.922C252.497 255.389 255.931 253.966 259.513 253.966C263.094 253.966 266.529 255.389 269.061 257.922C271.594 260.455 273.016 263.891 273.016 267.473H282.019Z" fill="url(#paint10_linear_111_326)"/>
<path d="M273.016 293.13C273.016 299.1 275.387 304.826 279.608 309.048C283.829 313.269 289.553 315.641 295.522 315.641C301.491 315.641 307.216 313.269 311.436 309.048C315.657 304.826 318.028 299.101 318.028 293.13H309.026C309.026 296.712 307.603 300.148 305.071 302.681C302.538 305.214 299.103 306.637 295.522 306.637C291.941 306.637 288.506 305.214 285.974 302.681C283.441 300.148 282.019 296.712 282.019 293.13H273.016Z" fill="url(#paint11_linear_111_326)"/>
<path d="M318.028 293.13H309.026V265.052H318.028V293.13Z" fill="url(#paint12_linear_111_326)"/>
<path d="M273.016 267.473H282.019V293.13H273.016V267.473Z" fill="url(#paint13_linear_111_326)"/>
<path d="M293.344 277.397C293.344 282.147 295.486 286.703 299.298 290.062C303.11 293.422 308.281 295.309 313.672 295.309C319.063 295.309 324.234 293.422 328.046 290.062C331.858 286.703 334 282.147 334 277.397L293.344 277.397Z" fill="url(#paint14_linear_111_326)"/>
<path d="M113.104 253.192C113.104 257.737 109.42 261.422 104.876 261.422C100.332 261.422 96.648 257.737 96.648 253.192C96.648 248.647 100.332 237.458 104.876 237.458C109.42 237.458 113.104 248.647 113.104 253.192Z" fill="url(#paint15_linear_111_326)"/>
<path d="M321.707 253.434C321.707 257.979 318.023 261.664 313.479 261.664C308.935 261.664 305.251 257.979 305.251 253.434C305.251 248.889 308.935 237.7 313.479 237.7C318.023 237.7 321.707 248.889 321.707 253.434Z" fill="url(#paint16_linear_111_326)"/>
<path d="M1277.34 261.422C1277.34 267.652 1276.11 273.821 1273.72 279.577C1271.34 285.333 1267.85 290.563 1263.44 294.968C1259.04 299.373 1253.81 302.868 1248.05 305.252C1242.3 307.636 1236.13 308.864 1229.9 308.864C1223.67 308.864 1217.51 307.636 1211.75 305.252C1206 302.868 1200.77 299.373 1196.36 294.968C1191.96 290.563 1188.47 285.333 1186.08 279.577C1183.7 273.821 1182.47 267.652 1182.47 261.421L1277.34 261.422Z" fill="url(#paint17_linear_111_326)"/>
<path d="M1157.98 267.473C1157.98 261.503 1160.35 255.777 1164.57 251.555C1168.79 247.334 1174.52 244.962 1180.49 244.962C1186.46 244.962 1192.18 247.334 1196.4 251.555C1200.62 255.777 1202.99 261.503 1202.99 267.473L1193.99 267.473C1193.99 263.891 1192.57 260.455 1190.04 257.922C1187.5 255.389 1184.07 253.966 1180.49 253.966C1176.91 253.966 1173.47 255.389 1170.94 257.922C1168.41 260.455 1166.98 263.891 1166.98 267.473H1157.98Z" fill="url(#paint18_linear_111_326)"/>
<path d="M1166.98 293.13C1166.98 299.1 1164.61 304.826 1160.39 309.048C1156.17 313.269 1150.45 315.641 1144.48 315.641C1138.51 315.641 1132.78 313.269 1128.56 309.048C1124.34 304.826 1121.97 299.101 1121.97 293.13H1130.97C1130.97 296.712 1132.4 300.148 1134.93 302.681C1137.46 305.214 1140.9 306.637 1144.48 306.637C1148.06 306.637 1151.49 305.214 1154.03 302.681C1156.56 300.148 1157.98 296.712 1157.98 293.13H1166.98Z" fill="url(#paint19_linear_111_326)"/>
<path d="M1121.97 293.13H1130.97V265.052H1121.97V293.13Z" fill="url(#paint20_linear_111_326)"/>
<path d="M1166.98 267.473H1157.98V293.13H1166.98V267.473Z" fill="url(#paint21_linear_111_326)"/>
<path d="M1189.73 252.772L1197.89 256.577L1234.14 178.826L1225.98 175.021L1189.73 252.772Z" fill="url(#paint22_linear_111_326)"/>
<path d="M1270.23 252.77L1262.08 256.576L1225.85 178.883L1234.01 175.077L1270.23 252.77Z" fill="url(#paint23_linear_111_326)"/>
<path d="M1225.54 315.641C1225.55 323.629 1234.74 324.597 1234.74 315.641V132.65H1225.54V315.641Z" fill="url(#paint24_linear_111_326)"/>
<path d="M1146.66 277.397C1146.66 282.147 1144.51 286.703 1140.7 290.062C1136.89 293.422 1131.72 295.309 1126.33 295.309C1120.94 295.309 1115.77 293.422 1111.95 290.062C1108.14 286.703 1106 282.147 1106 277.397L1146.66 277.397Z" fill="url(#paint25_linear_111_326)"/>
<path d="M1250.23 122C1250.23 126.751 1248.09 131.306 1244.28 134.666C1240.47 138.025 1235.29 139.912 1229.9 139.912C1224.51 139.912 1219.34 138.025 1215.53 134.666C1211.72 131.306 1209.58 126.751 1209.58 122L1250.23 122Z" fill="url(#paint26_linear_111_326)"/>
<path d="M1302.02 267.473C1302.02 261.503 1299.65 255.777 1295.43 251.555C1291.21 247.334 1285.48 244.962 1279.51 244.962C1273.54 244.962 1267.82 247.334 1263.6 251.555C1259.38 255.777 1257.01 261.503 1257.01 267.473L1266.01 267.473C1266.01 263.891 1267.43 260.455 1269.96 257.922C1272.5 255.389 1275.93 253.966 1279.51 253.966C1283.09 253.966 1286.53 255.389 1289.06 257.922C1291.59 260.455 1293.02 263.891 1293.02 267.473H1302.02Z" fill="url(#paint27_linear_111_326)"/>
<path d="M1293.02 293.13C1293.02 299.1 1295.39 304.826 1299.61 309.048C1303.83 313.269 1309.55 315.641 1315.52 315.641C1321.49 315.641 1327.22 313.269 1331.44 309.048C1335.66 304.826 1338.03 299.101 1338.03 293.13H1329.03C1329.03 296.712 1327.6 300.148 1325.07 302.681C1322.54 305.214 1319.1 306.637 1315.52 306.637C1311.94 306.637 1308.51 305.214 1305.97 302.681C1303.44 300.148 1302.02 296.712 1302.02 293.13H1293.02Z" fill="url(#paint28_linear_111_326)"/>
<path d="M1338.03 293.13H1329.03V265.052H1338.03V293.13Z" fill="url(#paint29_linear_111_326)"/>
<path d="M1293.02 267.473H1302.02V293.13H1293.02V267.473Z" fill="url(#paint30_linear_111_326)"/>
<path d="M1313.34 277.397C1313.34 282.147 1315.49 286.703 1319.3 290.062C1323.11 293.422 1328.28 295.309 1333.67 295.309C1339.06 295.309 1344.23 293.422 1348.05 290.062C1351.86 286.703 1354 282.147 1354 277.397L1313.34 277.397Z" fill="url(#paint31_linear_111_326)"/>
<path d="M1133.1 253.192C1133.1 257.737 1129.42 261.422 1124.88 261.422C1120.33 261.422 1116.65 257.737 1116.65 253.192C1116.65 248.647 1120.33 237.458 1124.88 237.458C1129.42 237.458 1133.1 248.647 1133.1 253.192Z" fill="url(#paint32_linear_111_326)"/>
<path d="M1341.71 253.434C1341.71 257.979 1338.02 261.664 1333.48 261.664C1328.94 261.664 1325.25 257.979 1325.25 253.434C1325.25 248.889 1328.94 237.7 1333.48 237.7C1338.02 237.7 1341.71 248.889 1341.71 253.434Z" fill="url(#paint33_linear_111_326)"/>
<defs>
<linearGradient id="paint0_linear_111_326" x1="210" y1="122" x2="210" y2="322" gradientUnits="userSpaceOnUse">
<stop stop-color="#9F5324"/>
<stop offset="0.11" stop-color="#D2992A"/>
<stop offset="0.475" stop-color="#F8D261"/>
<stop offset="0.735" stop-color="#F8D261"/>
<stop offset="0.93" stop-color="#DEB04B"/>
</linearGradient>
<linearGradient id="paint1_linear_111_326" x1="210" y1="122" x2="210" y2="322" gradientUnits="userSpaceOnUse">
<stop stop-color="#9F5324"/>
<stop offset="0.11" stop-color="#D2992A"/>
<stop offset="0.475" stop-color="#F8D261"/>
<stop offset="0.735" stop-color="#F8D261"/>
<stop offset="0.93" stop-color="#DEB04B"/>
</linearGradient>
<linearGradient id="paint2_linear_111_326" x1="210" y1="122" x2="210" y2="322" gradientUnits="userSpaceOnUse">
<stop stop-color="#9F5324"/>
<stop offset="0.11" stop-color="#D2992A"/>
<stop offset="0.475" stop-color="#F8D261"/>
<stop offset="0.735" stop-color="#F8D261"/>
<stop offset="0.93" stop-color="#DEB04B"/>
</linearGradient>
<linearGradient id="paint3_linear_111_326" x1="210" y1="122" x2="210" y2="322" gradientUnits="userSpaceOnUse">
<stop stop-color="#9F5324"/>
<stop offset="0.11" stop-color="#D2992A"/>
<stop offset="0.475" stop-color="#F8D261"/>
<stop offset="0.735" stop-color="#F8D261"/>
<stop offset="0.93" stop-color="#DEB04B"/>
</linearGradient>
<linearGradient id="paint4_linear_111_326" x1="210" y1="122" x2="210" y2="322" gradientUnits="userSpaceOnUse">
<stop stop-color="#9F5324"/>
<stop offset="0.11" stop-color="#D2992A"/>
<stop offset="0.475" stop-color="#F8D261"/>
<stop offset="0.735" stop-color="#F8D261"/>
<stop offset="0.93" stop-color="#DEB04B"/>
</linearGradient>
<linearGradient id="paint5_linear_111_326" x1="210" y1="122" x2="210" y2="322" gradientUnits="userSpaceOnUse">
<stop stop-color="#9F5324"/>
<stop offset="0.11" stop-color="#D2992A"/>
<stop offset="0.475" stop-color="#F8D261"/>
<stop offset="0.735" stop-color="#F8D261"/>
<stop offset="0.93" stop-color="#DEB04B"/>
</linearGradient>
<linearGradient id="paint6_linear_111_326" x1="210" y1="122" x2="210" y2="322" gradientUnits="userSpaceOnUse">
<stop stop-color="#9F5324"/>
<stop offset="0.11" stop-color="#D2992A"/>
<stop offset="0.475" stop-color="#F8D261"/>
<stop offset="0.735" stop-color="#F8D261"/>
<stop offset="0.93" stop-color="#DEB04B"/>
</linearGradient>
<linearGradient id="paint7_linear_111_326" x1="210" y1="122" x2="210" y2="322" gradientUnits="userSpaceOnUse">
<stop stop-color="#9F5324"/>
<stop offset="0.11" stop-color="#D2992A"/>
<stop offset="0.475" stop-color="#F8D261"/>
<stop offset="0.735" stop-color="#F8D261"/>
<stop offset="0.93" stop-color="#DEB04B"/>
</linearGradient>
<linearGradient id="paint8_linear_111_326" x1="210" y1="122" x2="210" y2="322" gradientUnits="userSpaceOnUse">
<stop stop-color="#9F5324"/>
<stop offset="0.11" stop-color="#D2992A"/>
<stop offset="0.475" stop-color="#F8D261"/>
<stop offset="0.735" stop-color="#F8D261"/>
<stop offset="0.93" stop-color="#DEB04B"/>
</linearGradient>
<linearGradient id="paint9_linear_111_326" x1="210" y1="122" x2="210" y2="322" gradientUnits="userSpaceOnUse">
<stop stop-color="#9F5324"/>
<stop offset="0.11" stop-color="#D2992A"/>
<stop offset="0.475" stop-color="#F8D261"/>
<stop offset="0.735" stop-color="#F8D261"/>
<stop offset="0.93" stop-color="#DEB04B"/>
</linearGradient>
<linearGradient id="paint10_linear_111_326" x1="210" y1="122" x2="210" y2="322" gradientUnits="userSpaceOnUse">
<stop stop-color="#9F5324"/>
<stop offset="0.11" stop-color="#D2992A"/>
<stop offset="0.475" stop-color="#F8D261"/>
<stop offset="0.735" stop-color="#F8D261"/>
<stop offset="0.93" stop-color="#DEB04B"/>
</linearGradient>
<linearGradient id="paint11_linear_111_326" x1="210" y1="122" x2="210" y2="322" gradientUnits="userSpaceOnUse">
<stop stop-color="#9F5324"/>
<stop offset="0.11" stop-color="#D2992A"/>
<stop offset="0.475" stop-color="#F8D261"/>
<stop offset="0.735" stop-color="#F8D261"/>
<stop offset="0.93" stop-color="#DEB04B"/>
</linearGradient>
<linearGradient id="paint12_linear_111_326" x1="210" y1="122" x2="210" y2="322" gradientUnits="userSpaceOnUse">
<stop stop-color="#9F5324"/>
<stop offset="0.11" stop-color="#D2992A"/>
<stop offset="0.475" stop-color="#F8D261"/>
<stop offset="0.735" stop-color="#F8D261"/>
<stop offset="0.93" stop-color="#DEB04B"/>
</linearGradient>
<linearGradient id="paint13_linear_111_326" x1="210" y1="122" x2="210" y2="322" gradientUnits="userSpaceOnUse">
<stop stop-color="#9F5324"/>
<stop offset="0.11" stop-color="#D2992A"/>
<stop offset="0.475" stop-color="#F8D261"/>
<stop offset="0.735" stop-color="#F8D261"/>
<stop offset="0.93" stop-color="#DEB04B"/>
</linearGradient>
<linearGradient id="paint14_linear_111_326" x1="210" y1="122" x2="210" y2="322" gradientUnits="userSpaceOnUse">
<stop stop-color="#9F5324"/>
<stop offset="0.11" stop-color="#D2992A"/>
<stop offset="0.475" stop-color="#F8D261"/>
<stop offset="0.735" stop-color="#F8D261"/>
<stop offset="0.93" stop-color="#DEB04B"/>
</linearGradient>
<linearGradient id="paint15_linear_111_326" x1="210" y1="122" x2="210" y2="322" gradientUnits="userSpaceOnUse">
<stop stop-color="#9F5324"/>
<stop offset="0.11" stop-color="#D2992A"/>
<stop offset="0.475" stop-color="#F8D261"/>
<stop offset="0.735" stop-color="#F8D261"/>
<stop offset="0.93" stop-color="#DEB04B"/>
</linearGradient>
<linearGradient id="paint16_linear_111_326" x1="210" y1="122" x2="210" y2="322" gradientUnits="userSpaceOnUse">
<stop stop-color="#9F5324"/>
<stop offset="0.11" stop-color="#D2992A"/>
<stop offset="0.475" stop-color="#F8D261"/>
<stop offset="0.735" stop-color="#F8D261"/>
<stop offset="0.93" stop-color="#DEB04B"/>
</linearGradient>
<linearGradient id="paint17_linear_111_326" x1="1230" y1="122" x2="1230" y2="322" gradientUnits="userSpaceOnUse">
<stop stop-color="#9F5324"/>
<stop offset="0.11" stop-color="#D2992A"/>
<stop offset="0.475" stop-color="#F8D261"/>
<stop offset="0.735" stop-color="#F8D261"/>
<stop offset="0.93" stop-color="#DEB04B"/>
</linearGradient>
<linearGradient id="paint18_linear_111_326" x1="1230" y1="122" x2="1230" y2="322" gradientUnits="userSpaceOnUse">
<stop stop-color="#9F5324"/>
<stop offset="0.11" stop-color="#D2992A"/>
<stop offset="0.475" stop-color="#F8D261"/>
<stop offset="0.735" stop-color="#F8D261"/>
<stop offset="0.93" stop-color="#DEB04B"/>
</linearGradient>
<linearGradient id="paint19_linear_111_326" x1="1230" y1="122" x2="1230" y2="322" gradientUnits="userSpaceOnUse">
<stop stop-color="#9F5324"/>
<stop offset="0.11" stop-color="#D2992A"/>
<stop offset="0.475" stop-color="#F8D261"/>
<stop offset="0.735" stop-color="#F8D261"/>
<stop offset="0.93" stop-color="#DEB04B"/>
</linearGradient>
<linearGradient id="paint20_linear_111_326" x1="1230" y1="122" x2="1230" y2="322" gradientUnits="userSpaceOnUse">
<stop stop-color="#9F5324"/>
<stop offset="0.11" stop-color="#D2992A"/>
<stop offset="0.475" stop-color="#F8D261"/>
<stop offset="0.735" stop-color="#F8D261"/>
<stop offset="0.93" stop-color="#DEB04B"/>
</linearGradient>
<linearGradient id="paint21_linear_111_326" x1="1230" y1="122" x2="1230" y2="322" gradientUnits="userSpaceOnUse">
<stop stop-color="#9F5324"/>
<stop offset="0.11" stop-color="#D2992A"/>
<stop offset="0.475" stop-color="#F8D261"/>
<stop offset="0.735" stop-color="#F8D261"/>
<stop offset="0.93" stop-color="#DEB04B"/>
</linearGradient>
<linearGradient id="paint22_linear_111_326" x1="1230" y1="122" x2="1230" y2="322" gradientUnits="userSpaceOnUse">
<stop stop-color="#9F5324"/>
<stop offset="0.11" stop-color="#D2992A"/>
<stop offset="0.475" stop-color="#F8D261"/>
<stop offset="0.735" stop-color="#F8D261"/>
<stop offset="0.93" stop-color="#DEB04B"/>
</linearGradient>
<linearGradient id="paint23_linear_111_326" x1="1230" y1="122" x2="1230" y2="322" gradientUnits="userSpaceOnUse">
<stop stop-color="#9F5324"/>
<stop offset="0.11" stop-color="#D2992A"/>
<stop offset="0.475" stop-color="#F8D261"/>
<stop offset="0.735" stop-color="#F8D261"/>
<stop offset="0.93" stop-color="#DEB04B"/>
</linearGradient>
<linearGradient id="paint24_linear_111_326" x1="1230" y1="122" x2="1230" y2="322" gradientUnits="userSpaceOnUse">
<stop stop-color="#9F5324"/>
<stop offset="0.11" stop-color="#D2992A"/>
<stop offset="0.475" stop-color="#F8D261"/>
<stop offset="0.735" stop-color="#F8D261"/>
<stop offset="0.93" stop-color="#DEB04B"/>
</linearGradient>
<linearGradient id="paint25_linear_111_326" x1="1230" y1="122" x2="1230" y2="322" gradientUnits="userSpaceOnUse">
<stop stop-color="#9F5324"/>
<stop offset="0.11" stop-color="#D2992A"/>
<stop offset="0.475" stop-color="#F8D261"/>
<stop offset="0.735" stop-color="#F8D261"/>
<stop offset="0.93" stop-color="#DEB04B"/>
</linearGradient>
<linearGradient id="paint26_linear_111_326" x1="1230" y1="122" x2="1230" y2="322" gradientUnits="userSpaceOnUse">
<stop stop-color="#9F5324"/>
<stop offset="0.11" stop-color="#D2992A"/>
<stop offset="0.475" stop-color="#F8D261"/>
<stop offset="0.735" stop-color="#F8D261"/>
<stop offset="0.93" stop-color="#DEB04B"/>
</linearGradient>
<linearGradient id="paint27_linear_111_326" x1="1230" y1="122" x2="1230" y2="322" gradientUnits="userSpaceOnUse">
<stop stop-color="#9F5324"/>
<stop offset="0.11" stop-color="#D2992A"/>
<stop offset="0.475" stop-color="#F8D261"/>
<stop offset="0.735" stop-color="#F8D261"/>
<stop offset="0.93" stop-color="#DEB04B"/>
</linearGradient>
<linearGradient id="paint28_linear_111_326" x1="1230" y1="122" x2="1230" y2="322" gradientUnits="userSpaceOnUse">
<stop stop-color="#9F5324"/>
<stop offset="0.11" stop-color="#D2992A"/>
<stop offset="0.475" stop-color="#F8D261"/>
<stop offset="0.735" stop-color="#F8D261"/>
<stop offset="0.93" stop-color="#DEB04B"/>
</linearGradient>
<linearGradient id="paint29_linear_111_326" x1="1230" y1="122" x2="1230" y2="322" gradientUnits="userSpaceOnUse">
<stop stop-color="#9F5324"/>
<stop offset="0.11" stop-color="#D2992A"/>
<stop offset="0.475" stop-color="#F8D261"/>
<stop offset="0.735" stop-color="#F8D261"/>
<stop offset="0.93" stop-color="#DEB04B"/>
</linearGradient>
<linearGradient id="paint30_linear_111_326" x1="1230" y1="122" x2="1230" y2="322" gradientUnits="userSpaceOnUse">
<stop stop-color="#9F5324"/>
<stop offset="0.11" stop-color="#D2992A"/>
<stop offset="0.475" stop-color="#F8D261"/>
<stop offset="0.735" stop-color="#F8D261"/>
<stop offset="0.93" stop-color="#DEB04B"/>
</linearGradient>
<linearGradient id="paint31_linear_111_326" x1="1230" y1="122" x2="1230" y2="322" gradientUnits="userSpaceOnUse">
<stop stop-color="#9F5324"/>
<stop offset="0.11" stop-color="#D2992A"/>
<stop offset="0.475" stop-color="#F8D261"/>
<stop offset="0.735" stop-color="#F8D261"/>
<stop offset="0.93" stop-color="#DEB04B"/>
</linearGradient>
<linearGradient id="paint32_linear_111_326" x1="1230" y1="122" x2="1230" y2="322" gradientUnits="userSpaceOnUse">
<stop stop-color="#9F5324"/>
<stop offset="0.11" stop-color="#D2992A"/>
<stop offset="0.475" stop-color="#F8D261"/>
<stop offset="0.735" stop-color="#F8D261"/>
<stop offset="0.93" stop-color="#DEB04B"/>
</linearGradient>
<linearGradient id="paint33_linear_111_326" x1="1230" y1="122" x2="1230" y2="322" gradientUnits="userSpaceOnUse">
<stop stop-color="#9F5324"/>
<stop offset="0.11" stop-color="#D2992A"/>
<stop offset="0.475" stop-color="#F8D261"/>
<stop offset="0.735" stop-color="#F8D261"/>
<stop offset="0.93" stop-color="#DEB04B"/>
</linearGradient>
</defs>
</svg>
