<svg width="91" height="91" viewBox="0 0 91 91" fill="none" xmlns="http://www.w3.org/2000/svg">
<circle cx="45.3867" cy="45.3867" r="43.8867" fill="#81CEE7" stroke="black" stroke-width="3"/>
<circle cx="45.1653" cy="49.3142" r="25.135" fill="#FFDFB9"/>
<path d="M45.4235 32.5452C51.755 31.1223 50.0664 46.3958 65.3048 52.1819C63.9776 63.926 65.2924 77.6511 67.4868 79.4209C66.8704 68.7894 71.7528 51.8779 71.7529 47.2602C71.7532 34.3192 60.0449 22.3838 47.8296 22.3838C35.6142 22.3838 33.4998 35.2248 45.4235 32.5452Z" fill="#241503"/>
<path d="M40.9176 28.3579C51.5397 28.3579 50.9174 19.9396 56.3114 21.2487C62.6068 22.7767 64.7766 18.91 63.6165 13.6037C53.4551 17.5136 52.3595 9.39312 46.343 8.77819C38.0952 7.93519 33.831 13.9868 34.1193 21.8288C34.4077 29.6707 38.5665 28.3579 40.9176 28.3579Z" fill="#241503"/>
<circle cx="35.518" cy="56.642" r="7.88423" fill="white"/>
<ellipse cx="38.5471" cy="56.9363" rx="3.78099" ry="3.80247" fill="#241503"/>
<circle cx="40.7612" cy="54.7006" r="0.537073" fill="white"/>
<circle cx="54.81" cy="56.1166" r="7.88423" fill="white"/>
<circle cx="51.8664" cy="56.6579" r="3.80247" fill="#241503"/>
<circle cx="53.9726" cy="54.7241" r="0.537073" fill="white"/>
<ellipse cx="63.9606" cy="62.7347" rx="5.13442" ry="1.95494" fill="#FFAFBC"/>
<path d="M44.7775 36.6763C38.3461 37.6832 44.2404 51.521 22.6286 54.013C21.5155 63.7793 28.9908 66.2325 19.214 79.1695C21.8885 69.6822 18.461 52.9593 18.4609 48.3415C18.4607 35.4003 29.0428 22.7983 41.2973 22.7983C53.5517 22.7983 55.043 35.0692 44.7775 36.6763Z" fill="#241503"/>
<ellipse cx="27.6539" cy="62.7347" rx="5.13442" ry="1.95494" fill="#FFAFBC"/>
<path d="M50.5124 62.4795C50.5124 64.3939 49.9443 66.2299 48.9331 67.5836C47.9219 68.9373 46.5503 69.6977 45.1202 69.6977C43.6901 69.6977 42.3186 68.9373 41.3074 67.5836C40.2961 66.2299 39.728 64.3939 39.728 62.4795L45.1202 62.4795H50.5124Z" fill="#EB576D"/>
<mask id="mask0_129_12" style="mask-type:alpha" maskUnits="userSpaceOnUse" x="39" y="62" width="12" height="8">
<path d="M50.5188 62.4824C50.5188 64.3968 49.9507 66.2328 48.9395 67.5865C47.9282 68.9402 46.5567 69.7007 45.1266 69.7007C43.6965 69.7007 42.325 68.9402 41.3137 67.5865C40.3025 66.2328 39.7344 64.3968 39.7344 62.4824L45.1266 62.4824H50.5188Z" fill="#EB576D"/>
</mask>
<g mask="url(#mask0_129_12)">
<ellipse cx="45.3405" cy="68.3055" rx="5.13442" ry="1.95494" fill="#AA0000"/>
</g>
<path d="M64.5387 48.2456C64.5387 48.2456 60.0148 44.6198 56.5599 44.4198C53.6198 44.2495 49.0083 46.6169 49.0083 46.6169C49.0083 46.6169 53.3834 45.8615 56.2898 46.1106C59.5569 46.3905 64.5387 48.2456 64.5387 48.2456Z" fill="#493824"/>
<path d="M26.6187 48.6961C26.6187 48.6961 31.0215 44.9241 34.468 44.6111C37.401 44.3447 42.0875 46.5597 42.0875 46.5597C42.0875 46.5597 37.69 45.9481 34.7933 46.2921C31.5372 46.6789 26.6187 48.6961 26.6187 48.6961Z" fill="#493824"/>
<path d="M36.1614 20.26C36.6227 19.2056 36.1419 17.9769 35.0876 17.5156C34.0332 17.0543 32.8045 17.535 32.3432 18.5894C31.2888 18.1281 30.0601 18.6088 29.5987 19.6632C29.1374 20.7175 29.6182 21.9463 30.6725 22.4076L34.449 23.9715L36.1614 20.26Z" fill="#25AB00"/>
<path d="M32.6932 28.2776C32.2319 29.332 31.0032 29.8127 29.9488 29.3514C28.8945 28.8901 28.4137 27.6614 28.875 26.607C27.8207 26.1457 27.3399 24.917 27.8012 23.8626C28.2626 22.8082 29.4913 22.3275 30.5457 22.7888L34.2571 24.5012L32.6932 28.2776Z" fill="#25AB00"/>
<path d="M33.1075 28.438C32.6461 29.4924 33.1269 30.7211 34.1813 31.1824C35.2356 31.6438 36.4643 31.163 36.9257 30.1087C37.98 30.57 39.2088 30.0892 39.6701 29.0349C40.1314 27.9805 39.6507 26.7518 38.5963 26.2905L34.8198 24.7266L33.1075 28.438Z" fill="#25AB00"/>
<path d="M36.5756 20.4204C37.0369 19.3661 38.2656 18.8853 39.32 19.3466C40.3743 19.808 40.8551 21.0367 40.3938 22.091C41.4481 22.5524 41.9289 23.7811 41.4676 24.8355C41.0062 25.8898 39.7775 26.3706 38.7232 25.9092L35.0117 24.1969L36.5756 20.4204Z" fill="#25AB00"/>
<path d="M27.6819 19.9152C28.108 19.7768 28.3413 19.3193 28.2029 18.8931C28.0646 18.467 27.607 18.2337 27.1809 18.372C27.0425 17.9459 26.5849 17.7126 26.1588 17.851C25.7327 17.9893 25.4994 18.4469 25.6377 18.873L26.159 20.3764L27.6819 19.9152Z" fill="#25AB00"/>
<path d="M24.4519 20.9788C24.0258 21.1171 23.5682 20.8838 23.4298 20.4577C23.2915 20.0316 23.5248 19.574 23.9509 19.4356C23.8125 19.0095 24.0458 18.5519 24.4719 18.4136C24.898 18.2752 25.3556 18.5085 25.494 18.9347L25.9553 20.4575L24.4519 20.9788Z" fill="#25AB00"/>
<path d="M24.5123 21.1408C24.0862 21.2791 23.8529 21.7367 23.9913 22.1629C24.1297 22.589 24.5873 22.8223 25.0134 22.6839C25.1517 23.1101 25.6093 23.3434 26.0354 23.205C26.4616 23.0667 26.6948 22.6091 26.5565 22.183L26.0352 20.6796L24.5123 21.1408Z" fill="#25AB00"/>
<path d="M27.7423 20.0772C28.1684 19.9389 28.626 20.1722 28.7644 20.5983C28.9027 21.0244 28.6695 21.482 28.2433 21.6203C28.3817 22.0465 28.1484 22.5041 27.7223 22.6424C27.2962 22.7807 26.8386 22.5475 26.7002 22.1213L26.2389 20.5985L27.7423 20.0772Z" fill="#25AB00"/>
</svg>
