<svg width="1440" height="160" viewBox="0 0 1440 160" fill="none" xmlns="http://www.w3.org/2000/svg">
<rect width="1440" height="130" fill="#FFDA92"/>
<path d="M30 130C30 133.94 29.224 137.841 27.7164 141.481C26.2087 145.12 23.999 148.427 21.2132 151.213C18.4274 153.999 15.1203 156.209 11.4805 157.716C7.84073 159.224 3.93966 160 -1.90735e-06 160L0 130H30Z" fill="#FFDA92"/>
<path d="M90 130C90 133.94 89.224 137.841 87.7164 141.481C86.2087 145.12 83.999 148.427 81.2132 151.213C78.4274 153.999 75.1203 156.209 71.4805 157.716C67.8407 159.224 63.9397 160 60 160C56.0603 160 52.1593 159.224 48.5195 157.716C44.8797 156.209 41.5726 153.999 38.7868 151.213C36.001 148.427 33.7913 145.12 32.2836 141.48C30.776 137.841 30 133.94 30 130L60 130H90Z" fill="#FFDA92"/>
<path d="M150 130C150 133.94 149.224 137.841 147.716 141.481C146.209 145.12 143.999 148.427 141.213 151.213C138.427 153.999 135.12 156.209 131.481 157.716C127.841 159.224 123.94 160 120 160C116.06 160 112.159 159.224 108.519 157.716C104.88 156.209 101.573 153.999 98.7868 151.213C96.001 148.427 93.7913 145.12 92.2836 141.48C90.776 137.841 90 133.94 90 130L120 130H150Z" fill="#FFDA92"/>
<path d="M210 130C210 133.94 209.224 137.841 207.716 141.481C206.209 145.12 203.999 148.427 201.213 151.213C198.427 153.999 195.12 156.209 191.481 157.716C187.841 159.224 183.94 160 180 160C176.06 160 172.159 159.224 168.519 157.716C164.88 156.209 161.573 153.999 158.787 151.213C156.001 148.427 153.791 145.12 152.284 141.48C150.776 137.841 150 133.94 150 130L180 130H210Z" fill="#FFDA92"/>
<path d="M270 130C270 133.94 269.224 137.841 267.716 141.481C266.209 145.12 263.999 148.427 261.213 151.213C258.427 153.999 255.12 156.209 251.481 157.716C247.841 159.224 243.94 160 240 160C236.06 160 232.159 159.224 228.519 157.716C224.88 156.209 221.573 153.999 218.787 151.213C216.001 148.427 213.791 145.12 212.284 141.48C210.776 137.841 210 133.94 210 130L240 130H270Z" fill="#FFDA92"/>
<path d="M330 130C330 133.94 329.224 137.841 327.716 141.481C326.209 145.12 323.999 148.427 321.213 151.213C318.427 153.999 315.12 156.209 311.481 157.716C307.841 159.224 303.94 160 300 160C296.06 160 292.159 159.224 288.519 157.716C284.88 156.209 281.573 153.999 278.787 151.213C276.001 148.427 273.791 145.12 272.284 141.48C270.776 137.841 270 133.94 270 130L300 130H330Z" fill="#FFDA92"/>
<path d="M390 130C390 133.94 389.224 137.841 387.716 141.481C386.209 145.12 383.999 148.427 381.213 151.213C378.427 153.999 375.12 156.209 371.481 157.716C367.841 159.224 363.94 160 360 160C356.06 160 352.159 159.224 348.519 157.716C344.88 156.209 341.573 153.999 338.787 151.213C336.001 148.427 333.791 145.12 332.284 141.48C330.776 137.841 330 133.94 330 130L360 130H390Z" fill="#FFDA92"/>
<path d="M450 130C450 133.94 449.224 137.841 447.716 141.481C446.209 145.12 443.999 148.427 441.213 151.213C438.427 153.999 435.12 156.209 431.481 157.716C427.841 159.224 423.94 160 420 160C416.06 160 412.159 159.224 408.519 157.716C404.88 156.209 401.573 153.999 398.787 151.213C396.001 148.427 393.791 145.12 392.284 141.48C390.776 137.841 390 133.94 390 130L420 130H450Z" fill="#FFDA92"/>
<path d="M510 130C510 133.94 509.224 137.841 507.716 141.481C506.209 145.12 503.999 148.427 501.213 151.213C498.427 153.999 495.12 156.209 491.481 157.716C487.841 159.224 483.94 160 480 160C476.06 160 472.159 159.224 468.519 157.716C464.88 156.209 461.573 153.999 458.787 151.213C456.001 148.427 453.791 145.12 452.284 141.48C450.776 137.841 450 133.94 450 130L480 130H510Z" fill="#FFDA92"/>
<path d="M570 130C570 133.94 569.224 137.841 567.716 141.481C566.209 145.12 563.999 148.427 561.213 151.213C558.427 153.999 555.12 156.209 551.481 157.716C547.841 159.224 543.94 160 540 160C536.06 160 532.159 159.224 528.519 157.716C524.88 156.209 521.573 153.999 518.787 151.213C516.001 148.427 513.791 145.12 512.284 141.48C510.776 137.841 510 133.94 510 130L540 130H570Z" fill="#FFDA92"/>
<path d="M630 130C630 133.94 629.224 137.841 627.716 141.481C626.209 145.12 623.999 148.427 621.213 151.213C618.427 153.999 615.12 156.209 611.481 157.716C607.841 159.224 603.94 160 600 160C596.06 160 592.159 159.224 588.519 157.716C584.88 156.209 581.573 153.999 578.787 151.213C576.001 148.427 573.791 145.12 572.284 141.48C570.776 137.841 570 133.94 570 130L600 130H630Z" fill="#FFDA92"/>
<path d="M690 130C690 133.94 689.224 137.841 687.716 141.481C686.209 145.12 683.999 148.427 681.213 151.213C678.427 153.999 675.12 156.209 671.481 157.716C667.841 159.224 663.94 160 660 160C656.06 160 652.159 159.224 648.519 157.716C644.88 156.209 641.573 153.999 638.787 151.213C636.001 148.427 633.791 145.12 632.284 141.48C630.776 137.841 630 133.94 630 130L660 130H690Z" fill="#FFDA92"/>
<path d="M750 130C750 133.94 749.224 137.841 747.716 141.481C746.209 145.12 743.999 148.427 741.213 151.213C738.427 153.999 735.12 156.209 731.481 157.716C727.841 159.224 723.94 160 720 160C716.06 160 712.159 159.224 708.519 157.716C704.88 156.209 701.573 153.999 698.787 151.213C696.001 148.427 693.791 145.12 692.284 141.48C690.776 137.841 690 133.94 690 130L720 130H750Z" fill="#FFDA92"/>
<path d="M810 130C810 133.94 809.224 137.841 807.716 141.481C806.209 145.12 803.999 148.427 801.213 151.213C798.427 153.999 795.12 156.209 791.481 157.716C787.841 159.224 783.94 160 780 160C776.06 160 772.159 159.224 768.519 157.716C764.88 156.209 761.573 153.999 758.787 151.213C756.001 148.427 753.791 145.12 752.284 141.48C750.776 137.841 750 133.94 750 130L780 130H810Z" fill="#FFDA92"/>
<path d="M870 130C870 133.94 869.224 137.841 867.716 141.481C866.209 145.12 863.999 148.427 861.213 151.213C858.427 153.999 855.12 156.209 851.481 157.716C847.841 159.224 843.94 160 840 160C836.06 160 832.159 159.224 828.519 157.716C824.88 156.209 821.573 153.999 818.787 151.213C816.001 148.427 813.791 145.12 812.284 141.48C810.776 137.841 810 133.94 810 130L840 130H870Z" fill="#FFDA92"/>
<path d="M930 130C930 133.94 929.224 137.841 927.716 141.481C926.209 145.12 923.999 148.427 921.213 151.213C918.427 153.999 915.12 156.209 911.481 157.716C907.841 159.224 903.94 160 900 160C896.06 160 892.159 159.224 888.519 157.716C884.88 156.209 881.573 153.999 878.787 151.213C876.001 148.427 873.791 145.12 872.284 141.48C870.776 137.841 870 133.94 870 130L900 130H930Z" fill="#FFDA92"/>
<path d="M990 130C990 133.94 989.224 137.841 987.716 141.481C986.209 145.12 983.999 148.427 981.213 151.213C978.427 153.999 975.12 156.209 971.481 157.716C967.841 159.224 963.94 160 960 160C956.06 160 952.159 159.224 948.519 157.716C944.88 156.209 941.573 153.999 938.787 151.213C936.001 148.427 933.791 145.12 932.284 141.48C930.776 137.841 930 133.94 930 130L960 130H990Z" fill="#FFDA92"/>
<path d="M1050 130C1050 133.94 1049.22 137.841 1047.72 141.481C1046.21 145.12 1044 148.427 1041.21 151.213C1038.43 153.999 1035.12 156.209 1031.48 157.716C1027.84 159.224 1023.94 160 1020 160C1016.06 160 1012.16 159.224 1008.52 157.716C1004.88 156.209 1001.57 153.999 998.787 151.213C996.001 148.427 993.791 145.12 992.284 141.48C990.776 137.841 990 133.94 990 130L1020 130H1050Z" fill="#FFDA92"/>
<path d="M1110 130C1110 133.94 1109.22 137.841 1107.72 141.481C1106.21 145.12 1104 148.427 1101.21 151.213C1098.43 153.999 1095.12 156.209 1091.48 157.716C1087.84 159.224 1083.94 160 1080 160C1076.06 160 1072.16 159.224 1068.52 157.716C1064.88 156.209 1061.57 153.999 1058.79 151.213C1056 148.427 1053.79 145.12 1052.28 141.48C1050.78 137.841 1050 133.94 1050 130L1080 130H1110Z" fill="#FFDA92"/>
<path d="M1170 130C1170 133.94 1169.22 137.841 1167.72 141.481C1166.21 145.12 1164 148.427 1161.21 151.213C1158.43 153.999 1155.12 156.209 1151.48 157.716C1147.84 159.224 1143.94 160 1140 160C1136.06 160 1132.16 159.224 1128.52 157.716C1124.88 156.209 1121.57 153.999 1118.79 151.213C1116 148.427 1113.79 145.12 1112.28 141.48C1110.78 137.841 1110 133.94 1110 130L1140 130H1170Z" fill="#FFDA92"/>
<path d="M1230 130C1230 133.94 1229.22 137.841 1227.72 141.481C1226.21 145.12 1224 148.427 1221.21 151.213C1218.43 153.999 1215.12 156.209 1211.48 157.716C1207.84 159.224 1203.94 160 1200 160C1196.06 160 1192.16 159.224 1188.52 157.716C1184.88 156.209 1181.57 153.999 1178.79 151.213C1176 148.427 1173.79 145.12 1172.28 141.48C1170.78 137.841 1170 133.94 1170 130L1200 130H1230Z" fill="#FFDA92"/>
<path d="M1290 130C1290 133.94 1289.22 137.841 1287.72 141.481C1286.21 145.12 1284 148.427 1281.21 151.213C1278.43 153.999 1275.12 156.209 1271.48 157.716C1267.84 159.224 1263.94 160 1260 160C1256.06 160 1252.16 159.224 1248.52 157.716C1244.88 156.209 1241.57 153.999 1238.79 151.213C1236 148.427 1233.79 145.12 1232.28 141.48C1230.78 137.841 1230 133.94 1230 130L1260 130H1290Z" fill="#FFDA92"/>
<path d="M1350 130C1350 133.94 1349.22 137.841 1347.72 141.481C1346.21 145.12 1344 148.427 1341.21 151.213C1338.43 153.999 1335.12 156.209 1331.48 157.716C1327.84 159.224 1323.94 160 1320 160C1316.06 160 1312.16 159.224 1308.52 157.716C1304.88 156.209 1301.57 153.999 1298.79 151.213C1296 148.427 1293.79 145.12 1292.28 141.48C1290.78 137.841 1290 133.94 1290 130L1320 130H1350Z" fill="#FFDA92"/>
<path d="M1410 130C1410 133.94 1409.22 137.841 1407.72 141.481C1406.21 145.12 1404 148.427 1401.21 151.213C1398.43 153.999 1395.12 156.209 1391.48 157.716C1387.84 159.224 1383.94 160 1380 160C1376.06 160 1372.16 159.224 1368.52 157.716C1364.88 156.209 1361.57 153.999 1358.79 151.213C1356 148.427 1353.79 145.12 1352.28 141.48C1350.78 137.841 1350 133.94 1350 130L1380 130H1410Z" fill="#FFDA92"/>
<path d="M1440 160C1432.04 160 1424.41 156.839 1418.79 151.213C1413.16 145.587 1410 137.956 1410 130L1440 130L1440 160Z" fill="#FFDA92"/>
</svg>
