<svg width="1440" height="1024" viewBox="0 0 1440 1024" fill="none" xmlns="http://www.w3.org/2000/svg">
<path d="M67.5 1024H90L495 539H483.75L67.5 1024Z" fill="#FFCF25"/>
<path fill-rule="evenodd" clip-rule="evenodd" d="M450 539H472.5H483.75L67.5 1024H45H0L450 539ZM180 1024H90L495 539H540H720H900H945L1350 1024H1260H1080H720H360H180ZM1372.5 1024H1395H1440L990 539H967.5H956.25L1372.5 1024Z" fill="#AA0000"/>
<path d="M956.25 539H945L1350 1024H1372.5L956.25 539Z" fill="#FFCF25"/>
<rect x="450" width="540" height="539" fill="#A97754"/>
<path d="M257.335 261.422C257.335 267.652 256.109 273.821 253.725 279.577C251.341 285.333 247.847 290.563 243.443 294.968C239.038 299.373 233.81 302.868 228.055 305.252C222.3 307.636 216.132 308.864 209.904 308.864C203.675 308.864 197.507 307.636 191.752 305.252C185.997 302.868 180.769 299.373 176.364 294.968C171.96 290.563 168.466 285.333 166.082 279.577C163.699 273.821 162.472 267.652 162.472 261.421L257.335 261.422Z" fill="url(#paint0_linear_10_2)"/>
<path d="M137.981 267.473C137.981 261.503 140.353 255.777 144.573 251.555C148.794 247.334 154.518 244.962 160.487 244.962C166.456 244.962 172.181 247.334 176.401 251.555C180.622 255.777 182.993 261.503 182.993 267.473H173.991C173.991 263.891 172.568 260.455 170.036 257.922C167.503 255.389 164.069 253.966 160.487 253.966C156.906 253.966 153.471 255.389 150.939 257.922C148.406 260.455 146.984 263.891 146.984 267.473H137.981Z" fill="url(#paint1_linear_10_2)"/>
<path d="M146.984 293.13C146.984 299.1 144.613 304.826 140.392 309.048C136.171 313.269 130.447 315.641 124.478 315.641C118.509 315.641 112.784 313.269 108.564 309.048C104.343 304.826 101.972 299.101 101.972 293.13H110.974C110.974 296.712 112.397 300.148 114.929 302.681C117.462 305.214 120.897 306.637 124.478 306.637C128.059 306.637 131.494 305.214 134.026 302.681C136.559 300.148 137.981 296.712 137.981 293.13H146.984Z" fill="url(#paint2_linear_10_2)"/>
<path d="M101.972 293.13H110.974V265.052H101.972V293.13Z" fill="url(#paint3_linear_10_2)"/>
<path d="M146.984 267.473H137.981V293.13H146.984V267.473Z" fill="url(#paint4_linear_10_2)"/>
<path d="M169.73 252.772L177.889 256.577L214.138 178.826L205.979 175.021L169.73 252.772Z" fill="url(#paint5_linear_10_2)"/>
<path d="M250.235 252.77L242.076 256.576L205.855 178.883L214.014 175.077L250.235 252.77Z" fill="url(#paint6_linear_10_2)"/>
<path d="M205.544 315.641C205.546 323.629 214.74 324.597 214.74 315.641V132.65H205.544V315.641Z" fill="url(#paint7_linear_10_2)"/>
<path d="M126.656 277.397C126.656 282.147 124.514 286.703 120.702 290.062C116.89 293.422 111.719 295.309 106.328 295.309C100.937 295.309 95.7662 293.422 91.9539 290.062C88.1417 286.703 86 282.147 86 277.397L126.656 277.397Z" fill="url(#paint8_linear_10_2)"/>
<path d="M230.232 122C230.232 126.751 228.09 131.306 224.278 134.666C220.465 138.025 215.295 139.912 209.904 139.912C204.512 139.912 199.342 138.025 195.53 134.666C191.717 131.306 189.576 126.751 189.576 122L230.232 122Z" fill="url(#paint9_linear_10_2)"/>
<path d="M282.019 267.473C282.019 261.503 279.647 255.777 275.427 251.555C271.206 247.334 265.482 244.962 259.513 244.962C253.544 244.962 247.819 247.334 243.599 251.555C239.378 255.777 237.007 261.503 237.007 267.473H246.009C246.009 263.891 247.432 260.455 249.964 257.922C252.497 255.389 255.931 253.966 259.513 253.966C263.094 253.966 266.529 255.389 269.061 257.922C271.594 260.455 273.016 263.891 273.016 267.473H282.019Z" fill="url(#paint10_linear_10_2)"/>
<path d="M273.016 293.13C273.016 299.1 275.387 304.826 279.608 309.048C283.829 313.269 289.553 315.641 295.522 315.641C301.491 315.641 307.215 313.269 311.436 309.048C315.657 304.826 318.028 299.101 318.028 293.13H309.026C309.026 296.712 307.603 300.148 305.071 302.681C302.538 305.214 299.103 306.637 295.522 306.637C291.941 306.637 288.506 305.214 285.974 302.681C283.441 300.148 282.019 296.712 282.019 293.13H273.016Z" fill="url(#paint11_linear_10_2)"/>
<path d="M318.028 293.13H309.026V265.052H318.028V293.13Z" fill="url(#paint12_linear_10_2)"/>
<path d="M273.016 267.473H282.019V293.13H273.016V267.473Z" fill="url(#paint13_linear_10_2)"/>
<path d="M293.344 277.397C293.344 282.147 295.486 286.703 299.298 290.062C303.11 293.422 308.281 295.309 313.672 295.309C319.063 295.309 324.234 293.422 328.046 290.062C331.858 286.703 334 282.147 334 277.397L293.344 277.397Z" fill="url(#paint14_linear_10_2)"/>
<path d="M113.104 253.192C113.104 257.737 109.42 261.422 104.876 261.422C100.332 261.422 96.648 257.737 96.648 253.192C96.648 248.647 100.332 237.458 104.876 237.458C109.42 237.458 113.104 248.647 113.104 253.192Z" fill="url(#paint15_linear_10_2)"/>
<path d="M321.707 253.434C321.707 257.979 318.023 261.664 313.479 261.664C308.935 261.664 305.251 257.979 305.251 253.434C305.251 248.889 308.935 237.7 313.479 237.7C318.023 237.7 321.707 248.889 321.707 253.434Z" fill="url(#paint16_linear_10_2)"/>
<path d="M1277.34 261.422C1277.34 267.652 1276.11 273.821 1273.72 279.577C1271.34 285.333 1267.85 290.563 1263.44 294.968C1259.04 299.373 1253.81 302.868 1248.05 305.252C1242.3 307.636 1236.13 308.864 1229.9 308.864C1223.67 308.864 1217.51 307.636 1211.75 305.252C1206 302.868 1200.77 299.373 1196.36 294.968C1191.96 290.563 1188.47 285.333 1186.08 279.577C1183.7 273.821 1182.47 267.652 1182.47 261.421L1277.34 261.422Z" fill="url(#paint17_linear_10_2)"/>
<path d="M1157.98 267.473C1157.98 261.503 1160.35 255.777 1164.57 251.555C1168.79 247.334 1174.52 244.962 1180.49 244.962C1186.46 244.962 1192.18 247.334 1196.4 251.555C1200.62 255.777 1202.99 261.503 1202.99 267.473H1193.99C1193.99 263.891 1192.57 260.455 1190.04 257.922C1187.5 255.389 1184.07 253.966 1180.49 253.966C1176.91 253.966 1173.47 255.389 1170.94 257.922C1168.41 260.455 1166.98 263.891 1166.98 267.473H1157.98Z" fill="url(#paint18_linear_10_2)"/>
<path d="M1166.98 293.13C1166.98 299.1 1164.61 304.826 1160.39 309.048C1156.17 313.269 1150.45 315.641 1144.48 315.641C1138.51 315.641 1132.78 313.269 1128.56 309.048C1124.34 304.826 1121.97 299.101 1121.97 293.13H1130.97C1130.97 296.712 1132.4 300.148 1134.93 302.681C1137.46 305.214 1140.9 306.637 1144.48 306.637C1148.06 306.637 1151.49 305.214 1154.03 302.681C1156.56 300.148 1157.98 296.712 1157.98 293.13H1166.98Z" fill="url(#paint19_linear_10_2)"/>
<path d="M1121.97 293.13H1130.97V265.052H1121.97V293.13Z" fill="url(#paint20_linear_10_2)"/>
<path d="M1166.98 267.473H1157.98V293.13H1166.98V267.473Z" fill="url(#paint21_linear_10_2)"/>
<path d="M1189.73 252.772L1197.89 256.577L1234.14 178.826L1225.98 175.021L1189.73 252.772Z" fill="url(#paint22_linear_10_2)"/>
<path d="M1270.23 252.77L1262.08 256.576L1225.85 178.883L1234.01 175.077L1270.23 252.77Z" fill="url(#paint23_linear_10_2)"/>
<path d="M1225.54 315.641C1225.55 323.629 1234.74 324.597 1234.74 315.641V132.65H1225.54V315.641Z" fill="url(#paint24_linear_10_2)"/>
<path d="M1146.66 277.397C1146.66 282.147 1144.51 286.703 1140.7 290.062C1136.89 293.422 1131.72 295.309 1126.33 295.309C1120.94 295.309 1115.77 293.422 1111.95 290.062C1108.14 286.703 1106 282.147 1106 277.397L1146.66 277.397Z" fill="url(#paint25_linear_10_2)"/>
<path d="M1250.23 122C1250.23 126.751 1248.09 131.306 1244.28 134.666C1240.47 138.025 1235.29 139.912 1229.9 139.912C1224.51 139.912 1219.34 138.025 1215.53 134.666C1211.72 131.306 1209.58 126.751 1209.58 122L1250.23 122Z" fill="url(#paint26_linear_10_2)"/>
<path d="M1302.02 267.473C1302.02 261.503 1299.65 255.777 1295.43 251.555C1291.21 247.334 1285.48 244.962 1279.51 244.962C1273.54 244.962 1267.82 247.334 1263.6 251.555C1259.38 255.777 1257.01 261.503 1257.01 267.473H1266.01C1266.01 263.891 1267.43 260.455 1269.96 257.922C1272.5 255.389 1275.93 253.966 1279.51 253.966C1283.09 253.966 1286.53 255.389 1289.06 257.922C1291.59 260.455 1293.02 263.891 1293.02 267.473H1302.02Z" fill="url(#paint27_linear_10_2)"/>
<path d="M1293.02 293.13C1293.02 299.1 1295.39 304.826 1299.61 309.048C1303.83 313.269 1309.55 315.641 1315.52 315.641C1321.49 315.641 1327.22 313.269 1331.44 309.048C1335.66 304.826 1338.03 299.101 1338.03 293.13H1329.03C1329.03 296.712 1327.6 300.148 1325.07 302.681C1322.54 305.214 1319.1 306.637 1315.52 306.637C1311.94 306.637 1308.51 305.214 1305.97 302.681C1303.44 300.148 1302.02 296.712 1302.02 293.13H1293.02Z" fill="url(#paint28_linear_10_2)"/>
<path d="M1338.03 293.13H1329.03V265.052H1338.03V293.13Z" fill="url(#paint29_linear_10_2)"/>
<path d="M1293.02 267.473H1302.02V293.13H1293.02V267.473Z" fill="url(#paint30_linear_10_2)"/>
<path d="M1313.34 277.397C1313.34 282.147 1315.49 286.703 1319.3 290.062C1323.11 293.422 1328.28 295.309 1333.67 295.309C1339.06 295.309 1344.23 293.422 1348.05 290.062C1351.86 286.703 1354 282.147 1354 277.397L1313.34 277.397Z" fill="url(#paint31_linear_10_2)"/>
<path d="M1133.1 253.192C1133.1 257.737 1129.42 261.422 1124.88 261.422C1120.33 261.422 1116.65 257.737 1116.65 253.192C1116.65 248.647 1120.33 237.458 1124.88 237.458C1129.42 237.458 1133.1 248.647 1133.1 253.192Z" fill="url(#paint32_linear_10_2)"/>
<path d="M1341.71 253.434C1341.71 257.979 1338.02 261.664 1333.48 261.664C1328.94 261.664 1325.25 257.979 1325.25 253.434C1325.25 248.889 1328.94 237.7 1333.48 237.7C1338.02 237.7 1341.71 248.889 1341.71 253.434Z" fill="url(#paint33_linear_10_2)"/>
<path d="M1206.3 360.811C891.987 246.021 547.191 246.409 233.137 361.907L252.323 414.145L299.421 542.38C324.212 533.263 349.224 524.976 374.419 517.519C600.269 450.669 840.692 450.523 1066.64 517.114C1091.42 524.417 1116.03 532.524 1140.42 541.433L1187.22 413.127L1206.3 360.811Z" fill="#FF9CAC"/>
<path d="M299.421 542.38L389.809 572.212L374.419 517.519C349.224 524.976 324.212 533.263 299.421 542.38Z" fill="#AA0000"/>
<path d="M198.192 644C259.948 614.756 324.045 590.742 389.809 572.212L299.421 542.38L252.323 414.145C205.959 430.442 160.455 449.151 116 470.203L210.188 530.683L198.192 644Z" fill="#BE717E"/>
<path d="M1051.31 571.835C1117.09 590.292 1181.21 614.234 1243 643.409L1228.76 528.944L1325 469.52C1280.08 448.307 1234.08 429.485 1187.22 413.127L1140.42 541.433L1051.31 571.835Z" fill="#BE717E"/>
<path d="M1051.31 571.835L1140.42 541.433C1116.03 532.524 1091.42 524.417 1066.64 517.114L1051.31 571.835Z" fill="#AA0000"/>
<defs>
<linearGradient id="paint0_linear_10_2" x1="210" y1="122" x2="210" y2="322" gradientUnits="userSpaceOnUse">
<stop stop-color="#9F5324"/>
<stop offset="0.11" stop-color="#D2992A"/>
<stop offset="0.475" stop-color="#F8D261"/>
<stop offset="0.735" stop-color="#F8D261"/>
<stop offset="0.93" stop-color="#DEB04B"/>
</linearGradient>
<linearGradient id="paint1_linear_10_2" x1="210" y1="122" x2="210" y2="322" gradientUnits="userSpaceOnUse">
<stop stop-color="#9F5324"/>
<stop offset="0.11" stop-color="#D2992A"/>
<stop offset="0.475" stop-color="#F8D261"/>
<stop offset="0.735" stop-color="#F8D261"/>
<stop offset="0.93" stop-color="#DEB04B"/>
</linearGradient>
<linearGradient id="paint2_linear_10_2" x1="210" y1="122" x2="210" y2="322" gradientUnits="userSpaceOnUse">
<stop stop-color="#9F5324"/>
<stop offset="0.11" stop-color="#D2992A"/>
<stop offset="0.475" stop-color="#F8D261"/>
<stop offset="0.735" stop-color="#F8D261"/>
<stop offset="0.93" stop-color="#DEB04B"/>
</linearGradient>
<linearGradient id="paint3_linear_10_2" x1="210" y1="122" x2="210" y2="322" gradientUnits="userSpaceOnUse">
<stop stop-color="#9F5324"/>
<stop offset="0.11" stop-color="#D2992A"/>
<stop offset="0.475" stop-color="#F8D261"/>
<stop offset="0.735" stop-color="#F8D261"/>
<stop offset="0.93" stop-color="#DEB04B"/>
</linearGradient>
<linearGradient id="paint4_linear_10_2" x1="210" y1="122" x2="210" y2="322" gradientUnits="userSpaceOnUse">
<stop stop-color="#9F5324"/>
<stop offset="0.11" stop-color="#D2992A"/>
<stop offset="0.475" stop-color="#F8D261"/>
<stop offset="0.735" stop-color="#F8D261"/>
<stop offset="0.93" stop-color="#DEB04B"/>
</linearGradient>
<linearGradient id="paint5_linear_10_2" x1="210" y1="122" x2="210" y2="322" gradientUnits="userSpaceOnUse">
<stop stop-color="#9F5324"/>
<stop offset="0.11" stop-color="#D2992A"/>
<stop offset="0.475" stop-color="#F8D261"/>
<stop offset="0.735" stop-color="#F8D261"/>
<stop offset="0.93" stop-color="#DEB04B"/>
</linearGradient>
<linearGradient id="paint6_linear_10_2" x1="210" y1="122" x2="210" y2="322" gradientUnits="userSpaceOnUse">
<stop stop-color="#9F5324"/>
<stop offset="0.11" stop-color="#D2992A"/>
<stop offset="0.475" stop-color="#F8D261"/>
<stop offset="0.735" stop-color="#F8D261"/>
<stop offset="0.93" stop-color="#DEB04B"/>
</linearGradient>
<linearGradient id="paint7_linear_10_2" x1="210" y1="122" x2="210" y2="322" gradientUnits="userSpaceOnUse">
<stop stop-color="#9F5324"/>
<stop offset="0.11" stop-color="#D2992A"/>
<stop offset="0.475" stop-color="#F8D261"/>
<stop offset="0.735" stop-color="#F8D261"/>
<stop offset="0.93" stop-color="#DEB04B"/>
</linearGradient>
<linearGradient id="paint8_linear_10_2" x1="210" y1="122" x2="210" y2="322" gradientUnits="userSpaceOnUse">
<stop stop-color="#9F5324"/>
<stop offset="0.11" stop-color="#D2992A"/>
<stop offset="0.475" stop-color="#F8D261"/>
<stop offset="0.735" stop-color="#F8D261"/>
<stop offset="0.93" stop-color="#DEB04B"/>
</linearGradient>
<linearGradient id="paint9_linear_10_2" x1="210" y1="122" x2="210" y2="322" gradientUnits="userSpaceOnUse">
<stop stop-color="#9F5324"/>
<stop offset="0.11" stop-color="#D2992A"/>
<stop offset="0.475" stop-color="#F8D261"/>
<stop offset="0.735" stop-color="#F8D261"/>
<stop offset="0.93" stop-color="#DEB04B"/>
</linearGradient>
<linearGradient id="paint10_linear_10_2" x1="210" y1="122" x2="210" y2="322" gradientUnits="userSpaceOnUse">
<stop stop-color="#9F5324"/>
<stop offset="0.11" stop-color="#D2992A"/>
<stop offset="0.475" stop-color="#F8D261"/>
<stop offset="0.735" stop-color="#F8D261"/>
<stop offset="0.93" stop-color="#DEB04B"/>
</linearGradient>
<linearGradient id="paint11_linear_10_2" x1="210" y1="122" x2="210" y2="322" gradientUnits="userSpaceOnUse">
<stop stop-color="#9F5324"/>
<stop offset="0.11" stop-color="#D2992A"/>
<stop offset="0.475" stop-color="#F8D261"/>
<stop offset="0.735" stop-color="#F8D261"/>
<stop offset="0.93" stop-color="#DEB04B"/>
</linearGradient>
<linearGradient id="paint12_linear_10_2" x1="210" y1="122" x2="210" y2="322" gradientUnits="userSpaceOnUse">
<stop stop-color="#9F5324"/>
<stop offset="0.11" stop-color="#D2992A"/>
<stop offset="0.475" stop-color="#F8D261"/>
<stop offset="0.735" stop-color="#F8D261"/>
<stop offset="0.93" stop-color="#DEB04B"/>
</linearGradient>
<linearGradient id="paint13_linear_10_2" x1="210" y1="122" x2="210" y2="322" gradientUnits="userSpaceOnUse">
<stop stop-color="#9F5324"/>
<stop offset="0.11" stop-color="#D2992A"/>
<stop offset="0.475" stop-color="#F8D261"/>
<stop offset="0.735" stop-color="#F8D261"/>
<stop offset="0.93" stop-color="#DEB04B"/>
</linearGradient>
<linearGradient id="paint14_linear_10_2" x1="210" y1="122" x2="210" y2="322" gradientUnits="userSpaceOnUse">
<stop stop-color="#9F5324"/>
<stop offset="0.11" stop-color="#D2992A"/>
<stop offset="0.475" stop-color="#F8D261"/>
<stop offset="0.735" stop-color="#F8D261"/>
<stop offset="0.93" stop-color="#DEB04B"/>
</linearGradient>
<linearGradient id="paint15_linear_10_2" x1="210" y1="122" x2="210" y2="322" gradientUnits="userSpaceOnUse">
<stop stop-color="#9F5324"/>
<stop offset="0.11" stop-color="#D2992A"/>
<stop offset="0.475" stop-color="#F8D261"/>
<stop offset="0.735" stop-color="#F8D261"/>
<stop offset="0.93" stop-color="#DEB04B"/>
</linearGradient>
<linearGradient id="paint16_linear_10_2" x1="210" y1="122" x2="210" y2="322" gradientUnits="userSpaceOnUse">
<stop stop-color="#9F5324"/>
<stop offset="0.11" stop-color="#D2992A"/>
<stop offset="0.475" stop-color="#F8D261"/>
<stop offset="0.735" stop-color="#F8D261"/>
<stop offset="0.93" stop-color="#DEB04B"/>
</linearGradient>
<linearGradient id="paint17_linear_10_2" x1="1230" y1="122" x2="1230" y2="322" gradientUnits="userSpaceOnUse">
<stop stop-color="#9F5324"/>
<stop offset="0.11" stop-color="#D2992A"/>
<stop offset="0.475" stop-color="#F8D261"/>
<stop offset="0.735" stop-color="#F8D261"/>
<stop offset="0.93" stop-color="#DEB04B"/>
</linearGradient>
<linearGradient id="paint18_linear_10_2" x1="1230" y1="122" x2="1230" y2="322" gradientUnits="userSpaceOnUse">
<stop stop-color="#9F5324"/>
<stop offset="0.11" stop-color="#D2992A"/>
<stop offset="0.475" stop-color="#F8D261"/>
<stop offset="0.735" stop-color="#F8D261"/>
<stop offset="0.93" stop-color="#DEB04B"/>
</linearGradient>
<linearGradient id="paint19_linear_10_2" x1="1230" y1="122" x2="1230" y2="322" gradientUnits="userSpaceOnUse">
<stop stop-color="#9F5324"/>
<stop offset="0.11" stop-color="#D2992A"/>
<stop offset="0.475" stop-color="#F8D261"/>
<stop offset="0.735" stop-color="#F8D261"/>
<stop offset="0.93" stop-color="#DEB04B"/>
</linearGradient>
<linearGradient id="paint20_linear_10_2" x1="1230" y1="122" x2="1230" y2="322" gradientUnits="userSpaceOnUse">
<stop stop-color="#9F5324"/>
<stop offset="0.11" stop-color="#D2992A"/>
<stop offset="0.475" stop-color="#F8D261"/>
<stop offset="0.735" stop-color="#F8D261"/>
<stop offset="0.93" stop-color="#DEB04B"/>
</linearGradient>
<linearGradient id="paint21_linear_10_2" x1="1230" y1="122" x2="1230" y2="322" gradientUnits="userSpaceOnUse">
<stop stop-color="#9F5324"/>
<stop offset="0.11" stop-color="#D2992A"/>
<stop offset="0.475" stop-color="#F8D261"/>
<stop offset="0.735" stop-color="#F8D261"/>
<stop offset="0.93" stop-color="#DEB04B"/>
</linearGradient>
<linearGradient id="paint22_linear_10_2" x1="1230" y1="122" x2="1230" y2="322" gradientUnits="userSpaceOnUse">
<stop stop-color="#9F5324"/>
<stop offset="0.11" stop-color="#D2992A"/>
<stop offset="0.475" stop-color="#F8D261"/>
<stop offset="0.735" stop-color="#F8D261"/>
<stop offset="0.93" stop-color="#DEB04B"/>
</linearGradient>
<linearGradient id="paint23_linear_10_2" x1="1230" y1="122" x2="1230" y2="322" gradientUnits="userSpaceOnUse">
<stop stop-color="#9F5324"/>
<stop offset="0.11" stop-color="#D2992A"/>
<stop offset="0.475" stop-color="#F8D261"/>
<stop offset="0.735" stop-color="#F8D261"/>
<stop offset="0.93" stop-color="#DEB04B"/>
</linearGradient>
<linearGradient id="paint24_linear_10_2" x1="1230" y1="122" x2="1230" y2="322" gradientUnits="userSpaceOnUse">
<stop stop-color="#9F5324"/>
<stop offset="0.11" stop-color="#D2992A"/>
<stop offset="0.475" stop-color="#F8D261"/>
<stop offset="0.735" stop-color="#F8D261"/>
<stop offset="0.93" stop-color="#DEB04B"/>
</linearGradient>
<linearGradient id="paint25_linear_10_2" x1="1230" y1="122" x2="1230" y2="322" gradientUnits="userSpaceOnUse">
<stop stop-color="#9F5324"/>
<stop offset="0.11" stop-color="#D2992A"/>
<stop offset="0.475" stop-color="#F8D261"/>
<stop offset="0.735" stop-color="#F8D261"/>
<stop offset="0.93" stop-color="#DEB04B"/>
</linearGradient>
<linearGradient id="paint26_linear_10_2" x1="1230" y1="122" x2="1230" y2="322" gradientUnits="userSpaceOnUse">
<stop stop-color="#9F5324"/>
<stop offset="0.11" stop-color="#D2992A"/>
<stop offset="0.475" stop-color="#F8D261"/>
<stop offset="0.735" stop-color="#F8D261"/>
<stop offset="0.93" stop-color="#DEB04B"/>
</linearGradient>
<linearGradient id="paint27_linear_10_2" x1="1230" y1="122" x2="1230" y2="322" gradientUnits="userSpaceOnUse">
<stop stop-color="#9F5324"/>
<stop offset="0.11" stop-color="#D2992A"/>
<stop offset="0.475" stop-color="#F8D261"/>
<stop offset="0.735" stop-color="#F8D261"/>
<stop offset="0.93" stop-color="#DEB04B"/>
</linearGradient>
<linearGradient id="paint28_linear_10_2" x1="1230" y1="122" x2="1230" y2="322" gradientUnits="userSpaceOnUse">
<stop stop-color="#9F5324"/>
<stop offset="0.11" stop-color="#D2992A"/>
<stop offset="0.475" stop-color="#F8D261"/>
<stop offset="0.735" stop-color="#F8D261"/>
<stop offset="0.93" stop-color="#DEB04B"/>
</linearGradient>
<linearGradient id="paint29_linear_10_2" x1="1230" y1="122" x2="1230" y2="322" gradientUnits="userSpaceOnUse">
<stop stop-color="#9F5324"/>
<stop offset="0.11" stop-color="#D2992A"/>
<stop offset="0.475" stop-color="#F8D261"/>
<stop offset="0.735" stop-color="#F8D261"/>
<stop offset="0.93" stop-color="#DEB04B"/>
</linearGradient>
<linearGradient id="paint30_linear_10_2" x1="1230" y1="122" x2="1230" y2="322" gradientUnits="userSpaceOnUse">
<stop stop-color="#9F5324"/>
<stop offset="0.11" stop-color="#D2992A"/>
<stop offset="0.475" stop-color="#F8D261"/>
<stop offset="0.735" stop-color="#F8D261"/>
<stop offset="0.93" stop-color="#DEB04B"/>
</linearGradient>
<linearGradient id="paint31_linear_10_2" x1="1230" y1="122" x2="1230" y2="322" gradientUnits="userSpaceOnUse">
<stop stop-color="#9F5324"/>
<stop offset="0.11" stop-color="#D2992A"/>
<stop offset="0.475" stop-color="#F8D261"/>
<stop offset="0.735" stop-color="#F8D261"/>
<stop offset="0.93" stop-color="#DEB04B"/>
</linearGradient>
<linearGradient id="paint32_linear_10_2" x1="1230" y1="122" x2="1230" y2="322" gradientUnits="userSpaceOnUse">
<stop stop-color="#9F5324"/>
<stop offset="0.11" stop-color="#D2992A"/>
<stop offset="0.475" stop-color="#F8D261"/>
<stop offset="0.735" stop-color="#F8D261"/>
<stop offset="0.93" stop-color="#DEB04B"/>
</linearGradient>
<linearGradient id="paint33_linear_10_2" x1="1230" y1="122" x2="1230" y2="322" gradientUnits="userSpaceOnUse">
<stop stop-color="#9F5324"/>
<stop offset="0.11" stop-color="#D2992A"/>
<stop offset="0.475" stop-color="#F8D261"/>
<stop offset="0.735" stop-color="#F8D261"/>
<stop offset="0.93" stop-color="#DEB04B"/>
</linearGradient>
</defs>
</svg>
