<svg width="1440" height="1024" viewBox="0 0 1440 1024" fill="none" xmlns="http://www.w3.org/2000/svg">
<path d="M67.5 1024H90L495 539H483.75L67.5 1024Z" fill="#FFCF25"/>
<path fill-rule="evenodd" clip-rule="evenodd" d="M450 539H472.5H483.75L67.5 1024H45H0L450 539ZM180 1024H90L495 539H540H720H900H945L1350 1024H1260H1080H720H360H180ZM1372.5 1024H1395H1440L990 539H967.5H956.25L1372.5 1024Z" fill="#AA0000"/>
<path d="M956.25 539H945L1350 1024H1372.5L956.25 539Z" fill="#FFCF25"/>
<rect x="450" width="540" height="539" fill="#A97754"/>
<path d="M257.335 261.422C257.335 267.652 256.109 273.821 253.725 279.577C251.341 285.333 247.847 290.563 243.443 294.968C239.038 299.373 233.81 302.868 228.055 305.252C222.3 307.636 216.132 308.864 209.904 308.864C203.675 308.864 197.507 307.636 191.752 305.252C185.997 302.868 180.769 299.373 176.364 294.968C171.96 290.563 168.466 285.333 166.082 279.577C163.699 273.821 162.472 267.652 162.472 261.421L257.335 261.422Z" fill="url(#paint0_linear_10_2)"/>
<path d="M137.981 267.473C137.981 261.503 140.353 255.777 144.573 251.555C148.794 247.334 154.518 244.962 160.487 244.962C166.456 244.962 172.181 247.334 176.401 251.555C180.622 255.777 182.993 261.503 182.993 267.473H173.991C173.991 263.891 172.568 260.455 170.036 257.922C167.503 255.389 164.069 253.966 160.487 253.966C156.906 253.966 153.471 255.389 150.939 257.922C148.406 260.455 146.984 263.891 146.984 267.473H137.981Z" fill="url(#paint1_linear_10_2)"/>
<path d="M146.984 293.13C146.984 299.1 144.613 304.826 140.392 309.048C136.171 313.269 130.447 315.641 124.478 315.641C118.509 315.641 112.784 313.269 108.564 309.048C104.343 304.826 101.972 299.101 101.972 293.13H110.974C110.974 296.712 112.397 300.148 114.929 302.681C117.462 305.214 120.897 306.637 124.478 306.637C128.059 306.637 131.494 305.214 134.026 302.681C136.559 300.148 137.981 296.712 137.981 293.13H146.984Z" fill="url(#paint2_linear_10_2)"/>
<path d="M101.972 293.13H110.974V265.052H101.972V293.13Z" fill="url(#paint3_linear_10_2)"/>
<path d="M146.984 267.473H137.981V293.13H146.984V267.473Z" fill="url(#paint4_linear_10_2)"/>
<path d="M169.73 252.772L177.889 256.577L214.138 178.826L205.979 175.021L169.73 252.772Z" fill="url(#paint5_linear_10_2)"/>
<path d="M250.235 252.77L242.076 256.576L205.855 178.883L214.014 175.077L250.235 252.77Z" fill="url(#paint6_linear_10_2)"/>
<path d="M205.544 315.641C205.546 323.629 214.74 324.597 214.74 315.641V132.65H205.544V315.641Z" fill="url(#paint7_linear_10_2)"/>
<path d="M126.656 277.397C126.656 282.147 124.514 286.703 120.702 290.062C116.89 293.422 111.719 295.309 106.328 295.309C100.937 295.309 95.7662 293.422 91.9539 290.062C88.1417 286.703 86 282.147 86 277.397L126.656 277.397Z" fill="url(#paint8_linear_10_2)"/>
<path d="M230.232 122C230.232 126.751 228.09 131.306 224.278 134.666C220.465 138.025 215.295 139.912 209.904 139.912C204.512 139.912 199.342 138.025 195.53 134.666C191.717 131.306 189.576 126.751 189.576 122L230.232 122Z" fill="url(#paint9_linear_10_2)"/>
<path d="M282.019 267.473C282.019 261.503 279.647 255.777 275.427 251.555C271.206 247.334 265.482 244.962 259.513 244.962C253.544 244.962 247.819 247.334 243.599 251.555C239.378 255.777 237.007 261.503 237.007 267.473H246.009C246.009 263.891 247.432 260.455 249.964 257.922C252.497 255.389 255.931 253.966 259.513 253.966C263.094 253.966 266.529 255.389 269.061 257.922C271.594 260.455 273.016 263.891 273.016 267.473H282.019Z" fill="url(#paint10_linear_10_2)"/>
<path d="M273.016 293.13C273.016 299.1 275.387 304.826 279.608 309.048C283.829 313.269 289.553 315.641 295.522 315.641C301.491 315.641 307.215 313.269 311.436 309.048C315.657 304.826 318.028 299.101 318.028 293.13H309.026C309.026 296.712 307.603 300.148 305.071 302.681C302.538 305.214 299.103 306.637 295.522 306.637C291.941 306.637 288.506 305.214 285.974 302.681C283.441 300.148 282.019 296.712 282.019 293.13H273.016Z" fill="url(#paint11_linear_10_2)"/>
<path d="M318.028 293.13H309.026V265.052H318.028V293.13Z" fill="url(#paint12_linear_10_2)"/>
<path d="M273.016 267.473H282.019V293.13H273.016V267.473Z" fill="url(#paint13_linear_10_2)"/>
<path d="M293.344 277.397C293.344 282.147 295.486 286.703 299.298 290.062C303.11 293.422 308.281 295.309 313.672 295.309C319.063 295.309 324.234 293.422 328.046 290.062C331.858 286.703 334 282.147 334 277.397L293.344 277.397Z" fill="url(#paint14_linear_10_2)"/>
<path d="M113.104 253.192C113.104 257.737 109.42 261.422 104.876 261.422C100.332 261.422 96.648 257.737 96.648 253.192C96.648 248.647 100.332 237.458 104.876 237.458C109.42 237.458 113.104 248.647 113.104 253.192Z" fill="url(#paint15_linear_10_2)"/>
<path d="M321.707 253.434C321.707 257.979 318.023 261.664 313.479 261.664C308.935 261.664 305.251 257.979 305.251 253.434C305.251 248.889 308.935 237.7 313.479 237.7C318.023 237.7 321.707 248.889 321.707 253.434Z" fill="url(#paint16_linear_10_2)"/>
<path d="M1277.34 261.422C1277.34 267.652 1276.11 273.821 1273.72 279.577C1271.34 285.333 1267.85 290.563 1263.44 294.968C1259.04 299.373 1253.81 302.868 1248.05 305.252C1242.3 307.636 1236.13 308.864 1229.9 308.864C1223.67 308.864 1217.51 307.636 1211.75 305.252C1206 302.868 1200.77 299.373 1196.36 294.968C1191.96 290.563 1188.47 285.333 1186.08 279.577C1183.7 273.821 1182.47 267.652 1182.47 261.421L1277.34 261.422Z" fill="url(#paint17_linear_10_2)"/>
<path d="M1157.98 267.473C1157.98 261.503 1160.35 255.777 1164.57 251.555C1168.79 247.334 1174.52 244.962 1180.49 244.962C1186.46 244.962 1192.18 247.334 1196.4 251.555C1200.62 255.777 1202.99 261.503 1202.99 267.473H1193.99C1193.99 263.891 1192.57 260.455 1190.04 257.922C1187.5 255.389 1184.07 253.966 1180.49 253.966C1176.91 253.966 1173.47 255.389 1170.94 257.922C1168.41 260.455 1166.98 263.891 1166.98 267.473H1157.98Z" fill="url(#paint18_linear_10_2)"/>
<path d="M1166.98 293.13C1166.98 299.1 1164.61 304.826 1160.39 309.048C1156.17 313.269 1150.45 315.641 1144.48 315.641C1138.51 315.641 1132.78 313.269 1128.56 309.048C1124.34 304.826 1121.97 299.101 1121.97 293.13H1130.97C1130.97 296.712 1132.4 300.148 1134.93 302.681C1137.46 305.214 1140.9 306.637 1144.48 306.637C1148.06 306.637 1151.49 305.214 1154.03 302.681C1156.56 300.148 1157.98 296.712 1157.98 293.13H1166.98Z" fill="url(#paint19_linear_10_2)"/>
<path d="M1121.97 293.13H1130.97V265.052H1121.97V293.13Z" fill="url(#paint20_linear_10_2)"/>
<path d="M1166.98 267.473H1157.98V293.13H1166.98V267.473Z" fill="url(#paint21_linear_10_2)"/>
<path d="M1189.73 252.772L1197.89 256.577L1234.14 178.826L1225.98 175.021L1189.73 252.772Z" fill="url(#paint22_linear_10_2)"/>
<path d="M1270.23 252.77L1262.08 256.576L1225.85 178.883L1234.01 175.077L1270.23 252.77Z" fill="url(#paint23_linear_10_2)"/>
<path d="M1225.54 315.641C1225.55 323.629 1234.74 324.597 1234.74 315.641V132.65H1225.54V315.641Z" fill="url(#paint24_linear_10_2)"/>
<path d="M1146.66 277.397C1146.66 282.147 1144.51 286.703 1140.7 290.062C1136.89 293.422 1131.72 295.309 1126.33 295.309C1120.94 295.309 1115.77 293.422 1111.95 290.062C1108.14 286.703 1106 282.147 1106 277.397L1146.66 277.397Z" fill="url(#paint25_linear_10_2)"/>
<path d="M1250.23 122C1250.23 126.751 1248.09 131.306 1244.28 134.666C1240.47 138.025 1235.29 139.912 1229.9 139.912C1224.51 139.912 1219.34 138.025 1215.53 134.666C1211.72 131.306 1209.58 126.751 1209.58 122L1250.23 122Z" fill="url(#paint26_linear_10_2)"/>
<path d="M1302.02 267.473C1302.02 261.503 1299.65 255.777 1295.43 251.555C1291.21 247.334 1285.48 244.962 1279.51 244.962C1273.54 244.962 1267.82 247.334 1263.6 251.555C1259.38 255.777 1257.01 261.503 1257.01 267.473H1266.01C1266.01 263.891 1267.43 260.455 1269.96 257.922C1272.5 255.389 1275.93 253.966 1279.51 253.966C1283.09 253.966 1286.53 255.389 1289.06 257.922C1291.59 260.455 1293.02 263.891 1293.02 267.473H1302.02Z" fill="url(#paint27_linear_10_2)"/>
<path d="M1293.02 293.13C1293.02 299.1 1295.39 304.826 1299.61 309.048C1303.83 313.269 1309.55 315.641 1315.52 315.641C1321.49 315.641 1327.22 313.269 1331.44 309.048C1335.66 304.826 1338.03 299.101 1338.03 293.13H1329.03C1329.03 296.712 1327.6 300.148 1325.07 302.681C1322.54 305.214 1319.1 306.637 1315.52 306.637C1311.94 306.637 1308.51 305.214 1305.97 302.681C1303.44 300.148 1302.02 296.712 1302.02 293.13H1293.02Z" fill="url(#paint28_linear_10_2)"/>
<path d="M1338.03 293.13H1329.03V265.052H1338.03V293.13Z" fill="url(#paint29_linear_10_2)"/>
<path d="M1293.02 267.473H1302.02V293.13H1293.02V267.473Z" fill="url(#paint30_linear_10_2)"/>
<path d="M1313.34 277.397C1313.34 282.147 1315.49 286.703 1319.3 290.062C1323.11 293.422 1328.28 295.309 1333.67 295.309C1339.06 295.309 1344.23 293.422 1348.05 290.062C1351.86 286.703 1354 282.147 1354 277.397L1313.34 277.397Z" fill="url(#paint31_linear_10_2)"/>
<path d="M1133.1 253.192C1133.1 257.737 1129.42 261.422 1124.88 261.422C1120.33 261.422 1116.65 257.737 1116.65 253.192C1116.65 248.647 1120.33 237.458 1124.88 237.458C1129.42 237.458 1133.1 248.647 1133.1 253.192Z" fill="url(#paint32_linear_10_2)"/>
<path d="M1341.71 253.434C1341.71 257.979 1338.02 261.664 1333.48 261.664C1328.94 261.664 1325.25 257.979 1325.25 253.434C1325.25 248.889 1328.94 237.7 1333.48 237.7C1338.02 237.7 1341.71 248.889 1341.71 253.434Z" fill="url(#paint33_linear_10_2)"/>
<path d="M1206.3 360.811C891.987 246.021 547.191 246.409 233.137 361.907L252.323 414.145L299.421 542.38C324.212 533.263 349.224 524.976 374.419 517.519C600.269 450.669 840.692 450.523 1066.64 517.114C1091.42 524.417 1116.03 532.524 1140.42 541.433L1187.22 413.127L1206.3 360.811Z" fill="#FF9CAC"/>
<path d="M299.421 542.38L389.809 572.212L374.419 517.519C349.224 524.976 324.212 533.263 299.421 542.38Z" fill="#AA0000"/>
<path d="M198.192 644C259.948 614.756 324.045 590.742 389.809 572.212L299.421 542.38L252.323 414.145C205.959 430.442 160.455 449.151 116 470.203L210.188 530.683L198.192 644Z" fill="#BE717E"/>
<path d="M1051.31 571.835C1117.09 590.292 1181.21 614.234 1243 643.409L1228.76 528.944L1325 469.52C1280.08 448.307 1234.08 429.485 1187.22 413.127L1140.42 541.433L1051.31 571.835Z" fill="#BE717E"/>
<path d="M1051.31 571.835L1140.42 541.433C1116.03 532.524 1091.42 524.417 1066.64 517.114L1051.31 571.835Z" fill="#AA0000"/>
<path d="M913.464 677.895C913.464 677.895 875.892 737.355 879.509 749.35C883.126 761.345 899.509 771.2 902.509 772.85C905.509 774.5 920.369 785.985 930.876 772.85C941.383 759.716 918.29 742.296 918.29 742.296L927.864 724.696C985.205 812.64 994.079 858.471 988.29 961.098C988.29 961.098 987.498 982.701 1010.7 982.694C1033.89 982.686 1031.49 961.098 1031.49 961.098L1031.49 811.898C1053.99 835.142 1066.08 846.646 1081.49 849.898L996.291 689.097L1081.49 710.297C1081.49 710.297 1097.73 713.093 1101.09 697.497C1104.45 681.901 1090.29 677.895 1090.29 677.895L956.29 646.297L946.69 649.897L988.29 754.698L956.29 763.098L913.464 677.895Z" fill="black"/>
<path d="M930.876 674.095L932.492 669.698L937.721 671.693L977.889 746.696L963.888 750.7L930.876 674.095Z" fill="black"/>
<path d="M946.69 649.897L988.29 754.698L956.29 763.098L913.464 677.895L918.29 672.189L927.864 682.295L930.876 674.095L963.888 750.7L977.889 746.696L937.721 671.693L951.887 677.097L941.585 653.792L946.69 649.897Z" fill="white"/>
<path fill-rule="evenodd" clip-rule="evenodd" d="M927.275 666.283L936.509 647.515L937.721 645.051L941.585 653.792L951.887 677.097L937.721 671.693L932.492 669.698L930.876 674.095L927.864 682.295L918.29 672.189L913.464 667.095L920.369 666.689L927.275 666.283ZM927.275 666.283L926.685 667.483L932.492 669.698L933.889 665.895L927.275 666.283Z" fill="black"/>
<path d="M932.492 669.698L926.685 667.483L927.275 666.283L933.889 665.895L932.492 669.698Z" fill="black"/>
<path d="M936.509 647.515L927.275 666.283L920.369 666.689L911.009 658.347L927.629 637.521L936.509 647.515Z" fill="#FFDFB9"/>
<path d="M881.696 594.267C866.487 618.506 895.555 670.715 882.74 681.697C880.777 671.19 877.821 665.841 863.377 677.448C870.83 665.734 869.284 665.517 850.785 642.46C828.071 614.149 829.547 580.458 850.948 567.872C884.212 548.309 908.222 551.992 881.696 594.267Z" fill="url(#paint34_linear_10_2)"/>
<path d="M884.015 592.302C912.59 590.792 944.09 641.571 959.916 635.709C951.688 628.886 948.45 623.704 965.614 616.721C951.754 617.542 952.316 616.085 941.156 588.711C927.454 555.1 897.293 540.016 875.892 552.602C842.628 572.164 834.177 594.937 884.015 592.302Z" fill="url(#paint35_linear_10_2)"/>
<path d="M933.932 582.311C950.214 609.996 938.044 635.926 919.103 658.498C894.944 663.869 861.594 662.114 845.313 634.429C829.031 606.744 835.67 572.634 860.142 558.242C884.613 543.85 917.65 554.626 933.932 582.311Z" fill="#FFDFB9"/>
<path d="M900.755 648.812L906.375 647.614L911.299 644.719L916.893 641.429L919.329 637.888" stroke="#EB576D" stroke-width="2" stroke-linecap="round"/>
<path d="M859.628 554.215C867.15 549.791 875.338 547.036 883.121 546.237C904.946 540.848 928.263 560.454 940.635 589.182C946.09 601.851 947.694 635.512 943.889 649.672C941.92 628.963 928.224 613.208 923.177 610.633C916.181 607.064 907.595 612.711 901.366 609.906C891.814 605.607 882.037 607.835 871.07 607.35C869.43 610.251 867.892 612.861 866.484 615.251C859.163 627.679 855.344 634.163 858.784 644.628C861.154 651.836 880.634 673.292 889.607 682.481C876.431 674.634 858.252 656.721 849.851 645.794C834.712 626.102 829.774 604.659 834.321 589.941C834.4 585.833 835.499 581.454 837.612 577.043C841.831 568.235 849.751 560.024 859.628 554.215Z" fill="url(#paint36_linear_10_2)"/>
<path d="M929.248 591.59C929.248 591.59 920.345 590.195 914.658 592.355C911.341 593.615 905.453 599.794 902.961 602.278C897.739 607.484 897.769 616.083 897.769 616.083C897.769 616.083 904.114 607.657 909.433 602.719C915.412 597.169 929.248 591.59 929.248 591.59Z" fill="black"/>
<path d="M851.276 639.641C851.276 639.641 853.93 631.029 858.367 626.868C860.955 624.44 869.091 621.861 872.417 620.712C879.386 618.305 887.1 622.106 887.1 622.106C887.1 622.106 876.744 624.109 869.973 626.721C862.361 629.657 851.276 639.641 851.276 639.641Z" fill="black"/>
<rect x="861.026" y="639.23" width="31.8253" height="15.5891" transform="rotate(-30.46 861.026 639.23)" fill="#BEFFFF" fill-opacity="0.6" stroke="black" stroke-width="2"/>
<rect x="899.512" y="616.589" width="31.8253" height="15.5891" transform="rotate(-30.46 899.512 616.589)" fill="#BEFFFF" fill-opacity="0.6" stroke="black" stroke-width="2"/>
<path d="M527.546 675.545C527.546 675.545 565.118 735.005 561.5 747C557.883 758.995 541.5 768.85 538.5 770.5C535.5 772.15 520.64 783.635 510.133 770.5C499.626 757.366 522.72 739.946 522.72 739.946L513.146 722.346C455.805 810.29 446.93 856.121 452.719 958.748C452.719 958.748 453.511 980.351 430.314 980.344C407.117 980.336 409.519 958.748 409.519 958.748L409.519 809.548C387.021 832.792 374.925 844.296 359.518 847.548L444.719 686.747L359.518 707.947C359.518 707.947 343.278 710.744 339.918 695.147C336.558 679.551 350.718 675.545 350.718 675.545L484.719 643.947L494.319 647.547L452.719 752.348L484.719 760.748L527.546 675.545Z" fill="black"/>
<path d="M510.133 671.745L508.518 667.348L503.289 669.343L463.121 744.346L477.121 748.35L510.133 671.745Z" fill="black"/>
<path d="M494.319 647.547L452.719 752.348L484.719 760.748L527.546 675.545L522.72 669.839L513.146 679.945L510.133 671.745L477.121 748.35L463.121 744.346L503.289 669.343L489.122 674.747L499.424 651.443L494.319 647.547Z" fill="white"/>
<path fill-rule="evenodd" clip-rule="evenodd" d="M513.734 663.933L504.501 645.165L503.289 642.701L499.424 651.443L489.122 674.747L503.289 669.343L508.518 667.348L510.133 671.745L513.146 679.945L522.72 669.839L527.546 664.745L520.64 664.339L513.734 663.933ZM513.734 663.933L514.324 665.133L508.518 667.348L507.121 663.545L513.734 663.933Z" fill="black"/>
<path d="M508.518 667.348L514.324 665.133L513.734 663.933L507.121 663.545L508.518 667.348Z" fill="black"/>
<path d="M504.501 645.165L513.734 663.933L520.64 664.339L530.001 655.997L513.381 635.171L504.501 645.165Z" fill="#FFDFB9"/>
<path d="M551.806 594.888C528.769 590.366 512.605 615.309 502.666 622.747C497.399 626.688 487.724 617.411 477.959 616.87C488.87 611.396 502.635 622.897 515.671 601.601C531.677 575.452 548.553 550.244 564.151 563.077C588.396 583.024 591.984 602.774 551.806 594.888Z" fill="url(#paint37_linear_10_2)"/>
<path d="M568.863 612.13C577.739 633.864 556.378 654.532 550.995 665.717C548.141 671.646 559.109 679.352 561.522 688.829C564.791 677.068 550.853 665.777 569.238 648.882C591.813 628.137 613.297 606.72 597.698 593.887C573.454 573.94 553.383 574.225 568.863 612.13Z" fill="url(#paint38_linear_10_2)"/>
<path d="M592.342 642.215C572.696 666.094 530.5 663.839 518.806 654.218C497.839 636.968 496.769 603.626 516.415 579.747C536.061 555.868 568.984 550.494 589.951 567.744C610.917 584.994 611.988 618.336 592.342 642.215Z" fill="#FFDFB9"/>
<path d="M519.88 628.875L526.161 645.45L543.636 648.419" stroke="#EB576D" stroke-width="2" stroke-linecap="round"/>
<path d="M582.837 639.007C582.837 639.007 580.137 626.832 574.606 621.456C569.899 616.88 558.959 613.725 558.959 613.725C558.959 613.725 569.453 617.551 573.996 622.197C579.104 627.419 582.837 639.007 582.837 639.007Z" fill="#E3C199"/>
<path d="M594.623 567.417C595.907 568.207 597.186 569.116 598.448 570.155C617.771 586.052 618.981 618.59 603.889 636.933C598.503 643.478 576.005 659.039 567.8 661.071C573.94 651.468 567.736 650.809 556.849 642.696C547.342 635.61 560.626 613.998 556.333 605.609C552.921 598.94 552.362 589.228 560.25 579.641C553.281 588.111 542.005 599.633 524.472 593.043C516.788 591.236 506.501 606.342 502.292 611.457C504.655 598.446 510.04 577.514 513.522 573.598C514.213 572.821 518.367 565.217 519.258 564.134C534.35 545.79 569.37 545.248 588.631 561.094C591.128 563.149 593.106 565.289 594.623 567.417Z" fill="url(#paint39_linear_10_2)"/>
<rect x="520.184" y="602.39" width="31.4771" height="13.2926" transform="rotate(39.4453 520.184 602.39)" fill="#BEFFFF" fill-opacity="0.9" stroke="black" stroke-width="2"/>
<rect x="554.213" y="629.133" width="31.9294" height="13.2926" transform="rotate(39.4453 554.213 629.133)" fill="#BEFFFF" fill-opacity="0.9" stroke="black" stroke-width="2"/>
<path d="M583.467 648.262C583.467 648.262 584.012 640.903 581.801 636.19C580.511 633.44 574.916 628.544 572.657 626.472C567.925 622.131 560.714 622.119 560.714 622.119C560.714 622.119 568.227 627.403 572.742 631.824C577.817 636.793 583.467 648.262 583.467 648.262Z" fill="black"/>
<path d="M518.755 596.35C518.755 596.35 525.853 594.348 530.909 595.575C533.859 596.292 539.77 600.802 542.249 602.603C547.444 606.378 548.894 613.446 548.894 613.446C548.894 613.446 542.221 607.133 536.991 603.588C531.113 599.603 518.755 596.35 518.755 596.35Z" fill="black"/>
<defs>
<linearGradient id="paint0_linear_10_2" x1="210" y1="122" x2="210" y2="322" gradientUnits="userSpaceOnUse">
<stop stop-color="#9F5324"/>
<stop offset="0.11" stop-color="#D2992A"/>
<stop offset="0.475" stop-color="#F8D261"/>
<stop offset="0.735" stop-color="#F8D261"/>
<stop offset="0.93" stop-color="#DEB04B"/>
</linearGradient>
<linearGradient id="paint1_linear_10_2" x1="210" y1="122" x2="210" y2="322" gradientUnits="userSpaceOnUse">
<stop stop-color="#9F5324"/>
<stop offset="0.11" stop-color="#D2992A"/>
<stop offset="0.475" stop-color="#F8D261"/>
<stop offset="0.735" stop-color="#F8D261"/>
<stop offset="0.93" stop-color="#DEB04B"/>
</linearGradient>
<linearGradient id="paint2_linear_10_2" x1="210" y1="122" x2="210" y2="322" gradientUnits="userSpaceOnUse">
<stop stop-color="#9F5324"/>
<stop offset="0.11" stop-color="#D2992A"/>
<stop offset="0.475" stop-color="#F8D261"/>
<stop offset="0.735" stop-color="#F8D261"/>
<stop offset="0.93" stop-color="#DEB04B"/>
</linearGradient>
<linearGradient id="paint3_linear_10_2" x1="210" y1="122" x2="210" y2="322" gradientUnits="userSpaceOnUse">
<stop stop-color="#9F5324"/>
<stop offset="0.11" stop-color="#D2992A"/>
<stop offset="0.475" stop-color="#F8D261"/>
<stop offset="0.735" stop-color="#F8D261"/>
<stop offset="0.93" stop-color="#DEB04B"/>
</linearGradient>
<linearGradient id="paint4_linear_10_2" x1="210" y1="122" x2="210" y2="322" gradientUnits="userSpaceOnUse">
<stop stop-color="#9F5324"/>
<stop offset="0.11" stop-color="#D2992A"/>
<stop offset="0.475" stop-color="#F8D261"/>
<stop offset="0.735" stop-color="#F8D261"/>
<stop offset="0.93" stop-color="#DEB04B"/>
</linearGradient>
<linearGradient id="paint5_linear_10_2" x1="210" y1="122" x2="210" y2="322" gradientUnits="userSpaceOnUse">
<stop stop-color="#9F5324"/>
<stop offset="0.11" stop-color="#D2992A"/>
<stop offset="0.475" stop-color="#F8D261"/>
<stop offset="0.735" stop-color="#F8D261"/>
<stop offset="0.93" stop-color="#DEB04B"/>
</linearGradient>
<linearGradient id="paint6_linear_10_2" x1="210" y1="122" x2="210" y2="322" gradientUnits="userSpaceOnUse">
<stop stop-color="#9F5324"/>
<stop offset="0.11" stop-color="#D2992A"/>
<stop offset="0.475" stop-color="#F8D261"/>
<stop offset="0.735" stop-color="#F8D261"/>
<stop offset="0.93" stop-color="#DEB04B"/>
</linearGradient>
<linearGradient id="paint7_linear_10_2" x1="210" y1="122" x2="210" y2="322" gradientUnits="userSpaceOnUse">
<stop stop-color="#9F5324"/>
<stop offset="0.11" stop-color="#D2992A"/>
<stop offset="0.475" stop-color="#F8D261"/>
<stop offset="0.735" stop-color="#F8D261"/>
<stop offset="0.93" stop-color="#DEB04B"/>
</linearGradient>
<linearGradient id="paint8_linear_10_2" x1="210" y1="122" x2="210" y2="322" gradientUnits="userSpaceOnUse">
<stop stop-color="#9F5324"/>
<stop offset="0.11" stop-color="#D2992A"/>
<stop offset="0.475" stop-color="#F8D261"/>
<stop offset="0.735" stop-color="#F8D261"/>
<stop offset="0.93" stop-color="#DEB04B"/>
</linearGradient>
<linearGradient id="paint9_linear_10_2" x1="210" y1="122" x2="210" y2="322" gradientUnits="userSpaceOnUse">
<stop stop-color="#9F5324"/>
<stop offset="0.11" stop-color="#D2992A"/>
<stop offset="0.475" stop-color="#F8D261"/>
<stop offset="0.735" stop-color="#F8D261"/>
<stop offset="0.93" stop-color="#DEB04B"/>
</linearGradient>
<linearGradient id="paint10_linear_10_2" x1="210" y1="122" x2="210" y2="322" gradientUnits="userSpaceOnUse">
<stop stop-color="#9F5324"/>
<stop offset="0.11" stop-color="#D2992A"/>
<stop offset="0.475" stop-color="#F8D261"/>
<stop offset="0.735" stop-color="#F8D261"/>
<stop offset="0.93" stop-color="#DEB04B"/>
</linearGradient>
<linearGradient id="paint11_linear_10_2" x1="210" y1="122" x2="210" y2="322" gradientUnits="userSpaceOnUse">
<stop stop-color="#9F5324"/>
<stop offset="0.11" stop-color="#D2992A"/>
<stop offset="0.475" stop-color="#F8D261"/>
<stop offset="0.735" stop-color="#F8D261"/>
<stop offset="0.93" stop-color="#DEB04B"/>
</linearGradient>
<linearGradient id="paint12_linear_10_2" x1="210" y1="122" x2="210" y2="322" gradientUnits="userSpaceOnUse">
<stop stop-color="#9F5324"/>
<stop offset="0.11" stop-color="#D2992A"/>
<stop offset="0.475" stop-color="#F8D261"/>
<stop offset="0.735" stop-color="#F8D261"/>
<stop offset="0.93" stop-color="#DEB04B"/>
</linearGradient>
<linearGradient id="paint13_linear_10_2" x1="210" y1="122" x2="210" y2="322" gradientUnits="userSpaceOnUse">
<stop stop-color="#9F5324"/>
<stop offset="0.11" stop-color="#D2992A"/>
<stop offset="0.475" stop-color="#F8D261"/>
<stop offset="0.735" stop-color="#F8D261"/>
<stop offset="0.93" stop-color="#DEB04B"/>
</linearGradient>
<linearGradient id="paint14_linear_10_2" x1="210" y1="122" x2="210" y2="322" gradientUnits="userSpaceOnUse">
<stop stop-color="#9F5324"/>
<stop offset="0.11" stop-color="#D2992A"/>
<stop offset="0.475" stop-color="#F8D261"/>
<stop offset="0.735" stop-color="#F8D261"/>
<stop offset="0.93" stop-color="#DEB04B"/>
</linearGradient>
<linearGradient id="paint15_linear_10_2" x1="210" y1="122" x2="210" y2="322" gradientUnits="userSpaceOnUse">
<stop stop-color="#9F5324"/>
<stop offset="0.11" stop-color="#D2992A"/>
<stop offset="0.475" stop-color="#F8D261"/>
<stop offset="0.735" stop-color="#F8D261"/>
<stop offset="0.93" stop-color="#DEB04B"/>
</linearGradient>
<linearGradient id="paint16_linear_10_2" x1="210" y1="122" x2="210" y2="322" gradientUnits="userSpaceOnUse">
<stop stop-color="#9F5324"/>
<stop offset="0.11" stop-color="#D2992A"/>
<stop offset="0.475" stop-color="#F8D261"/>
<stop offset="0.735" stop-color="#F8D261"/>
<stop offset="0.93" stop-color="#DEB04B"/>
</linearGradient>
<linearGradient id="paint17_linear_10_2" x1="1230" y1="122" x2="1230" y2="322" gradientUnits="userSpaceOnUse">
<stop stop-color="#9F5324"/>
<stop offset="0.11" stop-color="#D2992A"/>
<stop offset="0.475" stop-color="#F8D261"/>
<stop offset="0.735" stop-color="#F8D261"/>
<stop offset="0.93" stop-color="#DEB04B"/>
</linearGradient>
<linearGradient id="paint18_linear_10_2" x1="1230" y1="122" x2="1230" y2="322" gradientUnits="userSpaceOnUse">
<stop stop-color="#9F5324"/>
<stop offset="0.11" stop-color="#D2992A"/>
<stop offset="0.475" stop-color="#F8D261"/>
<stop offset="0.735" stop-color="#F8D261"/>
<stop offset="0.93" stop-color="#DEB04B"/>
</linearGradient>
<linearGradient id="paint19_linear_10_2" x1="1230" y1="122" x2="1230" y2="322" gradientUnits="userSpaceOnUse">
<stop stop-color="#9F5324"/>
<stop offset="0.11" stop-color="#D2992A"/>
<stop offset="0.475" stop-color="#F8D261"/>
<stop offset="0.735" stop-color="#F8D261"/>
<stop offset="0.93" stop-color="#DEB04B"/>
</linearGradient>
<linearGradient id="paint20_linear_10_2" x1="1230" y1="122" x2="1230" y2="322" gradientUnits="userSpaceOnUse">
<stop stop-color="#9F5324"/>
<stop offset="0.11" stop-color="#D2992A"/>
<stop offset="0.475" stop-color="#F8D261"/>
<stop offset="0.735" stop-color="#F8D261"/>
<stop offset="0.93" stop-color="#DEB04B"/>
</linearGradient>
<linearGradient id="paint21_linear_10_2" x1="1230" y1="122" x2="1230" y2="322" gradientUnits="userSpaceOnUse">
<stop stop-color="#9F5324"/>
<stop offset="0.11" stop-color="#D2992A"/>
<stop offset="0.475" stop-color="#F8D261"/>
<stop offset="0.735" stop-color="#F8D261"/>
<stop offset="0.93" stop-color="#DEB04B"/>
</linearGradient>
<linearGradient id="paint22_linear_10_2" x1="1230" y1="122" x2="1230" y2="322" gradientUnits="userSpaceOnUse">
<stop stop-color="#9F5324"/>
<stop offset="0.11" stop-color="#D2992A"/>
<stop offset="0.475" stop-color="#F8D261"/>
<stop offset="0.735" stop-color="#F8D261"/>
<stop offset="0.93" stop-color="#DEB04B"/>
</linearGradient>
<linearGradient id="paint23_linear_10_2" x1="1230" y1="122" x2="1230" y2="322" gradientUnits="userSpaceOnUse">
<stop stop-color="#9F5324"/>
<stop offset="0.11" stop-color="#D2992A"/>
<stop offset="0.475" stop-color="#F8D261"/>
<stop offset="0.735" stop-color="#F8D261"/>
<stop offset="0.93" stop-color="#DEB04B"/>
</linearGradient>
<linearGradient id="paint24_linear_10_2" x1="1230" y1="122" x2="1230" y2="322" gradientUnits="userSpaceOnUse">
<stop stop-color="#9F5324"/>
<stop offset="0.11" stop-color="#D2992A"/>
<stop offset="0.475" stop-color="#F8D261"/>
<stop offset="0.735" stop-color="#F8D261"/>
<stop offset="0.93" stop-color="#DEB04B"/>
</linearGradient>
<linearGradient id="paint25_linear_10_2" x1="1230" y1="122" x2="1230" y2="322" gradientUnits="userSpaceOnUse">
<stop stop-color="#9F5324"/>
<stop offset="0.11" stop-color="#D2992A"/>
<stop offset="0.475" stop-color="#F8D261"/>
<stop offset="0.735" stop-color="#F8D261"/>
<stop offset="0.93" stop-color="#DEB04B"/>
</linearGradient>
<linearGradient id="paint26_linear_10_2" x1="1230" y1="122" x2="1230" y2="322" gradientUnits="userSpaceOnUse">
<stop stop-color="#9F5324"/>
<stop offset="0.11" stop-color="#D2992A"/>
<stop offset="0.475" stop-color="#F8D261"/>
<stop offset="0.735" stop-color="#F8D261"/>
<stop offset="0.93" stop-color="#DEB04B"/>
</linearGradient>
<linearGradient id="paint27_linear_10_2" x1="1230" y1="122" x2="1230" y2="322" gradientUnits="userSpaceOnUse">
<stop stop-color="#9F5324"/>
<stop offset="0.11" stop-color="#D2992A"/>
<stop offset="0.475" stop-color="#F8D261"/>
<stop offset="0.735" stop-color="#F8D261"/>
<stop offset="0.93" stop-color="#DEB04B"/>
</linearGradient>
<linearGradient id="paint28_linear_10_2" x1="1230" y1="122" x2="1230" y2="322" gradientUnits="userSpaceOnUse">
<stop stop-color="#9F5324"/>
<stop offset="0.11" stop-color="#D2992A"/>
<stop offset="0.475" stop-color="#F8D261"/>
<stop offset="0.735" stop-color="#F8D261"/>
<stop offset="0.93" stop-color="#DEB04B"/>
</linearGradient>
<linearGradient id="paint29_linear_10_2" x1="1230" y1="122" x2="1230" y2="322" gradientUnits="userSpaceOnUse">
<stop stop-color="#9F5324"/>
<stop offset="0.11" stop-color="#D2992A"/>
<stop offset="0.475" stop-color="#F8D261"/>
<stop offset="0.735" stop-color="#F8D261"/>
<stop offset="0.93" stop-color="#DEB04B"/>
</linearGradient>
<linearGradient id="paint30_linear_10_2" x1="1230" y1="122" x2="1230" y2="322" gradientUnits="userSpaceOnUse">
<stop stop-color="#9F5324"/>
<stop offset="0.11" stop-color="#D2992A"/>
<stop offset="0.475" stop-color="#F8D261"/>
<stop offset="0.735" stop-color="#F8D261"/>
<stop offset="0.93" stop-color="#DEB04B"/>
</linearGradient>
<linearGradient id="paint31_linear_10_2" x1="1230" y1="122" x2="1230" y2="322" gradientUnits="userSpaceOnUse">
<stop stop-color="#9F5324"/>
<stop offset="0.11" stop-color="#D2992A"/>
<stop offset="0.475" stop-color="#F8D261"/>
<stop offset="0.735" stop-color="#F8D261"/>
<stop offset="0.93" stop-color="#DEB04B"/>
</linearGradient>
<linearGradient id="paint32_linear_10_2" x1="1230" y1="122" x2="1230" y2="322" gradientUnits="userSpaceOnUse">
<stop stop-color="#9F5324"/>
<stop offset="0.11" stop-color="#D2992A"/>
<stop offset="0.475" stop-color="#F8D261"/>
<stop offset="0.735" stop-color="#F8D261"/>
<stop offset="0.93" stop-color="#DEB04B"/>
</linearGradient>
<linearGradient id="paint33_linear_10_2" x1="1230" y1="122" x2="1230" y2="322" gradientUnits="userSpaceOnUse">
<stop stop-color="#9F5324"/>
<stop offset="0.11" stop-color="#D2992A"/>
<stop offset="0.475" stop-color="#F8D261"/>
<stop offset="0.735" stop-color="#F8D261"/>
<stop offset="0.93" stop-color="#DEB04B"/>
</linearGradient>
<linearGradient id="paint34_linear_10_2" x1="848.89" y1="569.083" x2="906.642" y2="667.284" gradientUnits="userSpaceOnUse">
<stop stop-color="#2C2020"/>
<stop offset="1" stop-color="#646464"/>
</linearGradient>
<linearGradient id="paint35_linear_10_2" x1="877.95" y1="551.391" x2="935.703" y2="649.593" gradientUnits="userSpaceOnUse">
<stop stop-color="#2C2020"/>
<stop offset="1" stop-color="#646464"/>
</linearGradient>
<linearGradient id="paint36_linear_10_2" x1="858.468" y1="554.897" x2="922.221" y2="663.3" gradientUnits="userSpaceOnUse">
<stop stop-color="#241503"/>
<stop offset="1" stop-color="#454545"/>
</linearGradient>
<linearGradient id="paint37_linear_10_2" x1="562.654" y1="561.845" x2="501.469" y2="636.213" gradientUnits="userSpaceOnUse">
<stop stop-color="#2C2020"/>
<stop offset="1" stop-color="#4E2120"/>
</linearGradient>
<linearGradient id="paint38_linear_10_2" x1="599.196" y1="595.119" x2="538.011" y2="669.487" gradientUnits="userSpaceOnUse">
<stop stop-color="#2C2020"/>
<stop offset="1" stop-color="#4E2120"/>
</linearGradient>
<linearGradient id="paint39_linear_10_2" x1="599.878" y1="556.059" x2="548.814" y2="618.126" gradientUnits="userSpaceOnUse">
<stop/>
<stop offset="0.566719" stop-color="#450704"/>
</linearGradient>
</defs>
</svg>
