<svg width="536" height="715" viewBox="0 0 536 715" fill="none" xmlns="http://www.w3.org/2000/svg">
<path d="M364.327 231.51C364.327 231.51 422.441 323.479 416.846 342.032C411.251 360.585 385.91 375.829 381.27 378.381C376.63 380.933 353.645 398.697 337.394 378.381C321.143 358.065 356.862 331.122 356.862 331.122L342.054 303.899C253.362 439.925 239.635 510.815 248.589 669.551C248.589 669.551 249.814 702.966 213.934 702.955C178.055 702.943 181.77 669.551 181.77 669.551L181.77 438.778C146.972 474.731 128.262 492.525 104.432 497.555L236.215 248.837L104.432 281.628C104.432 281.628 79.3122 285.953 74.1153 261.83C68.9183 237.706 90.8202 231.51 90.8202 231.51L298.085 182.636L312.934 188.204L248.589 350.304L298.085 363.296L364.327 231.51Z" fill="black"/>
<path d="M337.394 225.632L334.895 218.831L326.807 221.917L264.678 337.927L286.333 344.12L337.394 225.632Z" fill="black"/>
<path d="M312.934 188.204L248.589 350.304L298.085 363.296L364.327 231.51L356.862 222.685L342.054 238.316L337.394 225.632L286.333 344.12L264.678 337.927L326.807 221.917L304.895 230.276L320.83 194.23L312.934 188.204Z" fill="white"/>
<path fill-rule="evenodd" clip-rule="evenodd" d="M342.964 213.55L328.682 184.52L326.807 180.709L320.83 194.23L304.895 230.276L326.807 221.917L334.895 218.831L337.394 225.632L342.054 238.316L356.862 222.685L364.327 214.805L353.645 214.178L342.964 213.55ZM342.964 213.55L343.876 215.405L334.895 218.831L332.735 212.949L342.964 213.55Z" fill="black"/>
<path d="M334.895 218.831L343.876 215.405L342.964 213.55L332.735 212.949L334.895 218.831Z" fill="black"/>
<path d="M328.682 184.52L342.964 213.55L353.645 214.178L368.124 201.275L342.417 169.063L328.682 184.52Z" fill="#FFDFB9"/>
<path d="M406.775 103.017C371.143 96.0233 346.141 134.603 330.769 146.107C322.621 152.204 307.657 137.854 292.553 137.018C309.43 128.551 330.72 146.341 350.884 113.4C375.642 72.9555 401.744 33.965 425.87 53.8146C463.37 84.6669 468.92 115.215 406.775 103.017Z" fill="url(#paint0_linear_111_130)"/>
<path d="M433.158 129.687C446.887 163.303 413.847 195.271 405.52 212.572C401.108 221.741 418.072 233.661 421.803 248.32C426.859 230.128 405.301 212.664 433.739 186.531C468.655 154.445 501.886 121.319 477.759 101.469C440.26 70.6168 409.215 71.057 433.158 129.687Z" fill="url(#paint1_linear_111_130)"/>
<path d="M469.474 176.22C439.086 213.155 373.821 209.667 355.733 194.786C323.303 168.105 321.647 116.534 352.034 79.5989C382.422 42.6642 433.345 34.3521 465.775 61.0334C498.205 87.7146 499.861 139.286 469.474 176.22Z" fill="#FFDFB9"/>
<path d="M357.395 155.586L367.109 181.225L394.139 185.817" stroke="#EB576D" stroke-width="5" stroke-linecap="round"/>
<path d="M454.771 171.258C454.771 171.258 450.596 152.427 442.041 144.111C434.761 137.034 417.84 132.154 417.84 132.154C417.84 132.154 434.07 138.071 441.098 145.257C448.998 153.335 454.771 171.258 454.771 171.258Z" fill="#E3C199"/>
<path d="M473.002 60.5267C474.988 61.7489 476.966 63.1558 478.919 64.7625C508.805 89.3514 510.678 139.678 487.334 168.05C479.004 178.174 444.204 202.243 431.514 205.386C441.011 190.533 431.414 189.513 414.576 176.964C399.87 166.004 420.417 132.575 413.778 119.6C408.5 109.285 407.635 94.2633 419.835 79.4339C409.056 92.5354 391.615 110.357 364.496 100.164C352.611 97.3686 336.7 120.734 330.19 128.646C333.845 108.521 342.174 76.1454 347.56 70.0873C348.629 68.8852 355.053 57.1252 356.432 55.4488C379.775 27.0759 433.942 26.2371 463.733 50.7474C467.596 53.9255 470.655 57.2362 473.002 60.5267Z" fill="url(#paint2_linear_111_130)"/>
<rect x="357.995" y="115.962" width="46.7803" height="18.6537" transform="rotate(39.4453 357.995 115.962)" fill="#BEFFFF" fill-opacity="0.9" stroke="black" stroke-width="5"/>
<rect x="410.629" y="157.327" width="47.48" height="18.6537" transform="rotate(39.4453 410.629 157.327)" fill="#BEFFFF" fill-opacity="0.9" stroke="black" stroke-width="5"/>
<path d="M455.746 185.573C455.746 185.573 456.59 174.191 453.17 166.901C451.175 162.648 442.521 155.075 439.027 151.87C431.708 145.155 420.554 145.138 420.554 145.138C420.554 145.138 432.174 153.311 439.157 160.148C447.007 167.834 455.746 185.573 455.746 185.573Z" fill="black"/>
<path d="M355.654 105.278C355.654 105.278 366.632 102.182 374.453 104.081C379.016 105.189 388.158 112.165 391.994 114.951C400.029 120.789 402.271 131.722 402.271 131.722C402.271 131.722 391.95 121.958 383.861 116.474C374.768 110.31 355.654 105.278 355.654 105.278Z" fill="black"/>
<defs>
<linearGradient id="paint0_linear_111_130" x1="423.554" y1="51.9089" x2="328.917" y2="166.936" gradientUnits="userSpaceOnUse">
<stop stop-color="#2C2020"/>
<stop offset="1" stop-color="#4E2120"/>
</linearGradient>
<linearGradient id="paint1_linear_111_130" x1="480.076" y1="103.375" x2="385.439" y2="218.402" gradientUnits="userSpaceOnUse">
<stop stop-color="#2C2020"/>
<stop offset="1" stop-color="#4E2120"/>
</linearGradient>
<linearGradient id="paint2_linear_111_130" x1="481.13" y1="42.9599" x2="402.147" y2="138.961" gradientUnits="userSpaceOnUse">
<stop/>
<stop offset="0.566719" stop-color="#450704"/>
</linearGradient>
</defs>
</svg>
