<svg width="1258" height="628" viewBox="0 0 1258 628" fill="none" xmlns="http://www.w3.org/2000/svg">
<path d="M50 47.5H47.5V50V585V587.5H50H1217H1219.5V585V50V47.5H1217H50Z" fill="white" fill-opacity="0.8" stroke="#E3B750" stroke-width="5"/>
<path d="M122.646 87.6216C122.646 87.6216 115.312 92.9482 107.872 92.6282C95.3289 92.0887 79.1621 78.1641 79.1621 78.1641C79.1621 78.1641 90.9614 81.1069 98.6738 81.2238C104.576 81.3133 109.884 78.8417 115.398 80.9454C119.722 82.5949 122.646 87.6216 122.646 87.6216Z" fill="#E3B750"/>
<path d="M86.9531 123.504C86.9531 123.504 92.2909 116.186 91.9702 108.762C91.4296 96.2444 77.476 80.1109 77.476 80.1109C77.476 80.1109 80.425 91.8859 80.5421 99.5823C80.6318 105.473 78.155 110.769 80.2632 116.272C81.9161 120.587 86.9531 123.504 86.9531 123.504Z" fill="#E3B750"/>
<path d="M109.824 105.145C109.824 105.145 110.94 107.099 111.217 108.483C111.495 109.868 111.217 112.099 111.217 112.099C111.217 112.099 108.156 112.353 106.479 111.543C105.499 111.07 104.249 109.874 104.249 109.874C104.249 109.874 103.824 111.76 102.855 112.099C102.342 112.279 102 112.176 101.461 112.099C100.78 112.002 100.624 111.947 100.068 111.543C99.037 110.795 98.7786 109.418 98.3951 108.205C97.8548 106.497 98.1157 105.736 97.5591 104.033C95.7881 98.6129 90.0331 91.5154 90.0331 91.5154L100.625 103.198C100.625 103.198 103.013 106.065 105.085 107.093C105.918 107.506 107.315 107.927 107.315 107.927C107.315 107.927 106.967 106.169 106.479 105.145C105.32 102.717 101.461 100.417 101.461 100.417L91.1479 90.9591C91.1479 90.9591 98.2657 96.6854 103.691 98.4695C106.024 99.2366 108.09 98.1246 109.824 99.8603C110.549 100.586 110.976 101.089 111.217 102.086C111.396 102.825 111.562 103.355 111.217 104.033C110.902 104.653 109.824 105.145 109.824 105.145Z" fill="#E3B750"/>
<path d="M114.283 32.2669L115.673 31.1114C116.936 30.0607 118.529 29.4853 120.174 29.4853C121.427 29.4853 122.658 29.8197 123.738 30.4539L124.735 31.0389C126.1 31.8404 127.203 33.0193 127.912 34.4332C128.481 35.5696 128.778 36.8226 128.778 38.0932V38.6807C128.778 40.4944 128.315 42.2783 127.432 43.8638L127.287 44.1238C126.433 45.6575 125.248 46.9823 123.818 48.0021L121.944 49.3371C120.754 50.1856 119.39 50.7611 117.951 51.0222C117.365 51.1285 116.771 51.182 116.176 51.182H110.945C108.911 51.182 106.891 50.8415 104.97 50.1747C102.655 49.371 100.526 48.1083 98.712 46.4626L97.5699 45.4265C96.0888 44.0827 94.8698 42.4769 93.9746 40.6902C92.8489 38.4435 92.2628 35.9661 92.2628 33.4543V30.8469C92.2628 28.2928 92.7433 25.7615 93.6791 23.3843C94.766 20.6235 96.4428 18.1323 98.5929 16.0841L99.0645 15.6349C100.654 14.1204 102.45 12.8369 104.399 11.8223L104.515 11.7615C106.74 10.6033 109.131 9.79546 111.603 9.36646L111.996 9.29822C113.518 9.03404 115.06 8.90125 116.605 8.90125H118.513C121.611 8.90125 124.681 9.49115 127.557 10.6393C129.294 11.3327 130.946 12.2236 132.478 13.2942L134.225 14.5148C135.237 15.2217 136.186 16.0154 137.059 16.8871C138.591 18.4155 139.878 20.1691 140.878 22.0868L141.936 24.1172C142.639 25.4681 143.226 26.8768 143.689 28.3278C144.521 30.9382 144.945 33.6612 144.945 36.4005V37.9736C144.945 41.3764 144.346 44.7987 143.206 48.0056C142.333 50.4602 141.123 52.8218 139.633 54.9599C138.163 57.0681 136.422 58.974 134.453 60.6282L134.168 60.8674C132.807 62.0116 131.352 63.0408 129.82 63.9445L128.575 64.6786C126.854 65.6932 125.058 66.5748 123.203 67.3154L126.189 69.5005C126.98 70.0791 127.662 70.7918 128.206 71.606C129.124 72.98 129.614 74.5944 129.614 76.2458V76.6829C129.614 78.2055 129.259 79.7073 128.576 81.0692L127.384 83.4489L125.383 81.3192C123.948 79.7914 122.188 78.6043 120.232 77.8452C118.876 77.319 117.446 77.0064 115.994 76.9186L108.987 76.4948L98.2819 75.2853C95.5736 74.9794 92.8916 74.4757 90.2572 73.7782L86.0796 72.6722C82.4066 71.6998 78.8429 70.3551 75.4441 68.6592L72.4587 67.1696C68.9469 65.4173 65.6304 63.2997 62.5645 60.8521L60.9059 59.5279C58.5859 57.6757 56.4181 55.6415 54.423 53.4445L53.6876 52.6349C50.7969 49.4517 48.2853 45.9451 46.2031 42.1852L43.4834 37.2739L49.3369 44.2279L53.7968 48.6785L59.6503 53.1291L64.141 56.1765C65.7899 57.2954 67.5313 58.2718 69.3466 59.0952L70.3452 59.5482C71.9446 60.2737 73.6167 60.8273 75.3335 61.1998L77.4811 61.6656C78.5948 61.9073 79.7396 61.9727 80.8737 61.8595L81.0288 61.8441C83.4267 61.6048 85.6678 60.5449 87.3718 58.8444L87.8278 58.3895C88.1813 58.0366 88.4862 57.6384 88.7343 57.2051C89.22 56.3569 89.4755 55.3969 89.4755 54.4199V53.4461C89.4755 52.6915 89.2781 51.95 88.903 51.2949C88.5469 50.673 88.042 50.1488 87.4333 49.7692L86.1305 48.9567L88.9908 47.5295C89.3129 47.3688 89.6517 47.2438 90.001 47.1566C90.3924 47.059 90.7945 47.0095 91.198 47.0095H93.0403C94.3509 47.0095 95.6321 47.3967 96.7227 48.1222L97.5927 48.882C98.4946 49.6695 99.2792 50.5816 99.9226 51.5906L100.349 52.2594C100.717 52.8362 100.999 53.4629 101.188 54.1203C101.369 54.7545 101.461 55.4109 101.461 56.0704V56.3653C101.461 58.0686 100.988 59.7386 100.093 61.1892L99.7731 61.7081C99.4127 62.2926 99 62.8433 98.5399 63.3534L98.0674 63.8773C97.1745 64.8674 96.1608 65.7421 95.0502 66.481L96.9838 66.7565C99.5938 67.1286 102.227 67.3154 104.864 67.3154H107.323C109.357 67.3154 111.385 67.115 113.379 66.717C115.094 66.3748 116.776 65.8879 118.408 65.2615L120.789 64.3475C122.396 63.7308 123.955 62.9967 125.454 62.1512L126.729 61.4324C128.643 60.3525 130.402 59.0183 131.957 57.4664C133.363 56.0637 134.591 54.4942 135.614 52.7932L136.19 51.8352C137.007 50.4753 137.699 49.0441 138.257 47.5592C139.362 44.6205 139.927 41.5076 139.927 38.3691V34.4067C139.927 32.9855 139.753 31.5698 139.407 30.191C139.013 28.6157 138.399 27.1032 137.583 25.6979L137.273 25.1624C136.261 23.4182 134.992 21.836 133.508 20.469C132.586 19.6203 131.587 18.8595 130.524 18.1964L129.54 17.5823C128.297 16.8072 126.934 16.2437 125.506 15.9149C124.531 15.6904 123.534 15.5771 122.534 15.5771H118.657C117.234 15.5771 115.818 15.7697 114.448 16.1497L114.177 16.2247C112.406 16.7156 110.747 17.5429 109.29 18.6611C108.349 19.3839 107.501 20.2211 106.767 21.1533L105.78 22.4066C105.133 23.2287 104.582 24.1223 104.139 25.0698C103.293 26.8788 102.855 28.8508 102.855 30.8472V33.739C102.855 34.7878 103.056 35.827 103.446 36.8009C103.793 37.6663 104.284 38.4666 104.899 39.168L105.068 39.3604C105.634 40.0064 106.284 40.5748 106.999 41.0509L108.43 42.0026C109.52 42.7281 110.802 43.1152 112.112 43.1152H112.806C113.777 43.1152 114.736 42.8895 115.605 42.4559C116.206 42.1557 116.756 41.7606 117.231 41.2859L118.012 40.5064C118.128 40.3913 118.235 40.2683 118.333 40.1381C118.78 39.5428 119.022 38.8187 119.022 38.0746V35.8932C119.022 35.1585 118.822 34.4375 118.443 33.8075C118.272 33.5233 118.067 33.2611 117.832 33.0267L117.44 32.6355C117.197 32.3931 116.901 32.2105 116.575 32.1021C116.349 32.027 116.113 31.9887 115.875 31.9887H115.677C115.308 31.9887 114.941 32.0482 114.591 32.1647L114.283 32.2669Z" fill="#E3B750"/>
<path d="M215.745 52.851L217.134 54.0064C218.397 55.0571 219.99 55.6326 221.635 55.6326C222.888 55.6326 224.119 55.2982 225.199 54.6639L226.196 54.0789C227.561 53.2775 228.665 52.0985 229.373 50.6847C229.943 49.5483 230.239 48.2952 230.239 47.0247V46.4372C230.239 44.6234 229.776 42.8396 228.893 41.254L228.748 40.994C227.895 39.4603 226.709 38.1355 225.279 37.1158L223.406 35.7808C222.215 34.9322 220.852 34.3568 219.412 34.0956C218.827 33.9894 218.232 33.9359 217.637 33.9359H212.406C210.372 33.9359 208.353 34.2763 206.432 34.9431C204.116 35.7469 201.987 37.0095 200.173 38.6553L199.031 39.6914C197.55 41.0351 196.331 42.641 195.436 44.4277C194.31 46.6743 193.724 49.1517 193.724 51.6636V54.2709C193.724 56.825 194.204 59.3564 195.14 61.7335C196.227 64.4944 197.904 66.9856 200.054 69.0338L200.526 69.483C202.116 70.9975 203.911 72.2809 205.86 73.2955L205.977 73.3563C208.201 74.5144 210.592 75.3224 213.064 75.7514L213.457 75.8197C214.979 76.0839 216.521 76.2166 218.066 76.2166H219.974C223.073 76.2166 226.142 75.6267 229.018 74.4785C230.755 73.7851 232.407 72.8943 233.939 71.8237L235.687 70.6031C236.699 69.8962 237.647 69.1024 238.52 68.2308C240.052 66.7024 241.34 64.9488 242.339 63.0311L243.397 61.0007C244.101 59.6497 244.687 58.241 245.15 56.79C245.982 54.1796 246.406 51.4566 246.406 48.7173V47.1442C246.406 43.7415 245.807 40.3191 244.667 37.1122C243.794 34.6576 242.584 32.2961 241.094 30.158C239.624 28.0497 237.883 26.1439 235.914 24.4896L235.63 24.2504C234.268 23.1063 232.814 22.0771 231.281 21.1734L230.466 20.6927C228.46 19.5095 226.361 18.4892 224.191 17.6417L221.041 16.4116L223.685 13.7728C224.151 13.3078 224.57 12.7982 224.935 12.2511L224.965 12.2066C226.041 10.5954 226.615 8.70238 226.615 6.76599C226.615 5.24331 226.26 3.74156 225.578 2.37964L224.385 0L221.432 3.12079C220.248 4.37162 218.889 5.44479 217.397 6.30682C215.386 7.46892 213.166 8.22794 210.863 8.54132L194.003 10.8483L190.72 11.7419C184.773 13.3603 179.137 15.9515 174.04 19.4102L171.144 21.3754C168.918 22.8857 166.805 24.5549 164.821 26.3698L162.61 28.3926C159.392 31.3362 156.532 34.6467 154.088 38.2561L153.664 38.8821C151.758 41.6983 150.113 44.6829 148.753 47.7985L146.06 53.9636L150.798 47.0095L154.701 42.0026L156.169 40.4513C158.345 38.1518 160.714 36.0416 163.25 34.1439L166.129 31.9887L168.815 30.3569C171.282 28.8583 173.974 27.7641 176.789 27.116C178.781 26.6571 180.819 26.4255 182.864 26.4255H184.247L187.401 28.8982C187.895 29.2859 188.31 29.7654 188.622 30.3103C189.043 31.0456 189.264 31.8778 189.264 32.7247V33.897C189.264 34.6516 189.067 35.3931 188.692 36.0483C188.336 36.6702 187.831 37.1943 187.222 37.5739L185.919 38.3865L188.78 39.8137C189.102 39.9744 189.44 40.0994 189.79 40.1865C190.181 40.2842 190.583 40.3336 190.987 40.3336H192.829C194.14 40.3336 195.421 39.9465 196.511 39.2209L197.382 38.4612C198.284 37.6736 199.068 36.7616 199.711 35.7526L200.138 35.0837C200.506 34.507 200.788 33.8802 200.976 33.2228C201.158 32.5886 201.25 31.9323 201.25 31.2727V30.9778C201.25 29.2745 200.776 27.6046 199.882 26.1539L199.02 24.7565C197.936 22.954 196.28 21.565 194.314 20.8104L193.724 20.584L195.512 20.1236C200.063 18.9518 204.743 18.3588 209.442 18.3588H211.842L212.427 18.4171C215.739 18.7476 218.991 19.5193 222.098 20.7117L222.251 20.7703C223.858 21.3871 225.417 22.1211 226.916 22.9666L228.19 23.6855C230.105 24.7654 231.864 26.0995 233.419 27.6514C234.824 29.0541 236.052 30.6236 237.075 32.3246L237.651 33.2827C238.469 34.6425 239.161 36.0738 239.719 37.5587C240.823 40.4973 241.389 43.6103 241.389 46.7488V50.7112C241.389 52.1323 241.214 53.5481 240.869 54.9268C240.474 56.5022 239.86 58.0146 239.045 59.42L238.734 59.9555C237.722 61.6997 236.453 63.2819 234.969 64.6489C234.048 65.4975 233.049 66.2583 231.986 66.9214L231.001 67.5356C229.758 68.3106 228.395 68.8741 226.967 69.2029C225.993 69.4274 224.995 69.5407 223.995 69.5407H220.118C218.696 69.5407 217.28 69.3481 215.909 68.9681L215.638 68.8932C213.868 68.4023 212.208 67.575 210.751 66.4567C209.81 65.7339 208.962 64.8967 208.228 63.9645L207.242 62.7113C206.594 61.8892 206.044 60.9956 205.601 60.0481C204.755 58.2391 204.316 56.267 204.316 54.2707V51.3789C204.316 50.33 204.517 49.2908 204.907 48.317C205.254 47.4516 205.745 46.6512 206.36 45.9498L206.529 45.7574C207.095 45.1115 207.745 44.5431 208.461 44.067L209.891 43.1152C210.982 42.3897 212.263 42.0026 213.573 42.0026H214.267C215.239 42.0026 216.197 42.2284 217.066 42.662C217.668 42.9622 218.217 43.3573 218.693 43.832L219.474 44.6115C219.589 44.7265 219.696 44.8496 219.794 44.9798C220.241 45.5751 220.483 46.2991 220.483 47.0433V49.2245C220.483 49.9593 220.283 50.6803 219.904 51.3103C219.733 51.5945 219.528 51.8568 219.293 52.0912L218.901 52.4824C218.658 52.7248 218.362 52.9073 218.036 53.0157C217.811 53.0908 217.575 53.1291 217.337 53.1291H217.138C216.769 53.1291 216.402 53.0697 216.052 52.9532L215.745 52.851Z" fill="#E3B750"/>
<path d="M321.108 49.513V49.072C321.108 47.9191 320.703 46.8027 319.964 45.917C319.798 45.7185 319.617 45.5333 319.422 45.3631L319.328 45.2812C318.14 44.2436 316.614 43.6716 315.035 43.6716H314.907C313.677 43.6716 312.472 44.0165 311.429 44.6671C311.007 44.9297 310.618 45.2393 310.266 45.5898L309.791 46.0642C308.979 46.8745 308.303 47.8103 307.789 48.8353C307.563 49.2865 307.37 49.7532 307.21 50.2318L307.12 50.5018C306.785 51.5051 306.614 52.5556 306.614 53.6131C306.614 54.9455 306.885 56.2641 307.411 57.4888L307.45 57.5797L307.706 58.1558C308.276 59.4354 309.009 60.6367 309.885 61.7302L310.11 62.0111C310.566 62.5791 311.071 63.1058 311.619 63.5848L312.164 64.0607C312.735 64.5587 313.377 64.9682 314.069 65.2753C315.035 65.7034 316.079 65.9246 317.135 65.9246H320.566C322.206 65.9246 323.823 65.5437 325.289 64.812C327.324 63.5198 329.173 61.958 330.787 60.1691L330.864 60.0832L332.239 58.3193C332.623 57.8269 332.971 57.3079 333.281 56.7662L333.599 56.2114C333.819 55.8265 334.001 55.4207 334.141 55.0001C334.371 54.3135 334.488 53.5947 334.488 52.871V48.5002C334.488 47.6949 334.389 46.8927 334.193 46.1114C334.018 45.4142 333.768 44.7381 333.446 44.0953L332.815 42.8371L331.568 40.5253C331.1 39.6578 330.549 38.8371 329.924 38.0745C328.885 36.8071 327.65 35.7132 326.265 34.834L325.289 34.2141C323.805 33.4732 322.269 32.8385 320.694 32.3146L319.715 31.9887L317.485 31.4324L314.976 31.1542H307.45L304.662 31.4324L302.154 31.9887L299.088 33.1014L295.464 34.2141L296.3 31.4324L296.322 31.3579C296.677 30.1155 296.858 28.8298 296.858 27.5377V27.3525C296.858 25.6388 296.518 23.942 295.857 22.3602C295.596 21.7334 295.285 21.128 294.928 20.5497L293.806 18.7303C293.426 18.1128 292.994 17.5282 292.515 16.9825C291.698 16.0504 290.751 15.2395 289.704 14.5746L289.632 14.5288C288.692 13.9319 287.682 13.4522 286.625 13.1006L285.708 12.7955C284.414 12.4264 283.074 12.2391 281.728 12.2391H281.326C279.98 12.2391 278.641 12.4264 277.346 12.7955L276.647 13.0569C275.635 13.4358 274.699 13.9941 273.885 14.7047C273.223 15.2832 272.649 15.9557 272.183 16.7006L272.056 16.9029C271.681 17.5011 271.367 18.1351 271.119 18.7957L270.656 20.0277L270.453 20.7359C270.218 21.5579 270.099 22.4086 270.099 23.2635V23.7071C270.099 24.4021 270.211 25.0926 270.431 25.752C270.581 26.1996 270.779 26.6296 271.022 27.0342L271.19 27.3135C271.391 27.6482 271.618 27.9668 271.869 28.2667C272.54 29.0704 273.37 29.7268 274.308 30.1946L274.349 30.215C274.859 30.4695 275.395 30.6676 275.949 30.8056L276.535 30.9518C277.074 31.0863 277.627 31.1542 278.182 31.1542L278.005 29.9126C277.937 29.4429 277.903 28.969 277.903 28.4945V27.6943C277.903 27.4058 277.939 27.1184 278.009 26.8386C278.123 26.3823 278.328 25.9535 278.611 25.5773L278.802 25.3222C278.946 25.1308 279.104 24.9497 279.273 24.7805L279.316 24.7377C279.673 24.3817 280.085 24.0854 280.536 23.8602C281.188 23.535 281.907 23.3657 282.635 23.3657H283.24C284.13 23.3657 285.008 23.5724 285.803 23.9695C286.111 24.123 286.404 24.3038 286.679 24.5096L286.697 24.5231C287.151 24.8624 287.553 25.2644 287.893 25.7168L288.361 26.3387C288.818 26.9477 289.161 27.6352 289.37 28.3672C289.53 28.9244 289.611 29.5011 289.611 30.0806V32.2701C289.611 33.1856 289.424 34.0916 289.063 34.9331C288.871 35.3796 288.632 35.8042 288.349 36.1995L288.164 36.4574C287.644 37.1836 287.026 37.8347 286.328 38.3923L285.912 38.7241C285.036 39.4235 284.077 40.0116 283.055 40.4749L281.527 41.1681L281.099 41.3285C279.907 41.7743 278.646 42.0026 277.373 42.0026C276.43 42.0026 275.491 41.8771 274.581 41.6295L272.886 41.1681L271.21 40.5706C269.73 40.0432 268.309 39.363 266.971 38.5412C265.899 37.8829 264.884 37.1363 263.937 36.3091L263.13 35.6049L259.228 31.4324L253.653 25.591L248.357 21.4185L245.509 19.6591C243.511 18.425 241.384 17.4138 239.165 16.6436C237.122 15.9344 235.012 15.4334 232.868 15.1481L231.911 15.0208H226.615L230.797 16.1335L235.256 17.2461C238.223 18.3562 241.077 19.745 243.78 21.3937L244.733 21.9749L249.193 25.591L251.357 27.7499C252.514 28.9051 253.582 30.1469 254.55 31.4644C255.623 32.924 256.57 34.4716 257.381 36.0905L258.746 38.8154C259.067 39.4555 259.331 40.1219 259.538 40.8073C259.887 41.9688 260.064 43.175 260.064 44.3876V51.8655C260.064 52.7052 259.969 53.5422 259.779 54.3604L259.615 55.0718C259.36 56.1742 258.867 57.2078 258.171 58.1008C257.58 58.8595 256.853 59.5024 256.027 59.9969L254.799 60.7322C254.593 60.8556 254.377 60.9624 254.154 61.0515L253.927 61.1422C253.381 61.36 252.899 61.71 252.522 62.1605C251.992 62.7954 251.702 63.5956 251.702 64.4219V65.0894C251.702 66.1753 252.042 67.2341 252.674 68.1178C252.954 68.5082 253.286 68.8582 253.661 69.158L253.769 69.2434C254.245 69.624 254.786 69.9175 255.365 70.1102L255.408 70.1244C255.907 70.2905 256.43 70.3752 256.957 70.3752C257.717 70.3752 258.467 70.1985 259.147 69.8591L259.228 69.8189C260.523 69.0804 261.714 68.1729 262.768 67.1204L263.13 66.7591L263.924 65.7686C264.87 64.5884 265.55 63.2184 265.918 61.7521L266.052 61.1495C266.333 59.8861 266.475 58.5958 266.475 57.3016V50.5836C266.475 48.7773 266.095 46.9912 265.36 45.3406L264.245 43.3934L262.294 40.0554L263.967 41.1681L265.36 42.0026L267.59 43.1152L269.188 43.8399C270.165 44.2833 271.177 44.6478 272.213 44.9297C273.218 45.2032 274.242 45.3983 275.278 45.5131L276.231 45.6187H280.691L281.09 45.5745C282.489 45.4194 283.857 45.0594 285.151 44.5061C286.447 43.9515 287.678 43.2537 288.819 42.4256L290.168 41.4463L292.352 39.663C292.936 39.1861 293.438 38.6171 293.838 37.9785L293.864 37.9366C294.368 37.1331 295.037 36.4456 295.827 35.92C296.142 35.7103 296.474 35.5277 296.821 35.3741L297.644 35.0089C298.42 34.6649 299.219 34.3784 300.037 34.1517L303.826 33.1014C305.68 32.7314 307.566 32.545 309.456 32.545H313.338C314.056 32.545 314.772 32.6234 315.473 32.7789C316.437 32.9926 317.363 33.35 318.22 33.8389L318.878 34.2141L321.944 36.1612L323.951 37.8298C324.841 38.5699 325.654 39.3976 326.378 40.3004L326.916 40.9722C327.317 41.4723 327.664 42.0133 327.951 42.5861C328.584 43.8488 328.913 45.241 328.913 46.6526V47.389C328.913 48.4286 328.761 49.4625 328.461 50.4582C328.206 51.3083 327.845 52.1233 327.388 52.8843L326.404 54.5199C325.669 55.8044 324.677 56.925 323.491 57.8126L323.059 58.136L321.925 58.783C321.382 59.0924 320.805 59.3353 320.204 59.5066L319.961 59.5758C319.428 59.7279 318.876 59.8051 318.321 59.8051C317.766 59.8051 317.214 59.7279 316.68 59.5758L316.535 59.5344C315.871 59.3451 315.241 59.0541 314.666 58.6719C314.132 58.3165 313.652 57.8861 313.241 57.3939L312.694 56.739C312.543 56.558 312.406 56.3656 312.285 56.1636C311.857 55.4521 311.631 54.638 311.631 53.8082V51.7498C311.631 51.557 311.647 51.3626 311.679 51.1724C311.826 50.2919 312.309 49.4923 313.025 48.9567L313.445 48.6212C314.092 48.1045 314.792 47.6575 315.533 47.2877L315.556 47.2786C316.441 46.9252 317.423 46.8965 318.328 47.1973C318.509 47.2575 318.685 47.3304 318.856 47.4155L318.882 47.4288C319.431 47.7026 319.917 48.0869 320.31 48.5573L321.108 49.513Z" fill="#E3B750"/>
<path d="M31.2188 114.603L30.061 115.99C29.0081 117.251 28.4314 118.84 28.4314 120.481C28.4314 121.732 28.7666 122.96 29.4021 124.038L29.9883 125.033C30.7914 126.395 31.9729 127.497 33.3896 128.204C34.5284 128.772 35.7841 129.068 37.0573 129.068H37.6459C39.4634 129.068 41.251 128.605 42.8398 127.724L43.1005 127.58C44.6373 126.728 45.9647 125.545 46.9866 124.118L48.3243 122.248C49.1746 121.061 49.7514 119.7 50.0131 118.263C50.1196 117.679 50.1731 117.086 50.1731 116.492V111.271C50.1731 109.242 49.832 107.227 49.1638 105.31C48.3584 102.999 47.0931 100.874 45.444 99.0641L44.4058 97.9244C43.0592 96.4463 41.45 95.2297 39.6595 94.3364C37.4082 93.213 34.9258 92.6282 32.4087 92.6282H29.7959C27.2366 92.6282 24.7 93.1076 22.3179 94.0415C19.5513 95.1261 17.0548 96.7996 15.0024 98.9453L14.5524 99.4158C13.0347 101.002 11.7485 102.795 10.7318 104.739L10.671 104.856C9.51043 107.075 8.7009 109.461 8.271 111.928L8.20251 112.32C7.93779 113.839 7.80469 115.378 7.80469 116.92V118.824C7.80469 121.916 8.39581 124.979 9.54639 127.85C10.2412 129.583 11.1338 131.231 12.2067 132.76L13.4298 134.504C14.1382 135.514 14.9337 136.46 15.8071 137.332C17.3387 138.86 19.0959 140.145 21.0176 141.142L23.0521 142.198C24.4059 142.901 25.8176 143.486 27.2716 143.948C29.8874 144.778 32.616 145.201 35.3611 145.201H36.9374C40.3472 145.201 43.7768 144.604 46.9902 143.466C49.45 142.595 51.8163 141.388 53.9589 139.9C56.0715 138.434 57.9812 136.696 59.6389 134.731L59.8787 134.447C61.0252 133.088 62.0566 131.637 62.9622 130.108L63.6978 128.865C64.7144 127.148 65.5979 125.356 66.3401 123.504L68.5297 126.484C69.1095 127.273 69.8236 127.954 70.6394 128.497C72.0163 129.413 73.6341 129.902 75.2889 129.902H75.7269C77.2528 129.902 78.7577 129.548 80.1224 128.867L82.507 127.677L80.3728 125.68C78.8418 124.248 77.6522 122.491 76.8916 120.539C76.3643 119.186 76.0511 117.76 75.9631 116.311L75.5385 109.318L74.3265 98.6348C74.0199 95.9322 73.5152 93.2556 72.8163 90.6267L71.7079 86.4579C70.7334 82.7925 69.386 79.2362 67.6865 75.8444L66.1938 72.8651C64.4379 69.3605 62.316 66.0509 59.8633 62.9913L58.5364 61.3362C56.6804 59.021 54.6418 56.8576 52.4403 54.8666L51.629 54.1328C48.4393 51.2481 44.9253 48.7418 41.1576 46.6639L36.2361 43.9498C36.2361 43.9498 40.6038 47.3736 43.2047 49.7911C45.007 51.4663 47.6646 54.2418 47.6646 54.2418C47.6646 54.2418 50.4542 57.749 52.1243 60.0832C53.3566 61.8055 54.0568 62.9191 55.178 64.5646C56.2992 66.21 57.2777 67.948 58.1028 69.7595C58.9279 71.5709 57.8296 69.1598 58.5566 70.7559C59.2836 72.352 59.8385 74.0207 60.2117 75.7339C60.5849 77.4472 60.6786 77.8771 60.6786 77.8771C60.9207 78.9885 60.9862 80.131 60.8728 81.2628C60.7594 82.3945 60.8573 81.4175 60.8573 81.4175C60.6175 83.8104 59.5555 86.0469 57.8514 87.7474L57.3955 88.2024C57.042 88.5552 56.6429 88.8594 56.2087 89.107C55.3587 89.5917 54.3968 89.8466 53.4178 89.8466H52.4419C51.6857 89.8466 50.9428 89.6497 50.2863 89.2753C49.6631 88.92 49.1378 88.416 48.7574 87.8087L47.9431 86.5087L46.5131 89.363C46.352 89.6844 46.2267 90.0225 46.1394 90.3711C46.0415 90.7617 45.9921 91.1629 45.9921 91.5656V93.4041C45.9921 94.712 46.38 95.9906 47.1071 97.0789L47.8683 97.9471C48.6575 98.8472 49.5715 99.6301 50.5826 100.272L51.2529 100.698C51.8309 101.065 52.4588 101.347 53.1176 101.534C53.7531 101.716 54.4108 101.808 55.0718 101.808H55.3672C57.0741 101.808 58.7476 101.335 60.2013 100.442L60.7211 100.123C61.3067 99.7633 61.8586 99.3514 62.3698 98.8923L62.8948 98.4207C63.8869 97.5297 64.7634 96.5182 65.5038 95.4099L65.78 97.3394C66.1529 99.944 66.3401 102.572 66.3401 105.203V107.658C66.3401 109.687 66.1391 111.711 65.7404 113.701C65.3974 115.412 64.9096 117.091 64.2819 118.72L63.3661 121.096C62.748 122.699 62.0124 124.255 61.1653 125.751L60.4448 127.023C59.3627 128.933 58.0258 130.689 56.4707 132.241C55.0651 133.643 53.4922 134.869 51.7876 135.889L50.8278 136.464C49.4651 137.28 48.0308 137.971 46.5428 138.528C43.5981 139.63 40.4786 140.194 37.3336 140.194H33.363C31.9389 140.194 30.5202 140.02 29.1387 139.675C27.56 139.281 26.0445 138.669 24.6362 137.855L24.0995 137.545C22.3517 136.535 20.7663 135.269 19.3965 133.788C18.5461 132.868 17.7836 131.872 17.1191 130.811L16.5037 129.828C15.727 128.588 15.1625 127.228 14.833 125.803C14.6081 124.83 14.4944 123.835 14.4944 122.836V118.968C14.4944 117.548 14.6875 116.135 15.0682 114.767L15.1433 114.497C15.6352 112.73 16.4642 111.074 17.5848 109.62C18.3091 108.681 19.148 107.835 20.0822 107.102L21.3381 106.118C22.162 105.472 23.0573 104.922 24.0067 104.48C25.8195 103.636 27.7957 103.198 29.7961 103.198H32.6938C33.7449 103.198 34.7863 103.399 35.7622 103.788C36.6293 104.134 37.4314 104.625 38.1343 105.238L38.327 105.407C38.9743 105.972 39.5439 106.62 40.021 107.334L40.9747 108.762C41.7017 109.85 42.0897 111.129 42.0897 112.437V113.129C42.0897 114.098 41.8635 115.055 41.429 115.922C41.1281 116.522 40.7323 117.07 40.2566 117.545L39.4755 118.325C39.3602 118.44 39.2368 118.546 39.1063 118.644C38.5098 119.091 37.7841 119.332 37.0385 119.332H34.8528C34.1165 119.332 33.3939 119.132 32.7626 118.754C32.4778 118.584 32.215 118.379 31.9801 118.145L31.5883 117.753C31.3453 117.511 31.1623 117.215 31.0537 116.89C30.9785 116.665 30.9402 116.429 30.9402 116.192V115.994C30.9402 115.625 30.9997 115.259 31.1165 114.91L31.2188 114.603Z" fill="#E3B750"/>
<path d="M52.9604 216.411L54.1184 217.797C55.1713 219.058 55.7479 220.648 55.7479 222.289C55.7479 223.54 55.4129 224.768 54.7773 225.846L54.191 226.841C53.3879 228.203 52.2066 229.304 50.7898 230.011C49.651 230.579 48.3954 230.875 47.1222 230.875H46.5334C44.7159 230.875 42.9283 230.413 41.3395 229.532L41.079 229.388C39.5421 228.536 38.2146 227.353 37.1927 225.925L35.8549 224.056C35.0046 222.868 34.4281 221.507 34.1664 220.071C34.0599 219.486 33.9673 217.005 33.9673 216.411L34.0062 213.079C34.0062 211.049 34.3475 209.034 35.0156 207.117C35.821 204.806 37.0863 202.682 38.7355 200.872L39.7737 199.732C41.1202 198.254 42.7294 197.037 44.5198 196.144C46.7711 195.021 49.2537 194.436 51.7708 194.436H54.3835C56.9429 194.436 59.4794 194.915 61.8615 195.849C64.6281 196.934 67.1245 198.607 69.1769 200.753L69.6271 201.223C71.1447 202.81 72.4308 204.602 73.4475 206.547L73.5084 206.663C74.669 208.883 75.4785 211.269 75.9084 213.735L75.9768 214.128C76.2415 215.647 76.3748 217.186 76.3748 218.728V220.632C76.3748 223.724 75.7835 226.787 74.6329 229.657C73.9381 231.391 73.0455 233.038 71.9727 234.568L70.7495 236.312C70.0411 237.321 69.2456 238.268 68.3722 239.139C66.8406 240.668 65.0834 241.953 63.1617 242.95L61.1272 244.006C59.7734 244.708 58.3617 245.294 56.9077 245.755C54.2919 246.586 51.5634 247.009 48.8184 247.009H47.2419C43.8322 247.009 40.4027 246.411 37.1892 245.273C34.7294 244.402 32.363 243.195 30.2205 241.708C28.1078 240.241 26.1981 238.503 24.5404 236.539L24.3007 236.255C23.1541 234.896 22.1228 233.445 21.2173 231.915L20.7357 231.102C19.55 229.1 18.5275 227.005 17.6782 224.839L16.4457 221.696L13.8013 224.335C13.3354 224.8 12.8247 225.217 12.2765 225.582L12.2319 225.612C10.6174 226.686 8.72043 227.259 6.78003 227.259C5.25419 227.259 3.74927 226.905 2.38452 226.224L0 225.034L3.1272 222.086C4.38062 220.905 5.456 219.549 6.31982 218.06C7.48433 216.053 8.24493 213.838 8.55896 211.54L10.8708 194.714L11.7662 191.438C13.388 185.503 15.9846 179.879 19.4504 174.793L21.4197 171.903C22.9331 169.682 24.6058 167.573 26.4244 165.593L28.4515 163.386C31.4012 160.175 34.7185 157.321 38.3354 154.882L38.9628 154.459C41.7848 152.556 44.7755 150.915 47.8976 149.557L54.0754 146.87L47.1071 151.599L42.0897 155.493L40.5352 156.958C38.2309 159.13 36.1163 161.494 34.2146 164.024L32.0551 166.898L30.4199 169.579C28.9182 172.041 27.8217 174.727 27.1722 177.535C26.7124 179.524 26.4803 181.558 26.4803 183.599V184.978L28.9581 188.125C29.3467 188.619 29.8271 189.033 30.3732 189.344C31.11 189.764 31.944 189.985 32.7926 189.985H33.9673C34.7234 189.985 35.4665 189.788 36.123 189.414C36.7462 189.059 37.2715 188.555 37.6519 187.947L38.4661 186.647L39.8962 189.502C40.0573 189.823 40.1826 190.161 40.2699 190.51C40.3678 190.9 40.4172 191.302 40.4172 191.704V193.543C40.4172 194.851 40.0294 196.129 39.3024 197.217L38.541 198.086C37.7518 198.986 36.8378 199.769 35.8267 200.411L35.1565 200.836C34.5785 201.203 33.9505 201.485 33.2917 201.673C32.6562 201.854 31.9985 201.946 31.3375 201.946H31.042C29.3351 201.946 27.6618 201.474 26.2081 200.581L24.8079 199.721C23.0016 198.639 21.6097 196.986 20.8535 195.024L20.6267 194.436L20.1653 196.22C18.991 200.761 18.3969 205.432 18.3969 210.122V212.516L18.4552 213.1C18.7864 216.405 19.5598 219.651 20.7546 222.751L20.8134 222.903C21.4314 224.507 22.167 226.063 23.0142 227.559L23.7345 228.831C24.8166 230.741 26.1537 232.496 27.7087 234.048C29.1144 235.451 30.6871 236.676 32.3917 237.697L33.3517 238.272C34.7144 239.088 36.1485 239.778 37.6365 240.335C40.5812 241.437 43.7006 242.002 46.8456 242.002H50.8163C52.2404 242.002 53.6591 241.827 55.0406 241.483C56.6193 241.089 58.135 240.476 59.5432 239.663L60.0797 239.353C61.8275 238.343 63.413 237.076 64.7828 235.595C65.6332 234.676 66.3958 233.679 67.0603 232.618L67.6757 231.636C68.4523 230.396 69.0169 229.035 69.3464 227.61C69.5714 226.638 69.6849 225.642 69.6849 224.644V220.775C69.6849 219.356 69.492 217.943 69.1112 216.575L69.0361 216.305C68.5442 214.538 67.7152 212.882 66.5946 211.428C65.8703 210.488 65.0313 209.642 64.0972 208.91L62.8413 207.925C62.0175 207.279 61.122 206.73 60.1726 206.288C58.3598 205.444 56.3836 205.006 54.3832 205.006H51.4855C50.4344 205.006 49.393 205.206 48.4171 205.596C47.55 205.942 46.748 206.432 46.0452 207.046L45.8523 207.214C45.205 207.78 44.6353 208.428 44.1582 209.142L43.2047 210.569C42.4777 211.658 42.0897 212.936 42.0897 214.244V214.936C42.0897 215.906 42.316 216.862 42.7505 217.729C43.0513 218.33 43.4472 218.878 43.9229 219.353L44.7039 220.132C44.8192 220.247 44.9425 220.354 45.073 220.452C45.6695 220.898 46.3951 221.139 47.1407 221.139H49.3267C50.0629 221.139 50.7854 220.94 51.4167 220.562C51.7016 220.391 51.9642 220.186 52.1991 219.952L52.5912 219.561C52.8341 219.319 53.0171 219.023 53.1257 218.698C53.2009 218.473 53.2393 218.237 53.2393 218V217.802C53.2393 217.433 53.1798 217.067 53.063 216.717L52.9604 216.411Z" fill="#E3B750"/>
<path d="M48.7794 322.669H48.3375C47.1822 322.669 46.0636 322.265 45.176 321.527C44.9771 321.361 44.7915 321.18 44.621 320.986L44.5388 320.892C43.499 319.707 42.9259 318.184 42.9259 316.608V316.481C42.9259 315.253 43.2716 314.05 43.9235 313.009C44.1867 312.589 44.4969 312.2 44.8481 311.85L45.3235 311.375C46.1355 310.565 47.0732 309.89 48.1003 309.378C48.5525 309.152 49.0201 308.959 49.4998 308.799L49.7703 308.709C50.7756 308.375 51.8284 308.204 52.8881 308.204C54.2233 308.204 55.5446 308.475 56.7719 309L56.8628 309.039L57.4402 309.295C58.7225 309.864 59.9262 310.594 61.022 311.469L61.3035 311.694C61.8727 312.148 62.4004 312.652 62.8804 313.2L63.3573 313.744C63.8563 314.313 64.2667 314.954 64.5745 315.645C65.0034 316.608 65.2251 317.65 65.2251 318.704V322.128C65.2251 323.764 64.8433 325.378 64.1101 326.841C62.8153 328.872 61.2502 330.717 59.4576 332.327L59.3716 332.405L57.6041 333.777C57.1106 334.16 56.5904 334.507 56.0476 334.817L55.4917 335.134C55.106 335.354 54.6994 335.535 54.278 335.675C53.59 335.904 52.8696 336.021 52.1444 336.021H47.7646C46.9576 336.021 46.1536 335.922 45.3707 335.727C44.6721 335.552 43.9946 335.302 43.3505 334.981L42.0897 334.352L39.7729 333.107C38.9036 332.64 38.0814 332.091 37.3173 331.467C36.0472 330.43 34.951 329.197 34.0699 327.816L33.4487 326.841C32.7064 325.36 32.0703 323.827 31.5454 322.256L31.2188 321.278L30.6614 319.053L30.3827 316.549V309.039L30.6614 306.257L31.2188 303.754L32.3337 300.694L33.4487 297.078L30.6614 297.912L30.5867 297.934C29.3417 298.289 28.0533 298.469 26.7585 298.469H26.573C24.8558 298.469 23.1555 298.129 21.5703 297.47C20.9422 297.209 20.3356 296.899 19.7561 296.543L17.933 295.424C17.3142 295.044 16.7282 294.613 16.1814 294.135C15.2474 293.32 14.4349 292.375 13.7686 291.33L13.7225 291.258C13.1244 290.32 12.6438 289.312 12.2915 288.258L11.9858 287.342C11.616 286.05 11.4283 284.714 11.4283 283.37V282.97C11.4283 281.626 11.616 280.289 11.9858 278.997L12.2477 278.3C12.6274 277.29 13.1868 276.356 13.8989 275.544C14.4786 274.883 15.1524 274.31 15.8989 273.845L16.1018 273.718C16.7012 273.344 17.3365 273.031 17.9984 272.783L19.233 272.321L19.9426 272.119C20.7663 271.884 21.6188 271.765 22.4755 271.765H22.92C23.6165 271.765 24.3085 271.877 24.9692 272.097C25.4178 272.246 25.8485 272.444 26.2539 272.687L26.5339 272.854C26.8693 273.055 27.1886 273.281 27.489 273.531C28.2944 274.201 28.9522 275.03 29.421 275.966L29.4413 276.006C29.6963 276.515 29.895 277.051 30.0333 277.603L30.1798 278.188C30.3145 278.725 30.3827 279.278 30.3827 279.832L29.1384 279.655C28.6677 279.587 28.1928 279.554 27.7173 279.554H26.9155C26.6264 279.554 26.3384 279.589 26.058 279.659C25.6008 279.773 25.1711 279.977 24.7941 280.259L24.5385 280.451C24.3466 280.594 24.1653 280.751 23.9957 280.921L23.9528 280.963C23.596 281.319 23.2991 281.73 23.0735 282.181C22.7476 282.831 22.578 283.548 22.578 284.276V284.879C22.578 285.767 22.7851 286.643 23.183 287.437C23.3368 287.744 23.5179 288.037 23.7242 288.311L23.7378 288.329C24.0778 288.782 24.4805 289.183 24.9338 289.523L25.557 289.989C26.1673 290.446 26.8563 290.787 27.5898 290.997C28.1482 291.156 28.726 291.237 29.3066 291.237H31.5009C32.4183 291.237 33.326 291.051 34.1693 290.69C34.6167 290.499 35.0422 290.26 35.4384 289.977L35.6968 289.793C36.4245 289.274 37.0769 288.658 37.6356 287.961L37.9683 287.546C38.6691 286.672 39.2583 285.714 39.7225 284.695L40.4172 283.17L40.578 282.742C41.0247 281.553 41.2534 280.294 41.2534 279.025C41.2534 278.083 41.1278 277.147 40.8796 276.239L40.4172 274.547L39.8185 272.874C39.29 271.397 38.6083 269.979 37.7848 268.644C37.1251 267.574 36.3771 266.561 35.5482 265.616L34.8425 264.811L30.6614 260.917L24.8079 255.354L20.6267 250.068L18.8638 247.226C17.6271 245.233 16.6136 243.11 15.8418 240.895C15.1312 238.857 14.6291 236.751 14.3433 234.612L14.2157 233.657V228.372L15.3307 232.544L16.4457 236.995C17.5581 239.955 18.9496 242.803 20.6017 245.501L21.1842 246.452L24.8079 250.903L26.9712 253.062C28.1288 254.217 29.3732 255.282 30.6934 256.249C32.156 257.319 33.7068 258.264 35.3291 259.073L38.0597 260.436C38.7011 260.756 39.3688 261.02 40.0557 261.226C41.2196 261.574 42.4283 261.751 43.6434 261.751H51.1368C51.9783 261.751 52.817 261.656 53.6368 261.467L54.3499 261.303C55.4545 261.049 56.4903 260.557 57.3851 259.862C58.1454 259.272 58.7895 258.547 59.285 257.723L60.022 256.497C60.1456 256.291 60.2525 256.076 60.3418 255.853L60.4327 255.627C60.651 255.082 61.0016 254.601 61.4531 254.225C62.0893 253.696 62.8912 253.406 63.7192 253.406H64.3881C65.4763 253.406 66.5373 253.746 67.4229 254.377C67.8141 254.656 68.1648 254.987 68.4651 255.362L68.5509 255.469C68.9323 255.945 69.2262 256.484 69.4193 257.062L69.4335 257.104C69.6 257.603 69.6849 258.125 69.6849 258.65C69.6849 259.409 69.5079 260.158 69.1678 260.836L69.1274 260.917C68.3874 262.209 67.478 263.397 66.4233 264.45L66.0613 264.811L65.0688 265.603C63.8862 266.548 62.5133 267.226 61.0439 267.593L60.4401 267.727C59.1741 268.007 57.8811 268.149 56.5842 268.149H49.8523C48.0423 268.149 46.2523 267.77 44.5983 267.036L42.6472 265.924L39.3024 263.977L40.4172 265.646L41.2534 267.036L42.3684 269.262L43.0945 270.856C43.5388 271.831 43.9041 272.841 44.1866 273.875C44.4607 274.878 44.6562 275.9 44.7712 276.933L44.8771 277.885V282.335L44.8329 282.733C44.6775 284.129 44.3165 285.495 43.7621 286.786C43.2064 288.08 42.507 289.308 41.6772 290.446L40.6959 291.793L38.9089 293.972C38.4311 294.555 37.8609 295.056 37.2209 295.455L37.1791 295.482C36.3738 295.984 35.6851 296.651 35.1583 297.44C34.9482 297.754 34.7651 298.086 34.6112 298.432L34.2452 299.253C33.9005 300.027 33.6135 300.826 33.3864 301.642L32.3337 305.423C31.963 307.273 31.7762 309.155 31.7762 311.041V314.915C31.7762 315.632 31.855 316.346 32.0107 317.045C32.225 318.007 32.583 318.932 33.0729 319.787L33.4487 320.444L35.3999 323.503L37.0719 325.506C37.8136 326.394 38.6431 327.205 39.5477 327.927L40.2209 328.465C40.7221 328.865 41.2641 329.211 41.8381 329.498C43.1034 330.129 44.4986 330.458 45.9132 330.458H46.6511C47.6928 330.458 48.7288 330.306 49.7266 330.007C50.5784 329.752 51.3951 329.392 52.1577 328.935L53.7968 327.954C55.0839 327.22 56.2068 326.231 57.0963 325.047L57.4203 324.616L58.0686 323.484C58.3786 322.943 58.6221 322.366 58.7937 321.766L58.863 321.524C59.0154 320.992 59.0928 320.441 59.0928 319.887C59.0928 319.334 59.0154 318.783 58.863 318.25L58.8215 318.105C58.6319 317.443 58.3403 316.814 57.9573 316.241C57.6011 315.707 57.1698 315.228 56.6766 314.818L56.0204 314.272C55.839 314.122 55.6463 313.985 55.4438 313.864C54.7309 313.437 53.9151 313.211 53.0836 313.211H51.0209C50.8277 313.211 50.6329 313.228 50.4424 313.259C49.56 313.406 48.7588 313.888 48.222 314.602L47.8857 315.022C47.368 315.667 46.9202 316.366 46.5496 317.106L46.5404 317.129C46.1863 318.012 46.1574 318.992 46.4589 319.894C46.5192 320.075 46.5923 320.251 46.6776 320.421L46.6909 320.448C46.9654 320.995 47.3504 321.481 47.8218 321.873L48.7794 322.669Z" fill="#E3B750"/>
<path d="M44.0409 45.3406C44.0409 45.3406 40.2986 40.0745 39.8599 36.1612C39.7025 34.7578 39.6015 33.9335 39.8599 32.545C40.0925 31.2949 40.9747 29.4853 40.9747 29.4853C40.9747 29.4853 38.1156 28.5289 36.7936 29.4853C35.566 30.3733 35.3999 33.1014 35.3999 33.1014C35.3999 33.1014 34.1445 31.0759 32.8912 30.3198C31.3748 29.4048 28.4314 29.4853 28.4314 29.4853C28.4314 29.4853 28.4744 31.7858 28.9889 33.1014C29.6629 34.8247 32.0551 36.1612 32.0551 36.1612C32.0551 36.1612 30.0165 36.5946 29.2677 37.552C28.1961 38.9221 29.2677 42.0026 29.2677 42.0026C29.2677 42.0026 31.2308 39.8398 32.8912 39.7773C34.1644 39.7293 34.7786 40.4074 35.9574 40.89C39.293 42.2555 44.0409 45.3406 44.0409 45.3406Z" fill="#E3B750"/>
<path d="M1135.35 540.378C1135.35 540.378 1142.69 535.052 1150.13 535.372C1162.67 535.911 1178.84 549.836 1178.84 549.836C1178.84 549.836 1167.04 546.893 1159.33 546.776C1153.42 546.687 1148.12 549.158 1142.6 547.055C1138.28 545.405 1135.35 540.378 1135.35 540.378Z" fill="#E3B750"/>
<path d="M1171.05 504.496C1171.05 504.496 1165.71 511.814 1166.03 519.238C1166.57 531.756 1180.52 547.889 1180.52 547.889C1180.52 547.889 1177.57 536.114 1177.46 528.418C1177.37 522.527 1179.84 517.231 1177.74 511.728C1176.08 507.413 1171.05 504.496 1171.05 504.496Z" fill="#E3B750"/>
<path d="M1148.18 522.855C1148.18 522.855 1147.06 520.901 1146.78 519.517C1146.51 518.132 1146.78 515.9 1146.78 515.9C1146.78 515.9 1149.84 515.647 1151.52 516.457C1152.5 516.93 1153.75 518.126 1153.75 518.126C1153.75 518.126 1154.18 516.24 1155.14 515.9C1155.66 515.721 1156 515.824 1156.54 515.9C1157.22 515.998 1157.38 516.053 1157.93 516.457C1158.96 517.205 1159.22 518.582 1159.6 519.795C1160.15 521.503 1159.88 522.264 1160.44 523.967C1162.21 529.387 1167.97 536.485 1167.97 536.485L1157.37 524.802C1157.37 524.802 1154.99 521.935 1152.92 520.907C1152.08 520.494 1150.69 520.073 1150.69 520.073C1150.69 520.073 1151.03 521.831 1151.52 522.855C1152.68 525.283 1156.54 527.583 1156.54 527.583L1166.85 537.041C1166.85 537.041 1159.73 531.315 1154.31 529.53C1151.98 528.763 1149.91 529.875 1148.18 528.14C1147.45 527.414 1147.02 526.911 1146.78 525.914C1146.6 525.175 1146.44 524.645 1146.78 523.967C1147.1 523.347 1148.18 522.855 1148.18 522.855Z" fill="#E3B750"/>
<path d="M1143.72 595.733L1142.33 596.889C1141.06 597.939 1139.47 598.515 1137.83 598.515C1136.57 598.515 1135.34 598.18 1134.26 597.546L1133.27 596.961C1131.9 596.16 1130.8 594.981 1130.09 593.567C1129.52 592.43 1129.22 591.177 1129.22 589.907V589.319C1129.22 587.506 1129.69 585.722 1130.57 584.136L1130.71 583.876C1131.57 582.342 1132.75 581.018 1134.18 579.998L1136.06 578.663C1137.25 577.814 1138.61 577.239 1140.05 576.978C1140.63 576.871 1141.23 576.818 1141.82 576.818H1147.06C1149.09 576.818 1151.11 577.158 1153.03 577.825C1155.35 578.629 1157.47 579.892 1159.29 581.537L1160.43 582.574C1161.91 583.917 1163.13 585.523 1164.03 587.31C1165.15 589.557 1165.74 592.034 1165.74 594.546V597.153C1165.74 599.707 1165.26 602.238 1164.32 604.616C1163.23 607.377 1161.56 609.868 1159.41 611.916L1158.94 612.365C1157.35 613.88 1155.55 615.163 1153.6 616.178L1153.48 616.238C1151.26 617.397 1148.87 618.205 1146.4 618.634L1146 618.702C1144.48 618.966 1142.94 619.099 1141.39 619.099H1139.49C1136.39 619.099 1133.32 618.509 1130.44 617.361C1128.71 616.667 1127.05 615.776 1125.52 614.706L1123.77 613.485C1122.76 612.778 1121.81 611.985 1120.94 611.113C1119.41 609.585 1118.12 607.831 1117.12 605.913L1116.06 603.883C1115.36 602.532 1114.77 601.123 1114.31 599.672C1113.48 597.062 1113.06 594.339 1113.06 591.599V590.026C1113.06 586.624 1113.65 583.201 1114.79 579.994C1115.67 577.54 1116.88 575.178 1118.37 573.04C1119.84 570.932 1121.58 569.026 1123.55 567.372L1123.83 567.133C1125.19 565.988 1126.65 564.959 1128.18 564.056L1129.43 563.321C1131.15 562.307 1132.94 561.425 1134.8 560.685L1131.81 558.499C1131.02 557.921 1130.34 557.208 1129.79 556.394C1128.88 555.02 1128.39 553.406 1128.39 551.754V551.317C1128.39 549.794 1128.74 548.293 1129.42 546.931L1130.62 544.551L1132.62 546.681C1134.05 548.209 1135.81 549.396 1137.77 550.155C1139.12 550.681 1140.55 550.994 1142.01 551.081L1149.01 551.505L1159.72 552.715C1162.43 553.021 1165.11 553.524 1167.74 554.222L1171.92 555.328C1175.59 556.3 1179.16 557.645 1182.56 559.341L1185.54 560.83C1189.05 562.583 1192.37 564.7 1195.44 567.148L1197.09 568.472C1199.41 570.324 1201.58 572.359 1203.58 574.555L1204.31 575.365C1207.2 578.548 1209.71 582.055 1211.8 585.815L1214.52 590.726L1208.66 583.772L1204.2 579.321L1198.35 574.871L1193.86 571.824C1192.21 570.705 1190.47 569.728 1188.65 568.905L1187.65 568.452C1186.06 567.726 1184.38 567.173 1182.67 566.8L1180.52 566.334C1179.41 566.093 1178.26 566.027 1177.13 566.14L1176.97 566.156C1174.57 566.395 1172.33 567.455 1170.63 569.156L1170.17 569.611C1169.82 569.963 1169.51 570.362 1169.27 570.795C1168.78 571.643 1168.52 572.603 1168.52 573.58V574.554C1168.52 575.308 1168.72 576.05 1169.1 576.705C1169.45 577.327 1169.96 577.851 1170.57 578.231L1171.87 579.043L1169.01 580.471C1168.69 580.631 1168.35 580.756 1168 580.843C1167.61 580.941 1167.21 580.99 1166.8 580.99H1164.96C1163.65 580.99 1162.37 580.603 1161.28 579.878L1160.41 579.118C1159.51 578.33 1158.72 577.418 1158.08 576.409L1157.65 575.741C1157.28 575.164 1157 574.537 1156.81 573.88C1156.63 573.245 1156.54 572.589 1156.54 571.93V571.635C1156.54 569.931 1157.01 568.261 1157.91 566.811L1158.23 566.292C1158.59 565.707 1159 565.157 1159.46 564.647L1159.93 564.123C1160.83 563.133 1161.84 562.258 1162.95 561.519L1161.02 561.243C1158.41 560.871 1155.77 560.685 1153.14 560.685H1150.68C1148.64 560.685 1146.61 560.885 1144.62 561.283C1142.91 561.625 1141.22 562.112 1139.59 562.739L1137.21 563.652C1135.6 564.269 1134.04 565.003 1132.55 565.849L1131.27 566.568C1129.36 567.648 1127.6 568.982 1126.04 570.534C1124.64 571.936 1123.41 573.506 1122.39 575.207L1121.81 576.165C1120.99 577.525 1120.3 578.956 1119.74 580.441C1118.64 583.379 1118.07 586.492 1118.07 589.631V593.593C1118.07 595.014 1118.25 596.43 1118.59 597.809C1118.99 599.384 1119.6 600.897 1120.42 602.302L1120.73 602.838C1121.74 604.582 1123.01 606.164 1124.49 607.531C1125.41 608.38 1126.41 609.14 1127.48 609.804L1128.46 610.418C1129.7 611.193 1131.07 611.756 1132.49 612.085C1133.47 612.31 1134.47 612.423 1135.47 612.423H1139.34C1140.77 612.423 1142.18 612.23 1143.55 611.85L1143.82 611.775C1145.59 611.284 1147.25 610.457 1148.71 609.339C1149.65 608.616 1150.5 607.779 1151.23 606.847L1152.22 605.593C1152.87 604.771 1153.42 603.878 1153.86 602.93C1154.71 601.121 1155.15 599.149 1155.15 597.153V594.261C1155.15 593.212 1154.94 592.173 1154.55 591.199C1154.21 590.334 1153.72 589.533 1153.1 588.832L1152.93 588.64C1152.37 587.994 1151.72 587.425 1151 586.949L1149.57 585.997C1148.48 585.272 1147.2 584.885 1145.89 584.885H1145.19C1144.22 584.885 1143.26 585.111 1142.4 585.544C1141.79 585.844 1141.24 586.239 1140.77 586.714L1139.99 587.494C1139.87 587.609 1139.77 587.732 1139.67 587.862C1139.22 588.457 1138.98 589.181 1138.98 589.925V592.107C1138.98 592.842 1139.18 593.562 1139.56 594.192C1139.73 594.477 1139.93 594.739 1140.17 594.973L1140.56 595.364C1140.8 595.607 1141.1 595.79 1141.42 595.898C1141.65 595.973 1141.89 596.011 1142.12 596.011H1142.32C1142.69 596.011 1143.06 595.952 1143.41 595.835L1143.72 595.733Z" fill="#E3B750"/>
<path d="M1042.26 575.149L1040.87 573.994C1039.6 572.943 1038.01 572.367 1036.37 572.367C1035.11 572.367 1033.88 572.702 1032.8 573.336L1031.8 573.921C1030.44 574.723 1029.34 575.901 1028.63 577.315C1028.06 578.452 1027.76 579.705 1027.76 580.975V581.563C1027.76 583.377 1028.22 585.16 1029.11 586.746L1029.25 587.006C1030.11 588.54 1031.29 589.864 1032.72 590.884L1034.59 592.219C1035.78 593.068 1037.15 593.643 1038.59 593.904C1039.17 594.011 1039.77 594.064 1040.36 594.064H1045.59C1047.63 594.064 1049.65 593.724 1051.57 593.057C1053.88 592.253 1056.01 590.99 1057.83 589.345L1058.97 588.309C1060.45 586.965 1061.67 585.359 1062.56 583.572C1063.69 581.326 1064.28 578.848 1064.28 576.336V573.729C1064.28 571.175 1063.8 568.644 1062.86 566.266C1061.77 563.506 1060.1 561.014 1057.95 558.966L1057.47 558.517C1055.88 557.003 1054.09 555.719 1052.14 554.704L1052.02 554.644C1049.8 553.486 1047.41 552.678 1044.94 552.249L1044.54 552.18C1043.02 551.916 1041.48 551.783 1039.93 551.783H1038.03C1034.93 551.783 1031.86 552.373 1028.98 553.521C1027.24 554.215 1025.59 555.106 1024.06 556.176L1022.31 557.397C1021.3 558.104 1020.35 558.898 1019.48 559.769C1017.95 561.298 1016.66 563.051 1015.66 564.969L1014.6 566.999C1013.9 568.35 1013.31 569.759 1012.85 571.21C1012.02 573.82 1011.59 576.543 1011.59 579.283V580.856C1011.59 584.259 1012.19 587.681 1013.33 590.888C1014.21 593.342 1015.42 595.704 1016.91 597.842C1018.38 599.95 1020.12 601.856 1022.09 603.51L1022.37 603.75C1023.73 604.894 1025.19 605.923 1026.72 606.827L1027.53 607.307C1029.54 608.49 1031.64 609.511 1033.81 610.358L1036.96 611.588L1034.32 614.227C1033.85 614.692 1033.43 615.202 1033.06 615.749L1033.04 615.793C1031.96 617.405 1031.38 619.298 1031.38 621.234C1031.38 622.757 1031.74 624.258 1032.42 625.62L1033.61 628L1036.57 624.879C1037.75 623.628 1039.11 622.555 1040.6 621.693C1042.61 620.531 1044.83 619.772 1047.14 619.459L1064 617.152L1067.28 616.258C1073.23 614.64 1078.86 612.048 1083.96 608.59L1086.86 606.625C1089.08 605.114 1091.19 603.445 1093.18 601.63L1095.39 599.607C1098.61 596.664 1101.47 593.353 1103.91 589.744L1104.34 589.118C1106.24 586.302 1107.89 583.317 1109.25 580.202L1111.94 574.036L1107.2 580.99L1103.3 585.997L1101.83 587.549C1099.65 589.848 1097.29 591.958 1094.75 593.856L1091.87 596.011L1089.18 597.643C1086.72 599.142 1084.03 600.236 1081.21 600.884C1079.22 601.343 1077.18 601.575 1075.14 601.575H1073.75L1070.6 599.102C1070.1 598.714 1069.69 598.235 1069.38 597.69C1068.96 596.954 1068.74 596.122 1068.74 595.275V594.103C1068.74 593.348 1068.93 592.607 1069.31 591.952C1069.66 591.33 1070.17 590.806 1070.78 590.426L1072.08 589.614L1069.22 588.186C1068.9 588.026 1068.56 587.901 1068.21 587.813C1067.82 587.716 1067.42 587.666 1067.01 587.666H1065.17C1063.86 587.666 1062.58 588.054 1061.49 588.779L1060.62 589.539C1059.72 590.326 1058.93 591.238 1058.29 592.247L1057.86 592.916C1057.49 593.493 1057.21 594.12 1057.02 594.777C1056.84 595.411 1056.75 596.068 1056.75 596.727V597.022C1056.75 598.726 1057.22 600.395 1058.12 601.846L1058.98 603.243C1060.06 605.046 1061.72 606.435 1063.69 607.19L1064.28 607.416L1062.49 607.876C1057.94 609.048 1053.26 609.641 1048.56 609.641H1046.16L1045.57 609.583C1042.26 609.252 1039.01 608.481 1035.9 607.288L1035.75 607.23C1034.14 606.613 1032.58 605.879 1031.08 605.033L1029.81 604.315C1027.9 603.235 1026.14 601.9 1024.58 600.349C1023.18 598.946 1021.95 597.376 1020.93 595.675L1020.35 594.717C1019.53 593.357 1018.84 591.926 1018.28 590.441C1017.18 587.503 1016.61 584.39 1016.61 581.251V577.289C1016.61 575.868 1016.79 574.452 1017.13 573.073C1017.53 571.498 1018.14 569.985 1018.96 568.58L1019.27 568.045C1020.28 566.3 1021.55 564.718 1023.03 563.351C1023.95 562.502 1024.95 561.742 1026.01 561.079L1027 560.464C1028.24 559.689 1029.6 559.126 1031.03 558.797C1032.01 558.573 1033 558.459 1034.01 558.459H1037.88C1039.3 558.459 1040.72 558.652 1042.09 559.032L1042.36 559.107C1044.13 559.598 1045.79 560.425 1047.25 561.543C1048.19 562.266 1049.04 563.103 1049.77 564.035L1050.76 565.289C1051.41 566.111 1051.96 567.004 1052.4 567.952C1053.25 569.761 1053.68 571.733 1053.68 573.729V576.621C1053.68 577.67 1053.48 578.709 1053.09 579.683C1052.75 580.548 1052.25 581.349 1051.64 582.05L1051.47 582.243C1050.9 582.889 1050.26 583.457 1049.54 583.933L1048.11 584.885C1047.02 585.61 1045.74 585.997 1044.43 585.997H1043.73C1042.76 585.997 1041.8 585.772 1040.93 585.338C1040.33 585.038 1039.78 584.643 1039.31 584.168L1038.53 583.389C1038.41 583.274 1038.3 583.15 1038.21 583.02C1037.76 582.425 1037.52 581.701 1037.52 580.957V578.775C1037.52 578.041 1037.72 577.32 1038.1 576.69C1038.27 576.405 1038.47 576.143 1038.71 575.909L1039.1 575.518C1039.34 575.275 1039.64 575.093 1039.96 574.984C1040.19 574.909 1040.43 574.871 1040.66 574.871H1040.86C1041.23 574.871 1041.6 574.93 1041.95 575.047L1042.26 575.149Z" fill="#E3B750"/>
<path d="M936.892 578.487V578.928C936.892 580.081 937.297 581.197 938.036 582.083C938.202 582.282 938.383 582.467 938.578 582.637L938.672 582.719C939.86 583.756 941.386 584.328 942.965 584.328H943.093C944.323 584.328 945.528 583.983 946.571 583.333C946.993 583.07 947.383 582.761 947.734 582.41L948.209 581.936C949.021 581.125 949.697 580.19 950.211 579.165C950.437 578.713 950.63 578.247 950.79 577.768L950.88 577.498C951.215 576.495 951.386 575.444 951.386 574.387C951.386 573.054 951.115 571.736 950.589 570.511L950.55 570.42L950.294 569.844C949.724 568.565 948.991 567.363 948.115 566.27L947.89 565.989C947.434 565.421 946.929 564.894 946.381 564.415L945.836 563.939C945.265 563.441 944.623 563.032 943.931 562.725C942.965 562.297 941.921 562.075 940.865 562.075H937.434C935.794 562.075 934.177 562.456 932.711 563.188C930.676 564.48 928.827 566.042 927.213 567.831L927.136 567.917L925.761 569.681C925.377 570.173 925.029 570.692 924.719 571.234L924.401 571.789C924.181 572.174 923.999 572.579 923.859 573C923.629 573.686 923.512 574.405 923.512 575.129V579.5C923.512 580.305 923.611 581.107 923.807 581.889C923.982 582.586 924.232 583.262 924.554 583.905L925.185 585.163L926.432 587.475C926.9 588.342 927.451 589.163 928.076 589.925C929.115 591.193 930.35 592.287 931.735 593.166L932.711 593.786C934.195 594.527 935.731 595.162 937.306 595.685L938.286 596.011L940.515 596.568L943.024 596.846H950.55L953.337 596.568L955.846 596.011L958.912 594.899L962.536 593.786L961.7 596.568L961.678 596.642C961.323 597.884 961.142 599.17 961.142 600.462V600.648C961.142 602.361 961.482 604.058 962.143 605.64C962.404 606.267 962.715 606.872 963.072 607.45L964.194 609.27C964.574 609.887 965.006 610.472 965.485 611.018C966.302 611.95 967.249 612.76 968.296 613.425L968.368 613.471C969.308 614.068 970.318 614.548 971.375 614.899L972.292 615.204C973.586 615.574 974.926 615.761 976.272 615.761H976.673C978.02 615.761 979.36 615.574 980.654 615.204L981.353 614.943C982.365 614.564 983.301 614.006 984.115 613.295C984.777 612.717 985.351 612.044 985.817 611.299L985.944 611.097C986.319 610.499 986.633 609.865 986.881 609.204L987.344 607.972L987.546 607.264C987.782 606.442 987.901 605.591 987.901 604.737V604.293C987.901 603.598 987.789 602.907 987.569 602.248C987.419 601.8 987.221 601.37 986.978 600.966L986.81 600.686C986.609 600.352 986.382 600.033 986.131 599.733C985.46 598.93 984.63 598.273 983.692 597.805L983.651 597.785C983.141 597.53 982.605 597.332 982.051 597.194L981.465 597.048C980.926 596.914 980.373 596.846 979.818 596.846L979.996 598.087C980.063 598.557 980.096 599.031 980.096 599.506V600.306C980.096 600.594 980.061 600.882 979.991 601.161C979.877 601.618 979.672 602.046 979.389 602.423L979.198 602.678C979.054 602.869 978.896 603.05 978.727 603.219L978.684 603.262C978.327 603.618 977.915 603.915 977.464 604.14C976.812 604.465 976.094 604.634 975.365 604.634H974.76C973.87 604.634 972.992 604.428 972.197 604.03C971.889 603.877 971.596 603.696 971.321 603.49L971.303 603.477C970.849 603.138 970.447 602.736 970.107 602.283L969.639 601.661C969.182 601.052 968.839 600.365 968.63 599.633C968.47 599.076 968.389 598.499 968.389 597.919V595.73C968.389 594.814 968.576 593.908 968.937 593.067C969.129 592.62 969.368 592.196 969.651 591.8L969.836 591.543C970.356 590.816 970.974 590.165 971.672 589.608L972.088 589.276C972.964 588.576 973.923 587.988 974.945 587.525L976.473 586.832L976.901 586.672C978.093 586.226 979.355 585.997 980.627 585.997C981.57 585.997 982.509 586.123 983.418 586.37L985.114 586.832L986.79 587.429C988.27 587.957 989.691 588.637 991.029 589.459C992.101 590.117 993.116 590.864 994.063 591.691L994.87 592.395L998.772 596.568L1004.35 602.409L1009.64 606.581L1012.49 608.341C1014.49 609.575 1016.62 610.586 1018.84 611.356C1020.88 612.066 1022.99 612.567 1025.13 612.852L1026.09 612.979H1031.38L1027.2 611.867L1022.74 610.754C1019.78 609.644 1016.92 608.255 1014.22 606.606L1013.27 606.025L1008.81 602.409L1006.64 600.25C1005.49 599.095 1004.42 597.853 1003.45 596.536C1002.38 595.076 1001.43 593.528 1000.62 591.91L999.254 589.185C998.933 588.544 998.668 587.878 998.462 587.193C998.113 586.031 997.936 584.825 997.936 583.612V576.134C997.936 575.295 998.031 574.458 998.221 573.64L998.385 572.928C998.64 571.826 999.133 570.792 999.829 569.899C1000.42 569.14 1001.15 568.498 1001.97 568.003L1003.2 567.268C1003.41 567.144 1003.62 567.038 1003.85 566.948L1004.07 566.858C1004.62 566.64 1005.1 566.29 1005.48 565.839C1006.01 565.205 1006.3 564.404 1006.3 563.578V562.911C1006.3 561.825 1005.96 560.766 1005.33 559.882C1005.05 559.492 1004.71 559.142 1004.34 558.842L1004.23 558.757C1003.75 558.376 1003.21 558.083 1002.63 557.89L1002.59 557.876C1002.09 557.709 1001.57 557.625 1001.04 557.625C1000.28 557.625 999.533 557.801 998.853 558.141L998.772 558.181C997.477 558.92 996.286 559.827 995.232 560.88L994.87 561.241L994.076 562.231C993.13 563.412 992.45 564.782 992.082 566.248L991.948 566.851C991.667 568.114 991.525 569.404 991.525 570.698V577.416C991.525 579.223 991.905 581.009 992.64 582.659L993.755 584.607L995.706 587.945L994.033 586.832L992.64 585.997L990.41 584.885L988.812 584.16C987.835 583.717 986.823 583.352 985.787 583.07C984.782 582.797 983.758 582.602 982.722 582.487L981.769 582.381H977.309L976.91 582.425C975.511 582.581 974.143 582.941 972.849 583.494C971.553 584.049 970.322 584.746 969.181 585.574L967.832 586.554L965.648 588.337C965.064 588.814 964.562 589.383 964.162 590.022L964.136 590.063C963.632 590.867 962.963 591.554 962.173 592.08C961.858 592.29 961.526 592.472 961.179 592.626L960.356 592.991C959.58 593.335 958.78 593.622 957.963 593.848L954.174 594.899C952.32 595.269 950.434 595.455 948.544 595.455H944.662C943.944 595.455 943.228 595.377 942.527 595.221C941.563 595.007 940.637 594.65 939.78 594.161L939.122 593.786L936.056 591.839L934.049 590.17C933.159 589.43 932.346 588.602 931.622 587.7L931.084 587.028C930.683 586.528 930.336 585.987 930.049 585.414C929.416 584.151 929.087 582.759 929.087 581.347V580.611C929.087 579.571 929.239 578.537 929.538 577.542C929.794 576.692 930.155 575.877 930.612 575.116L931.596 573.48C932.331 572.196 933.323 571.075 934.509 570.187L934.941 569.864L936.075 569.217C936.618 568.908 937.196 568.665 937.796 568.493L938.039 568.424C938.572 568.272 939.124 568.195 939.679 568.195C940.234 568.195 940.786 568.272 941.319 568.424L941.465 568.466C942.129 568.655 942.759 568.946 943.334 569.328C943.868 569.683 944.348 570.114 944.759 570.606L945.306 571.261C945.457 571.442 945.594 571.634 945.715 571.836C946.143 572.548 946.369 573.362 946.369 574.192V576.25C946.369 576.443 946.353 576.637 946.321 576.828C946.174 577.708 945.691 578.508 944.975 579.043L944.555 579.379C943.908 579.895 943.208 580.342 942.467 580.712L942.444 580.721C941.559 581.075 940.577 581.104 939.672 580.803C939.491 580.742 939.315 580.67 939.144 580.584L939.118 580.571C938.569 580.297 938.083 579.913 937.69 579.443L936.892 578.487Z" fill="#E3B750"/>
<path d="M1226.78 513.397L1227.94 512.01C1228.99 510.749 1229.57 509.16 1229.57 507.519C1229.57 506.268 1229.23 505.04 1228.6 503.962L1228.01 502.967C1227.21 501.605 1226.03 500.503 1224.61 499.796C1223.47 499.228 1222.22 498.932 1220.94 498.932H1220.35C1218.54 498.932 1216.75 499.395 1215.16 500.276L1214.9 500.42C1213.36 501.272 1212.04 502.455 1211.01 503.882L1209.68 505.752C1208.83 506.939 1208.25 508.3 1207.99 509.737C1207.88 510.321 1207.83 510.914 1207.83 511.508V516.729C1207.83 518.758 1208.17 520.773 1208.84 522.69C1209.64 525.001 1210.91 527.126 1212.56 528.936L1213.59 530.076C1214.94 531.554 1216.55 532.77 1218.34 533.664C1220.59 534.787 1223.07 535.372 1225.59 535.372H1228.2C1230.76 535.372 1233.3 534.892 1235.68 533.958C1238.45 532.874 1240.95 531.2 1243 529.055L1243.45 528.584C1244.97 526.998 1246.25 525.206 1247.27 523.261L1247.33 523.144C1248.49 520.925 1249.3 518.539 1249.73 516.072L1249.8 515.68C1250.06 514.161 1250.2 512.622 1250.2 511.08V509.176C1250.2 506.084 1249.6 503.021 1248.45 500.15C1247.76 498.417 1246.87 496.769 1245.79 495.24L1244.57 493.496C1243.86 492.486 1243.07 491.54 1242.19 490.668C1240.66 489.14 1238.9 487.855 1236.98 486.858L1234.95 485.802C1233.59 485.099 1232.18 484.514 1230.73 484.052C1228.11 483.222 1225.38 482.799 1222.64 482.799H1221.06C1217.65 482.799 1214.22 483.396 1211.01 484.534C1208.55 485.405 1206.18 486.612 1204.04 488.1C1201.93 489.566 1200.02 491.304 1198.36 493.269L1198.12 493.553C1196.97 494.912 1195.94 496.363 1195.04 497.892L1194.3 499.135C1193.29 500.852 1192.4 502.644 1191.66 504.496L1189.47 501.516C1188.89 500.727 1188.18 500.046 1187.36 499.503C1185.98 498.587 1184.37 498.098 1182.71 498.098H1182.27C1180.75 498.098 1179.24 498.452 1177.88 499.133L1175.49 500.323L1177.63 502.32C1179.16 503.752 1180.35 505.509 1181.11 507.461C1181.64 508.814 1181.95 510.24 1182.04 511.689L1182.46 518.682L1183.67 529.365C1183.98 532.068 1184.48 534.744 1185.18 537.373L1186.29 541.542C1187.27 545.207 1188.61 548.764 1190.31 552.156L1191.81 555.135C1193.56 558.639 1195.68 561.949 1198.14 565.009L1199.46 566.664C1201.32 568.979 1203.36 571.142 1205.56 573.133L1206.37 573.867C1209.56 576.752 1213.07 579.258 1216.84 581.336L1221.76 584.05C1221.76 584.05 1217.4 580.626 1214.8 578.209C1212.99 576.534 1210.34 573.758 1210.34 573.758C1210.34 573.758 1207.55 570.251 1205.88 567.917C1204.64 566.194 1203.94 565.081 1202.82 563.435C1201.7 561.79 1200.72 560.052 1199.9 558.241C1199.07 556.429 1200.17 558.84 1199.44 557.244C1198.72 555.648 1198.16 553.979 1197.79 552.266C1197.42 550.553 1197.32 550.123 1197.32 550.123C1197.08 549.011 1197.01 547.869 1197.13 546.737C1197.24 545.606 1197.14 546.583 1197.14 546.583C1197.38 544.19 1198.44 541.953 1200.15 540.253L1200.6 539.798C1200.96 539.445 1201.36 539.141 1201.79 538.893C1202.64 538.408 1203.6 538.153 1204.58 538.153H1205.56C1206.31 538.153 1207.06 538.35 1207.71 538.725C1208.34 539.08 1208.86 539.584 1209.24 540.191L1210.06 541.491L1211.49 538.637C1211.65 538.316 1211.77 537.978 1211.86 537.629C1211.96 537.238 1212.01 536.837 1212.01 536.434V534.596C1212.01 533.288 1211.62 532.009 1210.89 530.921L1210.13 530.053C1209.34 529.153 1208.43 528.37 1207.42 527.728L1206.75 527.302C1206.17 526.935 1205.54 526.653 1204.88 526.465C1204.25 526.284 1203.59 526.192 1202.93 526.192H1202.63C1200.93 526.192 1199.25 526.665 1197.8 527.558L1197.28 527.877C1196.69 528.237 1196.14 528.649 1195.63 529.108L1195.11 529.579C1194.11 530.47 1193.24 531.482 1192.5 532.59L1192.22 530.661C1191.85 528.056 1191.66 525.428 1191.66 522.797V520.342C1191.66 518.313 1191.86 516.289 1192.26 514.299C1192.6 512.588 1193.09 510.909 1193.72 509.281L1194.63 506.904C1195.25 505.301 1195.99 503.745 1196.83 502.249L1197.56 500.977C1198.64 499.066 1199.97 497.311 1201.53 495.759C1202.93 494.357 1204.51 493.131 1206.21 492.111L1207.17 491.536C1208.53 490.72 1209.97 490.029 1211.46 489.472C1214.4 488.37 1217.52 487.806 1220.67 487.806H1224.64C1226.06 487.806 1227.48 487.98 1228.86 488.325C1230.44 488.719 1231.96 489.331 1233.36 490.145L1233.9 490.455C1235.65 491.465 1237.23 492.731 1238.6 494.212C1239.45 495.132 1240.22 496.128 1240.88 497.189L1241.5 498.172C1242.27 499.412 1242.84 500.772 1243.17 502.197C1243.39 503.17 1243.51 504.165 1243.51 505.164V509.032C1243.51 510.452 1243.31 511.865 1242.93 513.233L1242.86 513.503C1242.36 515.27 1241.54 516.926 1240.42 518.38C1239.69 519.319 1238.85 520.165 1237.92 520.898L1236.66 521.882C1235.84 522.528 1234.94 523.078 1233.99 523.52C1232.18 524.364 1230.2 524.802 1228.2 524.802H1225.31C1224.26 524.802 1223.21 524.601 1222.24 524.212C1221.37 523.866 1220.57 523.375 1219.87 522.762L1219.67 522.593C1219.03 522.028 1218.46 521.38 1217.98 520.666L1217.03 519.238C1216.3 518.15 1215.91 516.871 1215.91 515.563V514.871C1215.91 513.902 1216.14 512.945 1216.57 512.078C1216.87 511.478 1217.27 510.93 1217.74 510.455L1218.52 509.675C1218.64 509.56 1218.76 509.454 1218.89 509.356C1219.49 508.909 1220.22 508.668 1220.96 508.668H1223.15C1223.88 508.668 1224.61 508.868 1225.24 509.246C1225.52 509.416 1225.78 509.621 1226.02 509.855L1226.41 510.247C1226.65 510.489 1226.84 510.785 1226.95 511.11C1227.02 511.335 1227.06 511.571 1227.06 511.808V512.006C1227.06 512.375 1227 512.741 1226.88 513.09L1226.78 513.397Z" fill="#E3B750"/>
<path d="M1205.04 411.589L1203.88 410.203C1202.83 408.942 1202.25 407.352 1202.25 405.711C1202.25 404.46 1202.59 403.232 1203.22 402.154L1203.81 401.159C1204.61 399.797 1205.79 398.696 1207.21 397.989C1208.35 397.421 1209.6 397.125 1210.88 397.125H1211.47C1213.28 397.125 1215.07 397.587 1216.66 398.468L1216.92 398.612C1218.46 399.464 1219.79 400.647 1220.81 402.075L1222.15 403.944C1223 405.132 1223.57 406.493 1223.83 407.929C1223.94 408.514 1224.03 410.995 1224.03 411.589L1223.99 414.921C1223.99 416.951 1223.65 418.966 1222.98 420.883C1222.18 423.194 1220.91 425.318 1219.26 427.128L1218.23 428.268C1216.88 429.746 1215.27 430.963 1213.48 431.856C1211.23 432.979 1208.75 433.564 1206.23 433.564H1203.62C1201.06 433.564 1198.52 433.085 1196.14 432.151C1193.37 431.066 1190.88 429.393 1188.82 427.247L1188.37 426.777C1186.86 425.19 1185.57 423.398 1184.55 421.453L1184.49 421.337C1183.33 419.117 1182.52 416.731 1182.09 414.265L1182.02 413.872C1181.76 412.353 1181.63 410.814 1181.63 409.272V407.368C1181.63 404.276 1182.22 401.213 1183.37 398.343C1184.06 396.609 1184.95 394.962 1186.03 393.432L1187.25 391.688C1187.96 390.679 1188.75 389.732 1189.63 388.861C1191.16 387.332 1192.92 386.047 1194.84 385.05L1196.87 383.994C1198.23 383.292 1199.64 382.706 1201.09 382.245C1203.71 381.414 1206.44 380.991 1209.18 380.991H1210.76C1214.17 380.991 1217.6 381.589 1220.81 382.727C1223.27 383.598 1225.64 384.805 1227.78 386.292C1229.89 387.759 1231.8 389.497 1233.46 391.461L1233.7 391.745C1234.85 393.104 1235.88 394.555 1236.78 396.085L1237.26 396.898C1238.45 398.9 1239.47 400.995 1240.32 403.161L1241.55 406.304L1244.2 403.665C1244.66 403.2 1245.18 402.783 1245.72 402.418L1245.77 402.388C1247.38 401.314 1249.28 400.741 1251.22 400.741C1252.75 400.741 1254.25 401.095 1255.62 401.776L1258 402.966L1254.87 405.914C1253.62 407.095 1252.54 408.451 1251.68 409.94C1250.52 411.947 1249.76 414.162 1249.44 416.46L1247.13 433.286L1246.23 436.562C1244.61 442.496 1242.02 448.121 1238.55 453.207L1236.58 456.097C1235.07 458.318 1233.39 460.427 1231.58 462.407L1229.55 464.614C1226.6 467.825 1223.28 470.679 1219.66 473.118L1219.04 473.541C1216.22 475.444 1213.22 477.085 1210.1 478.443L1203.92 481.13L1210.89 476.401L1215.91 472.507L1217.46 471.042C1219.77 468.87 1221.88 466.506 1223.79 463.976L1225.94 461.102L1227.58 458.421C1229.08 455.959 1230.18 453.273 1230.83 450.465C1231.29 448.476 1231.52 446.442 1231.52 444.401V443.022L1229.04 439.875C1228.65 439.381 1228.17 438.967 1227.63 438.656C1226.89 438.236 1226.06 438.015 1225.21 438.015H1224.03C1223.28 438.015 1222.53 438.212 1221.88 438.586C1221.25 438.941 1220.73 439.445 1220.35 440.053L1219.53 441.353L1218.1 438.498C1217.94 438.177 1217.82 437.839 1217.73 437.49C1217.63 437.1 1217.58 436.698 1217.58 436.296V434.457C1217.58 433.149 1217.97 431.871 1218.7 430.783L1219.46 429.914C1220.25 429.014 1221.16 428.231 1222.17 427.589L1222.84 427.164C1223.42 426.796 1224.05 426.515 1224.71 426.327C1225.34 426.146 1226 426.054 1226.66 426.054H1226.96C1228.66 426.054 1230.34 426.526 1231.79 427.419L1233.19 428.279C1235 429.361 1236.39 431.014 1237.15 432.976L1237.37 433.564L1237.83 431.78C1239.01 427.239 1239.6 422.568 1239.6 417.878V415.484L1239.54 414.9C1239.21 411.595 1238.44 408.349 1237.25 405.249L1237.19 405.097C1236.57 403.493 1235.83 401.937 1234.99 400.441L1234.27 399.169C1233.18 397.259 1231.85 395.504 1230.29 393.952C1228.89 392.549 1227.31 391.324 1225.61 390.303L1224.65 389.728C1223.29 388.912 1221.85 388.222 1220.36 387.665C1217.42 386.563 1214.3 385.998 1211.15 385.998H1207.18C1205.76 385.998 1204.34 386.173 1202.96 386.517C1201.38 386.911 1199.87 387.524 1198.46 388.337L1197.92 388.647C1196.17 389.657 1194.59 390.924 1193.22 392.405C1192.37 393.324 1191.6 394.321 1190.94 395.382L1190.32 396.364C1189.55 397.604 1188.98 398.965 1188.65 400.39C1188.43 401.362 1188.32 402.358 1188.32 403.356V407.225C1188.32 408.644 1188.51 410.057 1188.89 411.425L1188.96 411.695C1189.46 413.462 1190.28 415.118 1191.41 416.572C1192.13 417.512 1192.97 418.357 1193.9 419.09L1195.16 420.075C1195.98 420.721 1196.88 421.27 1197.83 421.712C1199.64 422.556 1201.62 422.994 1203.62 422.994H1206.51C1207.57 422.994 1208.61 422.794 1209.58 422.404C1210.45 422.058 1211.25 421.568 1211.95 420.954L1212.15 420.786C1212.79 420.22 1213.36 419.572 1213.84 418.858L1214.8 417.431C1215.52 416.342 1215.91 415.064 1215.91 413.756V413.064C1215.91 412.094 1215.68 411.138 1215.25 410.271C1214.95 409.67 1214.55 409.122 1214.08 408.647L1213.3 407.868C1213.18 407.753 1213.06 407.646 1212.93 407.548C1212.33 407.102 1211.6 406.86 1210.86 406.86H1208.67C1207.94 406.86 1207.21 407.06 1206.58 407.438C1206.3 407.609 1206.04 407.813 1205.8 408.048L1205.41 408.439C1205.17 408.681 1204.98 408.977 1204.87 409.302C1204.8 409.527 1204.76 409.763 1204.76 410V410.198C1204.76 410.567 1204.82 410.933 1204.94 411.283L1205.04 411.589Z" fill="#E3B750"/>
<path d="M1209.22 305.331H1209.66C1210.82 305.331 1211.94 305.735 1212.82 306.473C1213.02 306.639 1213.21 306.82 1213.38 307.014L1213.46 307.108C1214.5 308.293 1215.07 309.816 1215.07 311.392V311.519C1215.07 312.747 1214.73 313.95 1214.08 314.991C1213.81 315.411 1213.5 315.8 1213.15 316.15L1212.68 316.625C1211.86 317.435 1210.93 318.11 1209.9 318.622C1209.45 318.848 1208.98 319.041 1208.5 319.201L1208.23 319.291C1207.22 319.625 1206.17 319.796 1205.11 319.796C1203.78 319.796 1202.46 319.525 1201.23 319L1201.14 318.961L1200.56 318.705C1199.28 318.136 1198.07 317.406 1196.98 316.531L1196.7 316.306C1196.13 315.852 1195.6 315.348 1195.12 314.8L1194.64 314.256C1194.14 313.687 1193.73 313.046 1193.43 312.355C1193 311.392 1192.77 310.35 1192.77 309.296V305.872C1192.77 304.236 1193.16 302.622 1193.89 301.159C1195.18 299.128 1196.75 297.283 1198.54 295.673L1198.63 295.595L1200.4 294.223C1200.89 293.84 1201.41 293.493 1201.95 293.183L1202.51 292.866C1202.89 292.646 1203.3 292.465 1203.72 292.325C1204.41 292.096 1205.13 291.979 1205.86 291.979H1210.24C1211.04 291.979 1211.85 292.078 1212.63 292.273C1213.33 292.448 1214.12 292.545 1214.76 292.866L1216.16 293.61L1218.23 294.893C1219.1 295.36 1219.92 295.909 1220.68 296.533C1221.95 297.57 1223.05 298.803 1223.93 300.184L1224.55 301.159C1225.29 302.64 1225.93 304.173 1226.45 305.744L1226.78 306.722L1227.34 308.947L1227.62 311.451V318.961L1227.34 321.743L1226.78 324.246L1225.67 327.306L1224.55 330.922L1227.34 330.088L1227.41 330.066C1228.66 329.711 1229.95 329.531 1231.24 329.531H1231.43C1233.14 329.531 1234.84 329.871 1236.43 330.53C1237.06 330.791 1237.66 331.101 1238.24 331.457L1240.07 332.576C1240.69 332.956 1241.27 333.387 1241.82 333.865C1242.75 334.68 1243.57 335.625 1244.23 336.67L1244.28 336.742C1244.88 337.68 1245.36 338.688 1245.71 339.742L1246.01 340.658C1246.38 341.95 1246.57 343.286 1246.57 344.63V345.03C1246.57 346.374 1246.38 347.711 1246.01 349.003L1245.75 349.7C1245.37 350.71 1244.81 351.644 1244.1 352.456C1243.52 353.117 1242.85 353.69 1242.1 354.155L1241.9 354.282C1241.3 354.656 1240.66 354.969 1240 355.216L1238.77 355.679L1238.06 355.881C1237.23 356.116 1236.38 356.235 1235.52 356.235H1235.08C1234.38 356.235 1233.69 356.123 1233.03 355.903C1232.58 355.754 1232.15 355.556 1231.75 355.313L1231.47 355.146C1231.13 354.945 1230.81 354.719 1230.51 354.469C1229.71 353.799 1229.05 352.97 1228.58 352.034L1228.56 351.994C1228.3 351.485 1228.11 350.949 1227.97 350.397L1227.82 349.812C1227.69 349.275 1227.62 348.722 1227.62 348.168L1228.86 348.345C1229.33 348.413 1229.81 348.446 1230.28 348.446H1231.08C1231.37 348.446 1231.66 348.411 1231.94 348.341C1232.4 348.227 1232.83 348.023 1233.21 347.741L1233.46 347.549C1233.65 347.406 1233.83 347.249 1234 347.079L1234.05 347.037C1234.4 346.681 1234.7 346.27 1234.93 345.819C1235.25 345.169 1235.42 344.452 1235.42 343.724V343.121C1235.42 342.233 1235.21 341.357 1234.82 340.563C1234.66 340.256 1234.48 339.963 1234.28 339.689L1234.26 339.671C1233.92 339.218 1233.52 338.817 1233.07 338.477L1232.44 338.011C1231.83 337.554 1231.14 337.213 1230.41 337.003C1229.85 336.844 1229.27 336.763 1228.69 336.763H1226.5C1225.58 336.763 1224.67 336.949 1223.83 337.31C1223.38 337.501 1222.96 337.74 1222.56 338.023L1222.3 338.207C1221.58 338.726 1220.92 339.342 1220.36 340.039L1220.03 340.454C1219.33 341.328 1218.74 342.286 1218.28 343.305L1217.58 344.83L1217.42 345.258C1216.98 346.447 1216.75 347.706 1216.75 348.975C1216.75 349.917 1216.87 350.853 1217.12 351.761L1217.58 353.453L1218.18 355.126C1218.71 356.603 1219.39 358.021 1220.22 359.356C1220.87 360.426 1221.62 361.439 1222.45 362.384L1223.16 363.189L1227.34 367.083L1233.19 372.646L1237.37 377.932L1239.14 380.774C1240.37 382.767 1241.39 384.89 1242.16 387.105C1242.87 389.143 1243.37 391.249 1243.66 393.388L1243.78 394.343V399.628L1242.67 395.456L1241.55 391.005C1240.44 388.045 1239.05 385.197 1237.4 382.499L1236.82 381.548L1233.19 377.097L1231.03 374.938C1229.87 373.783 1228.63 372.718 1227.31 371.751C1225.84 370.681 1224.29 369.736 1222.67 368.927L1219.94 367.564C1219.3 367.244 1218.63 366.98 1217.94 366.774C1216.78 366.426 1215.57 366.249 1214.36 366.249H1206.86C1206.02 366.249 1205.18 366.344 1204.36 366.533L1203.65 366.697C1202.55 366.951 1201.51 367.443 1200.61 368.138C1199.85 368.728 1199.21 369.453 1198.71 370.277L1197.98 371.503C1197.85 371.709 1197.75 371.924 1197.66 372.147L1197.57 372.373C1197.35 372.918 1197 373.399 1196.55 373.775C1195.91 374.304 1195.11 374.594 1194.28 374.594H1193.61C1192.52 374.594 1191.46 374.254 1190.58 373.623C1190.19 373.344 1189.84 373.013 1189.53 372.638L1189.45 372.531C1189.07 372.055 1188.77 371.516 1188.58 370.938L1188.57 370.896C1188.4 370.397 1188.32 369.875 1188.32 369.35C1188.32 368.591 1188.49 367.842 1188.83 367.164L1188.87 367.083C1189.61 365.791 1190.52 364.603 1191.58 363.55L1191.94 363.189L1192.93 362.397C1194.11 361.452 1195.49 360.774 1196.96 360.407L1197.56 360.273C1198.83 359.993 1200.12 359.851 1201.42 359.851H1208.15C1209.96 359.851 1211.75 360.23 1213.4 360.964L1215.35 362.076L1218.7 364.023L1217.58 362.354L1216.75 360.964L1215.63 358.738L1214.91 357.144C1214.46 356.169 1214.1 355.159 1213.81 354.125C1213.54 353.122 1213.34 352.1 1213.23 351.067L1213.12 350.115V345.665L1213.17 345.267C1213.32 343.871 1213.68 342.505 1214.24 341.214C1214.79 339.92 1215.49 338.692 1216.32 337.554L1217.3 336.207L1219.09 334.028C1219.57 333.445 1220.14 332.944 1220.78 332.545L1220.82 332.518C1221.63 332.016 1222.31 331.349 1222.84 330.56C1223.05 330.246 1223.23 329.914 1223.39 329.568L1223.75 328.747C1224.1 327.973 1224.39 327.174 1224.61 326.358L1225.67 322.577C1226.04 320.727 1226.22 318.845 1226.22 316.959V313.085C1226.22 312.368 1226.15 311.654 1225.99 310.955C1225.78 309.993 1225.42 309.068 1224.93 308.213L1224.55 307.556L1222.6 304.497L1220.93 302.494C1220.19 301.606 1219.36 300.795 1218.45 300.073L1217.78 299.535C1217.28 299.135 1216.74 298.789 1216.16 298.502C1214.9 297.871 1213.5 297.542 1212.09 297.542H1211.35C1210.31 297.542 1209.27 297.694 1208.27 297.993C1207.42 298.248 1206.6 298.608 1205.84 299.065L1204.2 300.046C1202.92 300.78 1201.79 301.769 1200.9 302.953L1200.58 303.384L1199.93 304.516C1199.62 305.057 1199.38 305.634 1199.21 306.234L1199.14 306.476C1198.98 307.008 1198.91 307.559 1198.91 308.113C1198.91 308.666 1198.98 309.217 1199.14 309.75L1199.18 309.895C1199.37 310.557 1199.66 311.186 1200.04 311.759C1200.4 312.293 1200.83 312.772 1201.32 313.182L1201.98 313.728C1202.16 313.878 1202.35 314.015 1202.56 314.136C1203.27 314.563 1204.08 314.789 1204.92 314.789H1206.98C1207.17 314.789 1207.37 314.772 1207.56 314.741C1208.44 314.594 1209.24 314.112 1209.78 313.398L1210.11 312.978C1210.63 312.333 1211.08 311.634 1211.45 310.894L1211.46 310.871C1211.81 309.988 1211.84 309.008 1211.54 308.106C1211.48 307.925 1211.41 307.749 1211.32 307.579L1211.31 307.552C1211.03 307.005 1210.65 306.519 1210.18 306.127L1209.22 305.331Z" fill="#E3B750"/>
<path d="M1213.96 582.659C1213.96 582.659 1217.7 587.925 1218.14 591.839C1218.3 593.242 1218.4 594.066 1218.14 595.455C1217.91 596.705 1217.03 598.515 1217.03 598.515C1217.03 598.515 1219.88 599.471 1221.21 598.515C1222.43 597.627 1222.6 594.899 1222.6 594.899C1222.6 594.899 1223.86 596.924 1225.11 597.68C1226.63 598.595 1229.57 598.515 1229.57 598.515C1229.57 598.515 1229.53 596.214 1229.01 594.899C1228.34 593.175 1225.94 591.839 1225.94 591.839C1225.94 591.839 1227.98 591.405 1228.73 590.448C1229.8 589.078 1228.73 585.997 1228.73 585.997C1228.73 585.997 1226.77 588.16 1225.11 588.223C1223.84 588.271 1223.22 587.593 1222.04 587.11C1218.71 585.745 1213.96 582.659 1213.96 582.659Z" fill="#E3B750"/>
</svg>
