<svg width="1440" height="921" viewBox="0 0 1440 921" fill="none" xmlns="http://www.w3.org/2000/svg">
<path d="M67.5 921H90L678.5 150H671L67.5 921Z" fill="#FFCF25"/>
<path fill-rule="evenodd" clip-rule="evenodd" d="M645 150H671L67.5 921H45H0L645 150ZM180 921H90L678.5 150H720H785.5H764.816L1350 921H1260H1080H720H360H180ZM1372.5 921H1395H1440L795 150H785.5H772.5L1372.5 921Z" fill="#AA0000"/>
<path d="M772.5 150H764.816L1350 921H1372.5L772.5 150Z" fill="#FFCF25"/>
<path d="M257.335 158.422C257.335 164.652 256.109 170.821 253.725 176.577C251.341 182.333 247.847 187.563 243.443 191.968C239.038 196.373 233.81 199.868 228.055 202.252C222.3 204.636 216.132 205.864 209.904 205.864C203.675 205.864 197.507 204.636 191.752 202.252C185.997 199.868 180.769 196.373 176.364 191.968C171.96 187.563 168.466 182.333 166.082 176.577C163.699 170.821 162.472 164.652 162.472 158.421L257.335 158.422Z" fill="url(#paint0_linear_34_3)"/>
<path d="M137.981 164.473C137.981 158.503 140.353 152.777 144.573 148.555C148.794 144.334 154.518 141.962 160.487 141.962C166.456 141.962 172.181 144.334 176.401 148.555C180.622 152.777 182.993 158.503 182.993 164.473L173.991 164.473C173.991 160.891 172.568 157.455 170.036 154.922C167.503 152.389 164.069 150.966 160.487 150.966C156.906 150.966 153.471 152.389 150.939 154.922C148.406 157.455 146.984 160.891 146.984 164.473H137.981Z" fill="url(#paint1_linear_34_3)"/>
<path d="M146.984 190.13C146.984 196.1 144.613 201.826 140.392 206.048C136.171 210.269 130.447 212.641 124.478 212.641C118.509 212.641 112.784 210.269 108.564 206.048C104.343 201.826 101.972 196.101 101.972 190.13H110.974C110.974 193.712 112.397 197.148 114.929 199.681C117.462 202.214 120.897 203.637 124.478 203.637C128.059 203.637 131.494 202.214 134.026 199.681C136.559 197.148 137.981 193.712 137.981 190.13H146.984Z" fill="url(#paint2_linear_34_3)"/>
<path d="M101.972 190.13H110.974V162.052H101.972V190.13Z" fill="url(#paint3_linear_34_3)"/>
<path d="M146.984 164.473H137.981V190.13H146.984V164.473Z" fill="url(#paint4_linear_34_3)"/>
<path d="M169.73 149.772L177.889 153.577L214.138 75.826L205.979 72.0206L169.73 149.772Z" fill="url(#paint5_linear_34_3)"/>
<path d="M250.235 149.77L242.076 153.576L205.855 75.8827L214.014 72.0773L250.235 149.77Z" fill="url(#paint6_linear_34_3)"/>
<path d="M205.544 212.641C205.546 220.629 214.74 221.597 214.74 212.641V29.6503H205.544V212.641Z" fill="url(#paint7_linear_34_3)"/>
<path d="M126.656 174.397C126.656 179.147 124.514 183.703 120.702 187.062C116.89 190.422 111.719 192.309 106.328 192.309C100.937 192.309 95.7662 190.422 91.9539 187.062C88.1417 183.703 86 179.147 86 174.397L126.656 174.397Z" fill="url(#paint8_linear_34_3)"/>
<path d="M230.232 19C230.232 23.7505 228.09 28.3064 224.278 31.6655C220.465 35.0247 215.295 36.9118 209.904 36.9118C204.512 36.9118 199.342 35.0247 195.53 31.6656C191.717 28.3065 189.576 23.7505 189.576 19L230.232 19Z" fill="url(#paint9_linear_34_3)"/>
<path d="M282.019 164.473C282.019 158.503 279.647 152.777 275.427 148.555C271.206 144.334 265.482 141.962 259.513 141.962C253.544 141.962 247.819 144.334 243.599 148.555C239.378 152.777 237.007 158.503 237.007 164.473L246.009 164.473C246.009 160.891 247.432 157.455 249.964 154.922C252.497 152.389 255.931 150.966 259.513 150.966C263.094 150.966 266.529 152.389 269.061 154.922C271.594 157.455 273.016 160.891 273.016 164.473H282.019Z" fill="url(#paint10_linear_34_3)"/>
<path d="M273.016 190.13C273.016 196.1 275.387 201.826 279.608 206.048C283.829 210.269 289.553 212.641 295.522 212.641C301.491 212.641 307.216 210.269 311.436 206.048C315.657 201.826 318.028 196.101 318.028 190.13H309.026C309.026 193.712 307.603 197.148 305.071 199.681C302.538 202.214 299.103 203.637 295.522 203.637C291.941 203.637 288.506 202.214 285.974 199.681C283.441 197.148 282.019 193.712 282.019 190.13H273.016Z" fill="url(#paint11_linear_34_3)"/>
<path d="M318.028 190.13H309.026V162.052H318.028V190.13Z" fill="url(#paint12_linear_34_3)"/>
<path d="M273.016 164.473H282.019V190.13H273.016V164.473Z" fill="url(#paint13_linear_34_3)"/>
<path d="M293.344 174.397C293.344 179.147 295.486 183.703 299.298 187.062C303.11 190.422 308.281 192.309 313.672 192.309C319.063 192.309 324.234 190.422 328.046 187.062C331.858 183.703 334 179.147 334 174.397L293.344 174.397Z" fill="url(#paint14_linear_34_3)"/>
<path d="M113.104 150.192C113.104 154.737 109.42 158.422 104.876 158.422C100.332 158.422 96.648 154.737 96.648 150.192C96.648 145.647 100.332 134.458 104.876 134.458C109.42 134.458 113.104 145.647 113.104 150.192Z" fill="url(#paint15_linear_34_3)"/>
<path d="M321.707 150.434C321.707 154.979 318.023 158.664 313.479 158.664C308.935 158.664 305.251 154.979 305.251 150.434C305.251 145.889 308.935 134.7 313.479 134.7C318.023 134.7 321.707 145.889 321.707 150.434Z" fill="url(#paint16_linear_34_3)"/>
<path d="M1277.34 158.422C1277.34 164.652 1276.11 170.821 1273.72 176.577C1271.34 182.333 1267.85 187.563 1263.44 191.968C1259.04 196.373 1253.81 199.868 1248.05 202.252C1242.3 204.636 1236.13 205.864 1229.9 205.864C1223.67 205.864 1217.51 204.636 1211.75 202.252C1206 199.868 1200.77 196.373 1196.36 191.968C1191.96 187.563 1188.47 182.333 1186.08 176.577C1183.7 170.821 1182.47 164.652 1182.47 158.421L1277.34 158.422Z" fill="url(#paint17_linear_34_3)"/>
<path d="M1157.98 164.473C1157.98 158.503 1160.35 152.777 1164.57 148.555C1168.79 144.334 1174.52 141.962 1180.49 141.962C1186.46 141.962 1192.18 144.334 1196.4 148.555C1200.62 152.777 1202.99 158.503 1202.99 164.473L1193.99 164.473C1193.99 160.891 1192.57 157.455 1190.04 154.922C1187.5 152.389 1184.07 150.966 1180.49 150.966C1176.91 150.966 1173.47 152.389 1170.94 154.922C1168.41 157.455 1166.98 160.891 1166.98 164.473H1157.98Z" fill="url(#paint18_linear_34_3)"/>
<path d="M1166.98 190.13C1166.98 196.1 1164.61 201.826 1160.39 206.048C1156.17 210.269 1150.45 212.641 1144.48 212.641C1138.51 212.641 1132.78 210.269 1128.56 206.048C1124.34 201.826 1121.97 196.101 1121.97 190.13H1130.97C1130.97 193.712 1132.4 197.148 1134.93 199.681C1137.46 202.214 1140.9 203.637 1144.48 203.637C1148.06 203.637 1151.49 202.214 1154.03 199.681C1156.56 197.148 1157.98 193.712 1157.98 190.13H1166.98Z" fill="url(#paint19_linear_34_3)"/>
<path d="M1121.97 190.13H1130.97V162.052H1121.97V190.13Z" fill="url(#paint20_linear_34_3)"/>
<path d="M1166.98 164.473H1157.98V190.13H1166.98V164.473Z" fill="url(#paint21_linear_34_3)"/>
<path d="M1189.73 149.772L1197.89 153.577L1234.14 75.826L1225.98 72.0206L1189.73 149.772Z" fill="url(#paint22_linear_34_3)"/>
<path d="M1270.23 149.77L1262.08 153.576L1225.85 75.8827L1234.01 72.0773L1270.23 149.77Z" fill="url(#paint23_linear_34_3)"/>
<path d="M1225.54 212.641C1225.55 220.629 1234.74 221.597 1234.74 212.641V29.6503H1225.54V212.641Z" fill="url(#paint24_linear_34_3)"/>
<path d="M1146.66 174.397C1146.66 179.147 1144.51 183.703 1140.7 187.062C1136.89 190.422 1131.72 192.309 1126.33 192.309C1120.94 192.309 1115.77 190.422 1111.95 187.062C1108.14 183.703 1106 179.147 1106 174.397L1146.66 174.397Z" fill="url(#paint25_linear_34_3)"/>
<path d="M1250.23 19C1250.23 23.7505 1248.09 28.3064 1244.28 31.6655C1240.47 35.0247 1235.29 36.9118 1229.9 36.9118C1224.51 36.9118 1219.34 35.0247 1215.53 31.6656C1211.72 28.3065 1209.58 23.7505 1209.58 19L1250.23 19Z" fill="url(#paint26_linear_34_3)"/>
<path d="M1302.02 164.473C1302.02 158.503 1299.65 152.777 1295.43 148.555C1291.21 144.334 1285.48 141.962 1279.51 141.962C1273.54 141.962 1267.82 144.334 1263.6 148.555C1259.38 152.777 1257.01 158.503 1257.01 164.473L1266.01 164.473C1266.01 160.891 1267.43 157.455 1269.96 154.922C1272.5 152.389 1275.93 150.966 1279.51 150.966C1283.09 150.966 1286.53 152.389 1289.06 154.922C1291.59 157.455 1293.02 160.891 1293.02 164.473H1302.02Z" fill="url(#paint27_linear_34_3)"/>
<path d="M1293.02 190.13C1293.02 196.1 1295.39 201.826 1299.61 206.048C1303.83 210.269 1309.55 212.641 1315.52 212.641C1321.49 212.641 1327.22 210.269 1331.44 206.048C1335.66 201.826 1338.03 196.101 1338.03 190.13H1329.03C1329.03 193.712 1327.6 197.148 1325.07 199.681C1322.54 202.214 1319.1 203.637 1315.52 203.637C1311.94 203.637 1308.51 202.214 1305.97 199.681C1303.44 197.148 1302.02 193.712 1302.02 190.13H1293.02Z" fill="url(#paint28_linear_34_3)"/>
<path d="M1338.03 190.13H1329.03V162.052H1338.03V190.13Z" fill="url(#paint29_linear_34_3)"/>
<path d="M1293.02 164.473H1302.02V190.13H1293.02V164.473Z" fill="url(#paint30_linear_34_3)"/>
<path d="M1313.34 174.397C1313.34 179.147 1315.49 183.703 1319.3 187.062C1323.11 190.422 1328.28 192.309 1333.67 192.309C1339.06 192.309 1344.23 190.422 1348.05 187.062C1351.86 183.703 1354 179.147 1354 174.397L1313.34 174.397Z" fill="url(#paint31_linear_34_3)"/>
<path d="M1133.1 150.192C1133.1 154.737 1129.42 158.422 1124.88 158.422C1120.33 158.422 1116.65 154.737 1116.65 150.192C1116.65 145.647 1120.33 134.458 1124.88 134.458C1129.42 134.458 1133.1 145.647 1133.1 150.192Z" fill="url(#paint32_linear_34_3)"/>
<path d="M1341.71 150.434C1341.71 154.979 1338.02 158.664 1333.48 158.664C1328.94 158.664 1325.25 154.979 1325.25 150.434C1325.25 145.889 1328.94 134.7 1333.48 134.7C1338.02 134.7 1341.71 145.889 1341.71 150.434Z" fill="url(#paint33_linear_34_3)"/>
<rect x="645" width="150" height="150" fill="#A97754"/>
<rect x="645" width="150" height="150" fill="#A97754"/>
<defs>
<linearGradient id="paint0_linear_34_3" x1="210" y1="19" x2="210" y2="219" gradientUnits="userSpaceOnUse">
<stop stop-color="#9F5324"/>
<stop offset="0.11" stop-color="#D2992A"/>
<stop offset="0.475" stop-color="#F8D261"/>
<stop offset="0.735" stop-color="#F8D261"/>
<stop offset="0.93" stop-color="#DEB04B"/>
</linearGradient>
<linearGradient id="paint1_linear_34_3" x1="210" y1="19" x2="210" y2="219" gradientUnits="userSpaceOnUse">
<stop stop-color="#9F5324"/>
<stop offset="0.11" stop-color="#D2992A"/>
<stop offset="0.475" stop-color="#F8D261"/>
<stop offset="0.735" stop-color="#F8D261"/>
<stop offset="0.93" stop-color="#DEB04B"/>
</linearGradient>
<linearGradient id="paint2_linear_34_3" x1="210" y1="19" x2="210" y2="219" gradientUnits="userSpaceOnUse">
<stop stop-color="#9F5324"/>
<stop offset="0.11" stop-color="#D2992A"/>
<stop offset="0.475" stop-color="#F8D261"/>
<stop offset="0.735" stop-color="#F8D261"/>
<stop offset="0.93" stop-color="#DEB04B"/>
</linearGradient>
<linearGradient id="paint3_linear_34_3" x1="210" y1="19" x2="210" y2="219" gradientUnits="userSpaceOnUse">
<stop stop-color="#9F5324"/>
<stop offset="0.11" stop-color="#D2992A"/>
<stop offset="0.475" stop-color="#F8D261"/>
<stop offset="0.735" stop-color="#F8D261"/>
<stop offset="0.93" stop-color="#DEB04B"/>
</linearGradient>
<linearGradient id="paint4_linear_34_3" x1="210" y1="19" x2="210" y2="219" gradientUnits="userSpaceOnUse">
<stop stop-color="#9F5324"/>
<stop offset="0.11" stop-color="#D2992A"/>
<stop offset="0.475" stop-color="#F8D261"/>
<stop offset="0.735" stop-color="#F8D261"/>
<stop offset="0.93" stop-color="#DEB04B"/>
</linearGradient>
<linearGradient id="paint5_linear_34_3" x1="210" y1="19" x2="210" y2="219" gradientUnits="userSpaceOnUse">
<stop stop-color="#9F5324"/>
<stop offset="0.11" stop-color="#D2992A"/>
<stop offset="0.475" stop-color="#F8D261"/>
<stop offset="0.735" stop-color="#F8D261"/>
<stop offset="0.93" stop-color="#DEB04B"/>
</linearGradient>
<linearGradient id="paint6_linear_34_3" x1="210" y1="19" x2="210" y2="219" gradientUnits="userSpaceOnUse">
<stop stop-color="#9F5324"/>
<stop offset="0.11" stop-color="#D2992A"/>
<stop offset="0.475" stop-color="#F8D261"/>
<stop offset="0.735" stop-color="#F8D261"/>
<stop offset="0.93" stop-color="#DEB04B"/>
</linearGradient>
<linearGradient id="paint7_linear_34_3" x1="210" y1="19" x2="210" y2="219" gradientUnits="userSpaceOnUse">
<stop stop-color="#9F5324"/>
<stop offset="0.11" stop-color="#D2992A"/>
<stop offset="0.475" stop-color="#F8D261"/>
<stop offset="0.735" stop-color="#F8D261"/>
<stop offset="0.93" stop-color="#DEB04B"/>
</linearGradient>
<linearGradient id="paint8_linear_34_3" x1="210" y1="19" x2="210" y2="219" gradientUnits="userSpaceOnUse">
<stop stop-color="#9F5324"/>
<stop offset="0.11" stop-color="#D2992A"/>
<stop offset="0.475" stop-color="#F8D261"/>
<stop offset="0.735" stop-color="#F8D261"/>
<stop offset="0.93" stop-color="#DEB04B"/>
</linearGradient>
<linearGradient id="paint9_linear_34_3" x1="210" y1="19" x2="210" y2="219" gradientUnits="userSpaceOnUse">
<stop stop-color="#9F5324"/>
<stop offset="0.11" stop-color="#D2992A"/>
<stop offset="0.475" stop-color="#F8D261"/>
<stop offset="0.735" stop-color="#F8D261"/>
<stop offset="0.93" stop-color="#DEB04B"/>
</linearGradient>
<linearGradient id="paint10_linear_34_3" x1="210" y1="19" x2="210" y2="219" gradientUnits="userSpaceOnUse">
<stop stop-color="#9F5324"/>
<stop offset="0.11" stop-color="#D2992A"/>
<stop offset="0.475" stop-color="#F8D261"/>
<stop offset="0.735" stop-color="#F8D261"/>
<stop offset="0.93" stop-color="#DEB04B"/>
</linearGradient>
<linearGradient id="paint11_linear_34_3" x1="210" y1="19" x2="210" y2="219" gradientUnits="userSpaceOnUse">
<stop stop-color="#9F5324"/>
<stop offset="0.11" stop-color="#D2992A"/>
<stop offset="0.475" stop-color="#F8D261"/>
<stop offset="0.735" stop-color="#F8D261"/>
<stop offset="0.93" stop-color="#DEB04B"/>
</linearGradient>
<linearGradient id="paint12_linear_34_3" x1="210" y1="19" x2="210" y2="219" gradientUnits="userSpaceOnUse">
<stop stop-color="#9F5324"/>
<stop offset="0.11" stop-color="#D2992A"/>
<stop offset="0.475" stop-color="#F8D261"/>
<stop offset="0.735" stop-color="#F8D261"/>
<stop offset="0.93" stop-color="#DEB04B"/>
</linearGradient>
<linearGradient id="paint13_linear_34_3" x1="210" y1="19" x2="210" y2="219" gradientUnits="userSpaceOnUse">
<stop stop-color="#9F5324"/>
<stop offset="0.11" stop-color="#D2992A"/>
<stop offset="0.475" stop-color="#F8D261"/>
<stop offset="0.735" stop-color="#F8D261"/>
<stop offset="0.93" stop-color="#DEB04B"/>
</linearGradient>
<linearGradient id="paint14_linear_34_3" x1="210" y1="19" x2="210" y2="219" gradientUnits="userSpaceOnUse">
<stop stop-color="#9F5324"/>
<stop offset="0.11" stop-color="#D2992A"/>
<stop offset="0.475" stop-color="#F8D261"/>
<stop offset="0.735" stop-color="#F8D261"/>
<stop offset="0.93" stop-color="#DEB04B"/>
</linearGradient>
<linearGradient id="paint15_linear_34_3" x1="210" y1="19" x2="210" y2="219" gradientUnits="userSpaceOnUse">
<stop stop-color="#9F5324"/>
<stop offset="0.11" stop-color="#D2992A"/>
<stop offset="0.475" stop-color="#F8D261"/>
<stop offset="0.735" stop-color="#F8D261"/>
<stop offset="0.93" stop-color="#DEB04B"/>
</linearGradient>
<linearGradient id="paint16_linear_34_3" x1="210" y1="19" x2="210" y2="219" gradientUnits="userSpaceOnUse">
<stop stop-color="#9F5324"/>
<stop offset="0.11" stop-color="#D2992A"/>
<stop offset="0.475" stop-color="#F8D261"/>
<stop offset="0.735" stop-color="#F8D261"/>
<stop offset="0.93" stop-color="#DEB04B"/>
</linearGradient>
<linearGradient id="paint17_linear_34_3" x1="1230" y1="19" x2="1230" y2="219" gradientUnits="userSpaceOnUse">
<stop stop-color="#9F5324"/>
<stop offset="0.11" stop-color="#D2992A"/>
<stop offset="0.475" stop-color="#F8D261"/>
<stop offset="0.735" stop-color="#F8D261"/>
<stop offset="0.93" stop-color="#DEB04B"/>
</linearGradient>
<linearGradient id="paint18_linear_34_3" x1="1230" y1="19" x2="1230" y2="219" gradientUnits="userSpaceOnUse">
<stop stop-color="#9F5324"/>
<stop offset="0.11" stop-color="#D2992A"/>
<stop offset="0.475" stop-color="#F8D261"/>
<stop offset="0.735" stop-color="#F8D261"/>
<stop offset="0.93" stop-color="#DEB04B"/>
</linearGradient>
<linearGradient id="paint19_linear_34_3" x1="1230" y1="19" x2="1230" y2="219" gradientUnits="userSpaceOnUse">
<stop stop-color="#9F5324"/>
<stop offset="0.11" stop-color="#D2992A"/>
<stop offset="0.475" stop-color="#F8D261"/>
<stop offset="0.735" stop-color="#F8D261"/>
<stop offset="0.93" stop-color="#DEB04B"/>
</linearGradient>
<linearGradient id="paint20_linear_34_3" x1="1230" y1="19" x2="1230" y2="219" gradientUnits="userSpaceOnUse">
<stop stop-color="#9F5324"/>
<stop offset="0.11" stop-color="#D2992A"/>
<stop offset="0.475" stop-color="#F8D261"/>
<stop offset="0.735" stop-color="#F8D261"/>
<stop offset="0.93" stop-color="#DEB04B"/>
</linearGradient>
<linearGradient id="paint21_linear_34_3" x1="1230" y1="19" x2="1230" y2="219" gradientUnits="userSpaceOnUse">
<stop stop-color="#9F5324"/>
<stop offset="0.11" stop-color="#D2992A"/>
<stop offset="0.475" stop-color="#F8D261"/>
<stop offset="0.735" stop-color="#F8D261"/>
<stop offset="0.93" stop-color="#DEB04B"/>
</linearGradient>
<linearGradient id="paint22_linear_34_3" x1="1230" y1="19" x2="1230" y2="219" gradientUnits="userSpaceOnUse">
<stop stop-color="#9F5324"/>
<stop offset="0.11" stop-color="#D2992A"/>
<stop offset="0.475" stop-color="#F8D261"/>
<stop offset="0.735" stop-color="#F8D261"/>
<stop offset="0.93" stop-color="#DEB04B"/>
</linearGradient>
<linearGradient id="paint23_linear_34_3" x1="1230" y1="19" x2="1230" y2="219" gradientUnits="userSpaceOnUse">
<stop stop-color="#9F5324"/>
<stop offset="0.11" stop-color="#D2992A"/>
<stop offset="0.475" stop-color="#F8D261"/>
<stop offset="0.735" stop-color="#F8D261"/>
<stop offset="0.93" stop-color="#DEB04B"/>
</linearGradient>
<linearGradient id="paint24_linear_34_3" x1="1230" y1="19" x2="1230" y2="219" gradientUnits="userSpaceOnUse">
<stop stop-color="#9F5324"/>
<stop offset="0.11" stop-color="#D2992A"/>
<stop offset="0.475" stop-color="#F8D261"/>
<stop offset="0.735" stop-color="#F8D261"/>
<stop offset="0.93" stop-color="#DEB04B"/>
</linearGradient>
<linearGradient id="paint25_linear_34_3" x1="1230" y1="19" x2="1230" y2="219" gradientUnits="userSpaceOnUse">
<stop stop-color="#9F5324"/>
<stop offset="0.11" stop-color="#D2992A"/>
<stop offset="0.475" stop-color="#F8D261"/>
<stop offset="0.735" stop-color="#F8D261"/>
<stop offset="0.93" stop-color="#DEB04B"/>
</linearGradient>
<linearGradient id="paint26_linear_34_3" x1="1230" y1="19" x2="1230" y2="219" gradientUnits="userSpaceOnUse">
<stop stop-color="#9F5324"/>
<stop offset="0.11" stop-color="#D2992A"/>
<stop offset="0.475" stop-color="#F8D261"/>
<stop offset="0.735" stop-color="#F8D261"/>
<stop offset="0.93" stop-color="#DEB04B"/>
</linearGradient>
<linearGradient id="paint27_linear_34_3" x1="1230" y1="19" x2="1230" y2="219" gradientUnits="userSpaceOnUse">
<stop stop-color="#9F5324"/>
<stop offset="0.11" stop-color="#D2992A"/>
<stop offset="0.475" stop-color="#F8D261"/>
<stop offset="0.735" stop-color="#F8D261"/>
<stop offset="0.93" stop-color="#DEB04B"/>
</linearGradient>
<linearGradient id="paint28_linear_34_3" x1="1230" y1="19" x2="1230" y2="219" gradientUnits="userSpaceOnUse">
<stop stop-color="#9F5324"/>
<stop offset="0.11" stop-color="#D2992A"/>
<stop offset="0.475" stop-color="#F8D261"/>
<stop offset="0.735" stop-color="#F8D261"/>
<stop offset="0.93" stop-color="#DEB04B"/>
</linearGradient>
<linearGradient id="paint29_linear_34_3" x1="1230" y1="19" x2="1230" y2="219" gradientUnits="userSpaceOnUse">
<stop stop-color="#9F5324"/>
<stop offset="0.11" stop-color="#D2992A"/>
<stop offset="0.475" stop-color="#F8D261"/>
<stop offset="0.735" stop-color="#F8D261"/>
<stop offset="0.93" stop-color="#DEB04B"/>
</linearGradient>
<linearGradient id="paint30_linear_34_3" x1="1230" y1="19" x2="1230" y2="219" gradientUnits="userSpaceOnUse">
<stop stop-color="#9F5324"/>
<stop offset="0.11" stop-color="#D2992A"/>
<stop offset="0.475" stop-color="#F8D261"/>
<stop offset="0.735" stop-color="#F8D261"/>
<stop offset="0.93" stop-color="#DEB04B"/>
</linearGradient>
<linearGradient id="paint31_linear_34_3" x1="1230" y1="19" x2="1230" y2="219" gradientUnits="userSpaceOnUse">
<stop stop-color="#9F5324"/>
<stop offset="0.11" stop-color="#D2992A"/>
<stop offset="0.475" stop-color="#F8D261"/>
<stop offset="0.735" stop-color="#F8D261"/>
<stop offset="0.93" stop-color="#DEB04B"/>
</linearGradient>
<linearGradient id="paint32_linear_34_3" x1="1230" y1="19" x2="1230" y2="219" gradientUnits="userSpaceOnUse">
<stop stop-color="#9F5324"/>
<stop offset="0.11" stop-color="#D2992A"/>
<stop offset="0.475" stop-color="#F8D261"/>
<stop offset="0.735" stop-color="#F8D261"/>
<stop offset="0.93" stop-color="#DEB04B"/>
</linearGradient>
<linearGradient id="paint33_linear_34_3" x1="1230" y1="19" x2="1230" y2="219" gradientUnits="userSpaceOnUse">
<stop stop-color="#9F5324"/>
<stop offset="0.11" stop-color="#D2992A"/>
<stop offset="0.475" stop-color="#F8D261"/>
<stop offset="0.735" stop-color="#F8D261"/>
<stop offset="0.93" stop-color="#DEB04B"/>
</linearGradient>
</defs>
</svg>
