<svg width="531" height="723" viewBox="0 0 531 723" fill="none" xmlns="http://www.w3.org/2000/svg">
<g filter="url(#filter0_d_111_106)">
<path d="M166.218 239.583C166.218 239.583 108.105 331.552 113.699 350.105C119.294 368.658 144.635 383.902 149.275 386.454C153.915 389.006 176.9 406.769 193.151 386.454C209.402 366.138 173.683 339.195 173.683 339.195L188.492 311.972C277.183 447.998 290.91 518.888 281.956 677.624C281.956 677.624 280.731 711.039 316.611 711.027C352.491 711.016 348.775 677.624 348.775 677.624L348.775 446.851C383.573 482.804 402.283 500.597 426.114 505.627L294.33 256.91L426.114 289.701C426.114 289.701 451.233 294.026 456.43 269.902C461.627 245.779 439.725 239.583 439.725 239.583L232.46 190.709L217.612 196.277L281.956 358.377L232.46 371.369L166.218 239.583Z" fill="black"/>
<path d="M193.151 233.705L195.65 226.904L203.738 229.989L265.867 345.999L244.212 352.193L193.151 233.705Z" fill="black"/>
<path d="M217.612 196.277L281.956 358.377L232.46 371.369L166.218 239.583L173.683 230.758L188.492 246.389L193.151 233.705L244.212 352.193L265.867 345.999L203.738 229.989L225.65 238.349L209.715 202.303L217.612 196.277Z" fill="white"/>
<path fill-rule="evenodd" clip-rule="evenodd" d="M187.582 221.623L201.863 192.593L203.738 188.782L209.715 202.303L225.65 238.349L203.738 229.989L195.65 226.904L193.151 233.705L188.492 246.389L173.683 230.758L166.218 222.878L176.9 222.25L187.582 221.623ZM187.582 221.623L186.669 223.478L195.65 226.904L197.811 221.022L187.582 221.623Z" fill="black"/>
<path d="M195.65 226.904L186.669 223.478L187.582 221.623L197.811 221.022L195.65 226.904Z" fill="black"/>
<path d="M201.863 192.593L187.582 221.623L176.9 222.25L162.421 209.348L188.128 177.136L201.863 192.593Z" fill="#FFDFB9"/>
<path d="M117.082 110.232C93.5582 147.723 138.519 228.477 118.698 245.464C115.661 229.212 111.09 220.939 88.7472 238.89C100.276 220.773 97.8848 220.438 69.2711 184.773C34.1384 140.984 36.4215 88.8732 69.5235 69.4057C120.974 39.1475 158.111 44.8432 117.082 110.232Z" fill="url(#paint0_linear_111_106)"/>
<path d="M120.668 107.193C164.867 104.856 213.589 183.398 238.068 174.332C225.341 163.779 220.332 155.763 246.88 144.962C225.444 146.232 226.313 143.979 209.051 101.638C187.857 49.6512 141.206 26.3192 108.104 45.7866C56.6536 76.0449 43.5817 111.269 120.668 107.193Z" fill="url(#paint1_linear_111_106)"/>
<path d="M197.878 91.7394C223.061 134.561 204.238 174.668 174.941 209.581C137.573 217.887 85.99 215.173 60.8064 172.352C35.6228 129.53 45.892 76.7707 83.7432 54.5102C121.594 32.2497 172.694 48.9178 197.878 91.7394Z" fill="#FFDFB9"/>
<path d="M146.56 194.598L155.254 192.746L162.869 188.268L171.523 183.179L175.29 177.702" stroke="#EB576D" stroke-width="5" stroke-linecap="round"/>
<path d="M82.9482 48.282C94.5833 41.4393 107.248 37.1786 119.287 35.9419C153.044 27.6065 189.109 57.9319 208.245 102.367C216.683 121.962 219.163 174.028 213.278 195.93C210.233 163.897 189.049 139.529 181.242 135.545C170.421 130.025 157.14 138.759 147.505 134.422C132.732 127.772 117.609 131.218 100.646 130.469C98.1093 134.955 95.7308 138.993 93.5528 142.689C82.2292 161.912 76.3221 171.941 81.6435 188.127C85.3091 199.276 115.44 232.463 129.317 246.676C108.939 234.539 80.8202 206.832 67.8259 189.93C44.4094 159.472 36.7717 126.306 43.8052 103.54C43.9279 97.1861 45.6274 90.4129 48.8954 83.5912C55.4218 69.967 67.6713 57.2664 82.9482 48.282Z" fill="url(#paint2_linear_111_106)"/>
<path d="M190.633 106.091C190.633 106.091 176.862 103.934 168.066 107.275C162.935 109.224 153.829 118.781 149.974 122.624C141.897 130.675 141.944 143.976 141.944 143.976C141.944 143.976 151.757 130.943 159.984 123.305C169.232 114.72 190.633 106.091 190.633 106.091Z" fill="black"/>
<path d="M70.0296 180.414C70.0296 180.414 74.1353 167.094 80.9978 160.657C85.0013 156.901 97.5848 152.913 102.73 151.136C113.509 147.412 125.44 153.291 125.44 153.291C125.44 153.291 109.422 156.389 98.9489 160.43C87.1757 164.972 70.0296 180.414 70.0296 180.414Z" fill="black"/>
<rect x="86.415" y="180.118" width="47.3189" height="22.2058" transform="rotate(-30.46 86.415 180.118)" fill="#BEFFFF" fill-opacity="0.6" stroke="black" stroke-width="5"/>
<rect x="145.944" y="145.097" width="47.3189" height="22.2058" transform="rotate(-30.46 145.944 145.097)" fill="#BEFFFF" fill-opacity="0.6" stroke="black" stroke-width="5"/>
</g>
<defs>
<filter id="filter0_d_111_106" x="37.2915" y="34.5615" width="423.936" height="684.466" filterUnits="userSpaceOnUse" color-interpolation-filters="sRGB">
<feFlood flood-opacity="0" result="BackgroundImageFix"/>
<feColorMatrix in="SourceAlpha" type="matrix" values="0 0 0 0 0 0 0 0 0 0 0 0 0 0 0 0 0 0 127 0" result="hardAlpha"/>
<feOffset dy="4"/>
<feGaussianBlur stdDeviation="2"/>
<feComposite in2="hardAlpha" operator="out"/>
<feColorMatrix type="matrix" values="0 0 0 0 0 0 0 0 0 0 0 0 0 0 0 0 0 0 0.25 0"/>
<feBlend mode="normal" in2="BackgroundImageFix" result="effect1_dropShadow_111_106"/>
<feBlend mode="normal" in="SourceGraphic" in2="effect1_dropShadow_111_106" result="shape"/>
</filter>
<linearGradient id="paint0_linear_111_106" x1="66.3398" y1="71.2781" x2="155.668" y2="223.17" gradientUnits="userSpaceOnUse">
<stop stop-color="#2C2020"/>
<stop offset="1" stop-color="#646464"/>
</linearGradient>
<linearGradient id="paint1_linear_111_106" x1="111.288" y1="43.9143" x2="200.616" y2="195.806" gradientUnits="userSpaceOnUse">
<stop stop-color="#2C2020"/>
<stop offset="1" stop-color="#646464"/>
</linearGradient>
<linearGradient id="paint2_linear_111_106" x1="81.1544" y1="49.3365" x2="179.763" y2="217.008" gradientUnits="userSpaceOnUse">
<stop stop-color="#241503"/>
<stop offset="1" stop-color="#454545"/>
</linearGradient>
</defs>
</svg>
