<svg width="819" height="751" viewBox="0 0 819 751" fill="none" xmlns="http://www.w3.org/2000/svg">
<path d="M86 699C86 699 107.136 505.115 107.136 380.5C107.136 255.885 86 62 86 62H732C732 62 710.864 255.885 710.864 380.5C710.864 505.115 732 699 732 699L86 699Z" fill="url(#paint0_linear_228_64)"/>
<path d="M70 13C70 13 276.572 32.5 409.341 32.5C542.11 32.5 748.681 13 748.681 13V91C748.681 91 542.11 71.5 409.341 71.5C276.572 71.5 70 91 70 91V13Z" fill="url(#paint1_linear_228_64)"/>
<path d="M748.682 13H776.383V91H748.682V13Z" fill="url(#paint2_linear_228_64)"/>
<path d="M748.682 91C748.682 92.7072 749.04 94.3977 749.736 95.9749C750.432 97.5521 751.452 98.9852 752.738 100.192C754.024 101.4 755.551 102.357 757.232 103.01C758.912 103.664 760.713 104 762.532 104C764.351 104 766.152 103.664 767.833 103.01C769.513 102.357 771.04 101.4 772.326 100.192C773.612 98.9852 774.632 97.5521 775.328 95.9749C776.025 94.3977 776.383 92.7072 776.383 91H748.682Z" fill="url(#paint3_linear_228_64)"/>
<path d="M776.383 13C776.383 11.2928 776.025 9.60235 775.328 8.02512C774.632 6.44788 773.612 5.01477 772.326 3.80761C771.04 2.60045 769.513 1.64288 767.833 0.989566C766.152 0.336255 764.351 -7.46234e-08 762.532 0C760.713 7.46234e-08 758.912 0.336255 757.232 0.989566C755.551 1.64288 754.024 2.60045 752.738 3.80761C751.452 5.01477 750.432 6.44788 749.736 8.02512C749.04 9.60235 748.682 11.2928 748.682 13H776.383Z" fill="url(#paint4_linear_228_64)"/>
<path d="M776.383 22.875H797.691V82.125H776.383V22.875Z" fill="url(#paint5_linear_228_64)"/>
<path d="M776.383 82.125C776.383 83.4218 776.658 84.7059 777.194 85.904C777.729 87.1021 778.514 88.1907 779.503 89.1077C780.493 90.0247 781.667 90.752 782.96 91.2483C784.252 91.7446 785.638 92 787.037 92C788.436 92 789.822 91.7446 791.114 91.2483C792.407 90.752 793.581 90.0247 794.571 89.1077C795.56 88.1907 796.345 87.1021 796.88 85.904C797.416 84.7059 797.691 83.4218 797.691 82.125H776.383Z" fill="url(#paint6_linear_228_64)"/>
<path d="M797.691 22.875C797.691 21.5782 797.416 20.2941 796.88 19.096C796.345 17.8979 795.56 16.8093 794.571 15.8923C793.581 14.9753 792.407 14.248 791.114 13.7517C789.822 13.2554 788.436 13 787.037 13C785.638 13 784.252 13.2554 782.96 13.7517C781.667 14.248 780.493 14.9753 779.503 15.8923C778.514 16.8093 777.729 17.8979 777.194 19.096C776.658 20.2941 776.383 21.5782 776.383 22.875H797.691Z" fill="url(#paint7_linear_228_64)"/>
<path d="M808.479 62C809.86 62 811.229 61.7413 812.505 61.2388C813.782 60.7362 814.941 59.9997 815.918 59.0711C816.895 58.1425 817.67 57.0401 818.199 55.8268C818.728 54.6136 819 53.3132 819 52C819 50.6868 818.728 49.3864 818.199 48.1732C817.67 46.9599 816.895 45.8575 815.918 44.9289C814.941 44.0003 813.782 43.2638 812.505 42.7612C811.229 42.2587 809.86 42 808.479 42V62Z" fill="url(#paint8_linear_228_64)"/>
<path d="M808.479 42V62H797.159V42H808.479Z" fill="url(#paint9_linear_228_64)"/>
<path d="M70.3185 13H42.6172V91H70.3185V13Z" fill="url(#paint10_linear_228_64)"/>
<path d="M70.3185 91C70.3185 92.7072 69.9602 94.3977 69.2642 95.9749C68.5681 97.5521 67.5479 98.9852 66.2617 100.192C64.9756 101.4 63.4487 102.357 61.7682 103.01C60.0878 103.664 58.2867 104 56.4678 104C54.6489 104 52.8479 103.664 51.1674 103.01C49.487 102.357 47.9601 101.4 46.6739 100.192C45.3878 98.9852 44.3676 97.5521 43.6715 95.9749C42.9754 94.3977 42.6172 92.7072 42.6172 91H70.3185Z" fill="url(#paint11_linear_228_64)"/>
<path d="M42.6172 13C42.6172 11.2928 42.9754 9.60235 43.6715 8.02512C44.3676 6.44788 45.3878 5.01477 46.6739 3.80761C47.9601 2.60045 49.487 1.64288 51.1674 0.989566C52.8479 0.336255 54.6489 -7.46234e-08 56.4678 0C58.2867 7.46234e-08 60.0878 0.336255 61.7682 0.989566C63.4487 1.64288 64.9756 2.60045 66.2617 3.80761C67.5479 5.01477 68.5681 6.44788 69.2642 8.02512C69.9602 9.60235 70.3185 11.2928 70.3185 13H42.6172Z" fill="url(#paint12_linear_228_64)"/>
<path d="M42.6173 22.875H21.3086V82.125H42.6173V22.875Z" fill="url(#paint13_linear_228_64)"/>
<path d="M42.6173 82.125C42.6173 83.4218 42.3417 84.7059 41.8063 85.904C41.2708 87.1021 40.486 88.1907 39.4967 89.1077C38.5073 90.0247 37.3328 90.752 36.0402 91.2483C34.7475 91.7446 33.3621 92 31.9629 92C30.5638 92 29.1783 91.7446 27.8857 91.2483C26.593 90.752 25.4185 90.0247 24.4292 89.1077C23.4398 88.1907 22.655 87.1021 22.1196 85.904C21.5842 84.7059 21.3086 83.4218 21.3086 82.125H42.6173Z" fill="url(#paint14_linear_228_64)"/>
<path d="M21.3086 22.875C21.3086 21.5782 21.5842 20.2941 22.1196 19.096C22.655 17.8979 23.4398 16.8093 24.4292 15.8923C25.4185 14.9753 26.5931 14.248 27.8857 13.7517C29.1783 13.2554 30.5638 13 31.9629 13C33.3621 13 34.7475 13.2554 36.0402 13.7517C37.3328 14.248 38.5073 14.9753 39.4967 15.8923C40.486 16.8093 41.2708 17.8979 41.8063 19.096C42.3417 20.2941 42.6173 21.5782 42.6173 22.875H21.3086Z" fill="url(#paint15_linear_228_64)"/>
<path d="M10.5212 62C9.1395 62 7.77137 61.7413 6.49489 61.2388C5.2184 60.7362 4.05856 59.9997 3.08158 59.0711C2.1046 58.1425 1.32961 57.0401 0.800875 55.8268C0.272138 54.6136 -6.03942e-08 53.3132 0 52C6.03942e-08 50.6868 0.272138 49.3864 0.800876 48.1732C1.32961 46.9599 2.1046 45.8575 3.08158 44.9289C4.05856 44.0003 5.2184 43.2638 6.49489 42.7612C7.77137 42.2587 9.1395 42 10.5212 42L10.5212 62Z" fill="url(#paint16_linear_228_64)"/>
<path d="M10.5212 42L10.5212 62H21.8414V42H10.5212Z" fill="url(#paint17_linear_228_64)"/>
<path d="M70 660C70 660 276.572 679.5 409.341 679.5C542.11 679.5 748.681 660 748.681 660V738C748.681 738 542.11 718.5 409.341 718.5C276.572 718.5 70 738 70 738V660Z" fill="url(#paint18_linear_228_64)"/>
<path d="M748.682 660H776.383V738H748.682V660Z" fill="url(#paint19_linear_228_64)"/>
<path d="M748.682 738C748.682 739.707 749.04 741.398 749.736 742.975C750.432 744.552 751.452 745.985 752.738 747.192C754.024 748.4 755.551 749.357 757.232 750.01C758.912 750.664 760.713 751 762.532 751C764.351 751 766.152 750.664 767.833 750.01C769.513 749.357 771.04 748.4 772.326 747.192C773.612 745.985 774.632 744.552 775.328 742.975C776.025 741.398 776.383 739.707 776.383 738H748.682Z" fill="url(#paint20_linear_228_64)"/>
<path d="M776.383 660C776.383 658.293 776.025 656.602 775.328 655.025C774.632 653.448 773.612 652.015 772.326 650.808C771.04 649.6 769.513 648.643 767.833 647.99C766.152 647.336 764.351 647 762.532 647C760.713 647 758.912 647.336 757.232 647.99C755.551 648.643 754.024 649.6 752.738 650.808C751.452 652.015 750.432 653.448 749.736 655.025C749.04 656.602 748.682 658.293 748.682 660H776.383Z" fill="url(#paint21_linear_228_64)"/>
<path d="M776.383 669.875H797.691V729.125H776.383V669.875Z" fill="url(#paint22_linear_228_64)"/>
<path d="M776.383 729.125C776.383 730.422 776.658 731.706 777.194 732.904C777.729 734.102 778.514 735.191 779.503 736.108C780.493 737.025 781.667 737.752 782.96 738.248C784.252 738.745 785.638 739 787.037 739C788.436 739 789.822 738.745 791.114 738.248C792.407 737.752 793.581 737.025 794.571 736.108C795.56 735.191 796.345 734.102 796.88 732.904C797.416 731.706 797.691 730.422 797.691 729.125H776.383Z" fill="url(#paint23_linear_228_64)"/>
<path d="M797.691 669.875C797.691 668.578 797.416 667.294 796.88 666.096C796.345 664.898 795.56 663.809 794.571 662.892C793.581 661.975 792.407 661.248 791.114 660.752C789.822 660.255 788.436 660 787.037 660C785.638 660 784.252 660.255 782.96 660.752C781.667 661.248 780.493 661.975 779.503 662.892C778.514 663.809 777.729 664.898 777.194 666.096C776.658 667.294 776.383 668.578 776.383 669.875H797.691Z" fill="url(#paint24_linear_228_64)"/>
<path d="M808.479 709C809.86 709 811.229 708.741 812.505 708.239C813.782 707.736 814.941 707 815.918 706.071C816.895 705.142 817.67 704.04 818.199 702.827C818.728 701.614 819 700.313 819 699C819 697.687 818.728 696.386 818.199 695.173C817.67 693.96 816.895 692.858 815.918 691.929C814.941 691 813.782 690.264 812.505 689.761C811.229 689.259 809.86 689 808.479 689V709Z" fill="url(#paint25_linear_228_64)"/>
<path d="M808.479 689V709H797.159V689H808.479Z" fill="url(#paint26_linear_228_64)"/>
<path d="M70.3185 660H42.6172V738H70.3185V660Z" fill="url(#paint27_linear_228_64)"/>
<path d="M70.3185 738C70.3185 739.707 69.9602 741.398 69.2641 742.975C68.5681 744.552 67.5479 745.985 66.2617 747.192C64.9756 748.4 63.4487 749.357 61.7682 750.01C60.0878 750.664 58.2867 751 56.4678 751C54.6489 751 52.8479 750.664 51.1674 750.01C49.487 749.357 47.9601 748.4 46.6739 747.192C45.3878 745.985 44.3676 744.552 43.6715 742.975C42.9754 741.398 42.6172 739.707 42.6172 738H70.3185Z" fill="url(#paint28_linear_228_64)"/>
<path d="M42.6172 660C42.6172 658.293 42.9754 656.602 43.6715 655.025C44.3676 653.448 45.3878 652.015 46.6739 650.808C47.9601 649.6 49.487 648.643 51.1674 647.99C52.8479 647.336 54.6489 647 56.4678 647C58.2867 647 60.0878 647.336 61.7682 647.99C63.4487 648.643 64.9756 649.6 66.2617 650.808C67.5479 652.015 68.5681 653.448 69.2642 655.025C69.9602 656.602 70.3185 658.293 70.3185 660H42.6172Z" fill="url(#paint29_linear_228_64)"/>
<path d="M42.6173 669.875H21.3086V729.125H42.6173V669.875Z" fill="url(#paint30_linear_228_64)"/>
<path d="M42.6173 729.125C42.6173 730.422 42.3417 731.706 41.8063 732.904C41.2708 734.102 40.486 735.191 39.4967 736.108C38.5073 737.025 37.3328 737.752 36.0402 738.248C34.7475 738.745 33.3621 739 31.9629 739C30.5638 739 29.1783 738.745 27.8857 738.248C26.593 737.752 25.4185 737.025 24.4292 736.108C23.4398 735.191 22.655 734.102 22.1196 732.904C21.5842 731.706 21.3086 730.422 21.3086 729.125H42.6173Z" fill="url(#paint31_linear_228_64)"/>
<path d="M21.3086 669.875C21.3086 668.578 21.5842 667.294 22.1196 666.096C22.655 664.898 23.4398 663.809 24.4292 662.892C25.4185 661.975 26.5931 661.248 27.8857 660.752C29.1783 660.255 30.5638 660 31.9629 660C33.3621 660 34.7475 660.255 36.0402 660.752C37.3328 661.248 38.5073 661.975 39.4967 662.892C40.486 663.809 41.2708 664.898 41.8063 666.096C42.3417 667.294 42.6173 668.578 42.6173 669.875H21.3086Z" fill="url(#paint32_linear_228_64)"/>
<path d="M10.5212 709C9.1395 709 7.77137 708.741 6.49489 708.239C5.2184 707.736 4.05856 707 3.08158 706.071C2.1046 705.142 1.32961 704.04 0.800875 702.827C0.272138 701.614 -6.03942e-08 700.313 0 699C6.03942e-08 697.687 0.272138 696.386 0.800876 695.173C1.32961 693.96 2.1046 692.858 3.08158 691.929C4.05856 691 5.2184 690.264 6.49489 689.761C7.77137 689.259 9.1395 689 10.5212 689L10.5212 709Z" fill="url(#paint33_linear_228_64)"/>
<path d="M10.5212 689L10.5212 709H21.8414V689H10.5212Z" fill="url(#paint34_linear_228_64)"/>
<defs>
<linearGradient id="paint0_linear_228_64" x1="68.5" y1="62" x2="717.5" y2="739.5" gradientUnits="userSpaceOnUse">
<stop offset="0.0359098" stop-color="#F4DCAA"/>
<stop offset="0.481218" stop-color="#FFF5E1"/>
<stop offset="1" stop-color="#F4DCAA"/>
</linearGradient>
<linearGradient id="paint1_linear_228_64" x1="380.5" y1="24" x2="382.5" y2="138.5" gradientUnits="userSpaceOnUse">
<stop stop-color="#F8D163"/>
<stop offset="1" stop-color="#927B3A"/>
</linearGradient>
<linearGradient id="paint2_linear_228_64" x1="749" y1="6.5" x2="781.5" y2="114" gradientUnits="userSpaceOnUse">
<stop stop-color="#9F5324"/>
<stop offset="0.937171" stop-color="#391E0D"/>
</linearGradient>
<linearGradient id="paint3_linear_228_64" x1="749" y1="6.5" x2="781.5" y2="114" gradientUnits="userSpaceOnUse">
<stop stop-color="#9F5324"/>
<stop offset="0.937171" stop-color="#391E0D"/>
</linearGradient>
<linearGradient id="paint4_linear_228_64" x1="749" y1="6.5" x2="781.5" y2="114" gradientUnits="userSpaceOnUse">
<stop stop-color="#9F5324"/>
<stop offset="0.937171" stop-color="#391E0D"/>
</linearGradient>
<linearGradient id="paint5_linear_228_64" x1="765.5" y1="13" x2="807" y2="137" gradientUnits="userSpaceOnUse">
<stop stop-color="#EF9827"/>
<stop offset="1" stop-color="#895716"/>
</linearGradient>
<linearGradient id="paint6_linear_228_64" x1="765.5" y1="13" x2="807" y2="137" gradientUnits="userSpaceOnUse">
<stop stop-color="#EF9827"/>
<stop offset="1" stop-color="#895716"/>
</linearGradient>
<linearGradient id="paint7_linear_228_64" x1="765.5" y1="13" x2="807" y2="137" gradientUnits="userSpaceOnUse">
<stop stop-color="#EF9827"/>
<stop offset="1" stop-color="#895716"/>
</linearGradient>
<linearGradient id="paint8_linear_228_64" x1="795.5" y1="42" x2="810" y2="62.5" gradientUnits="userSpaceOnUse">
<stop stop-color="#9F5324"/>
<stop offset="1" stop-color="#391E0D"/>
</linearGradient>
<linearGradient id="paint9_linear_228_64" x1="795.5" y1="42" x2="810" y2="62.5" gradientUnits="userSpaceOnUse">
<stop stop-color="#9F5324"/>
<stop offset="1" stop-color="#391E0D"/>
</linearGradient>
<linearGradient id="paint10_linear_228_64" x1="70" y1="6.5" x2="37.5" y2="114" gradientUnits="userSpaceOnUse">
<stop stop-color="#9F5324"/>
<stop offset="0.937171" stop-color="#391E0D"/>
</linearGradient>
<linearGradient id="paint11_linear_228_64" x1="70" y1="6.5" x2="37.5" y2="114" gradientUnits="userSpaceOnUse">
<stop stop-color="#9F5324"/>
<stop offset="0.937171" stop-color="#391E0D"/>
</linearGradient>
<linearGradient id="paint12_linear_228_64" x1="70" y1="6.5" x2="37.5" y2="114" gradientUnits="userSpaceOnUse">
<stop stop-color="#9F5324"/>
<stop offset="0.937171" stop-color="#391E0D"/>
</linearGradient>
<linearGradient id="paint13_linear_228_64" x1="53.5" y1="13" x2="12" y2="137" gradientUnits="userSpaceOnUse">
<stop stop-color="#EF9827"/>
<stop offset="1" stop-color="#895716"/>
</linearGradient>
<linearGradient id="paint14_linear_228_64" x1="53.5" y1="13" x2="12" y2="137" gradientUnits="userSpaceOnUse">
<stop stop-color="#EF9827"/>
<stop offset="1" stop-color="#895716"/>
</linearGradient>
<linearGradient id="paint15_linear_228_64" x1="53.5" y1="13" x2="12" y2="137" gradientUnits="userSpaceOnUse">
<stop stop-color="#EF9827"/>
<stop offset="1" stop-color="#895716"/>
</linearGradient>
<linearGradient id="paint16_linear_228_64" x1="23.5" y1="42" x2="9" y2="62.5" gradientUnits="userSpaceOnUse">
<stop stop-color="#9F5324"/>
<stop offset="1" stop-color="#391E0D"/>
</linearGradient>
<linearGradient id="paint17_linear_228_64" x1="23.5" y1="42" x2="9" y2="62.5" gradientUnits="userSpaceOnUse">
<stop stop-color="#9F5324"/>
<stop offset="1" stop-color="#391E0D"/>
</linearGradient>
<linearGradient id="paint18_linear_228_64" x1="380.5" y1="671" x2="382.5" y2="785.5" gradientUnits="userSpaceOnUse">
<stop stop-color="#F8D163"/>
<stop offset="1" stop-color="#927B3A"/>
</linearGradient>
<linearGradient id="paint19_linear_228_64" x1="749" y1="653.5" x2="781.5" y2="761" gradientUnits="userSpaceOnUse">
<stop stop-color="#9F5324"/>
<stop offset="0.937171" stop-color="#391E0D"/>
</linearGradient>
<linearGradient id="paint20_linear_228_64" x1="749" y1="653.5" x2="781.5" y2="761" gradientUnits="userSpaceOnUse">
<stop stop-color="#9F5324"/>
<stop offset="0.937171" stop-color="#391E0D"/>
</linearGradient>
<linearGradient id="paint21_linear_228_64" x1="749" y1="653.5" x2="781.5" y2="761" gradientUnits="userSpaceOnUse">
<stop stop-color="#9F5324"/>
<stop offset="0.937171" stop-color="#391E0D"/>
</linearGradient>
<linearGradient id="paint22_linear_228_64" x1="765.5" y1="660" x2="807" y2="784" gradientUnits="userSpaceOnUse">
<stop stop-color="#EF9827"/>
<stop offset="1" stop-color="#895716"/>
</linearGradient>
<linearGradient id="paint23_linear_228_64" x1="765.5" y1="660" x2="807" y2="784" gradientUnits="userSpaceOnUse">
<stop stop-color="#EF9827"/>
<stop offset="1" stop-color="#895716"/>
</linearGradient>
<linearGradient id="paint24_linear_228_64" x1="765.5" y1="660" x2="807" y2="784" gradientUnits="userSpaceOnUse">
<stop stop-color="#EF9827"/>
<stop offset="1" stop-color="#895716"/>
</linearGradient>
<linearGradient id="paint25_linear_228_64" x1="795.5" y1="689" x2="810" y2="709.5" gradientUnits="userSpaceOnUse">
<stop stop-color="#9F5324"/>
<stop offset="1" stop-color="#391E0D"/>
</linearGradient>
<linearGradient id="paint26_linear_228_64" x1="795.5" y1="689" x2="810" y2="709.5" gradientUnits="userSpaceOnUse">
<stop stop-color="#9F5324"/>
<stop offset="1" stop-color="#391E0D"/>
</linearGradient>
<linearGradient id="paint27_linear_228_64" x1="70" y1="653.5" x2="37.5" y2="761" gradientUnits="userSpaceOnUse">
<stop stop-color="#9F5324"/>
<stop offset="0.937171" stop-color="#391E0D"/>
</linearGradient>
<linearGradient id="paint28_linear_228_64" x1="70" y1="653.5" x2="37.5" y2="761" gradientUnits="userSpaceOnUse">
<stop stop-color="#9F5324"/>
<stop offset="0.937171" stop-color="#391E0D"/>
</linearGradient>
<linearGradient id="paint29_linear_228_64" x1="70" y1="653.5" x2="37.5" y2="761" gradientUnits="userSpaceOnUse">
<stop stop-color="#9F5324"/>
<stop offset="0.937171" stop-color="#391E0D"/>
</linearGradient>
<linearGradient id="paint30_linear_228_64" x1="53.5" y1="660" x2="12" y2="784" gradientUnits="userSpaceOnUse">
<stop stop-color="#EF9827"/>
<stop offset="1" stop-color="#895716"/>
</linearGradient>
<linearGradient id="paint31_linear_228_64" x1="53.5" y1="660" x2="12" y2="784" gradientUnits="userSpaceOnUse">
<stop stop-color="#EF9827"/>
<stop offset="1" stop-color="#895716"/>
</linearGradient>
<linearGradient id="paint32_linear_228_64" x1="53.5" y1="660" x2="12" y2="784" gradientUnits="userSpaceOnUse">
<stop stop-color="#EF9827"/>
<stop offset="1" stop-color="#895716"/>
</linearGradient>
<linearGradient id="paint33_linear_228_64" x1="23.5" y1="689" x2="9" y2="709.5" gradientUnits="userSpaceOnUse">
<stop stop-color="#9F5324"/>
<stop offset="1" stop-color="#391E0D"/>
</linearGradient>
<linearGradient id="paint34_linear_228_64" x1="23.5" y1="689" x2="9" y2="709.5" gradientUnits="userSpaceOnUse">
<stop stop-color="#9F5324"/>
<stop offset="1" stop-color="#391E0D"/>
</linearGradient>
</defs>
</svg>
